G04*
G04 #@! TF.GenerationSoftware,Altium Limited,Altium Designer,25.8.1 (18)*
G04*
G04 Layer_Color=255*
%FSLAX44Y44*%
%MOMM*%
G71*
G04*
G04 #@! TF.SameCoordinates,4D883809-8B02-41DD-AC40-551AF399FC8D*
G04*
G04*
G04 #@! TF.FilePolarity,Positive*
G04*
G01*
G75*
G04:AMPARAMS|DCode=19|XSize=0.95mm|YSize=0.9mm|CornerRadius=0.045mm|HoleSize=0mm|Usage=FLASHONLY|Rotation=0.000|XOffset=0mm|YOffset=0mm|HoleType=Round|Shape=RoundedRectangle|*
%AMROUNDEDRECTD19*
21,1,0.9500,0.8100,0,0,0.0*
21,1,0.8600,0.9000,0,0,0.0*
1,1,0.0900,0.4300,-0.4050*
1,1,0.0900,-0.4300,-0.4050*
1,1,0.0900,-0.4300,0.4050*
1,1,0.0900,0.4300,0.4050*
%
%ADD19ROUNDEDRECTD19*%
G04:AMPARAMS|DCode=20|XSize=1.57mm|YSize=0.41mm|CornerRadius=0.0513mm|HoleSize=0mm|Usage=FLASHONLY|Rotation=0.000|XOffset=0mm|YOffset=0mm|HoleType=Round|Shape=RoundedRectangle|*
%AMROUNDEDRECTD20*
21,1,1.5700,0.3075,0,0,0.0*
21,1,1.4675,0.4100,0,0,0.0*
1,1,0.1025,0.7338,-0.1538*
1,1,0.1025,-0.7338,-0.1538*
1,1,0.1025,-0.7338,0.1538*
1,1,0.1025,0.7338,0.1538*
%
%ADD20ROUNDEDRECTD20*%
G04:AMPARAMS|DCode=21|XSize=0.94mm|YSize=0.75mm|CornerRadius=0.0375mm|HoleSize=0mm|Usage=FLASHONLY|Rotation=180.000|XOffset=0mm|YOffset=0mm|HoleType=Round|Shape=RoundedRectangle|*
%AMROUNDEDRECTD21*
21,1,0.9400,0.6750,0,0,180.0*
21,1,0.8650,0.7500,0,0,180.0*
1,1,0.0750,-0.4325,0.3375*
1,1,0.0750,0.4325,0.3375*
1,1,0.0750,0.4325,-0.3375*
1,1,0.0750,-0.4325,-0.3375*
%
%ADD21ROUNDEDRECTD21*%
G04:AMPARAMS|DCode=22|XSize=0.65mm|YSize=0.6mm|CornerRadius=0.045mm|HoleSize=0mm|Usage=FLASHONLY|Rotation=180.000|XOffset=0mm|YOffset=0mm|HoleType=Round|Shape=RoundedRectangle|*
%AMROUNDEDRECTD22*
21,1,0.6500,0.5100,0,0,180.0*
21,1,0.5600,0.6000,0,0,180.0*
1,1,0.0900,-0.2800,0.2550*
1,1,0.0900,0.2800,0.2550*
1,1,0.0900,0.2800,-0.2550*
1,1,0.0900,-0.2800,-0.2550*
%
%ADD22ROUNDEDRECTD22*%
G04:AMPARAMS|DCode=23|XSize=1.05mm|YSize=0.55mm|CornerRadius=0.0688mm|HoleSize=0mm|Usage=FLASHONLY|Rotation=180.000|XOffset=0mm|YOffset=0mm|HoleType=Round|Shape=RoundedRectangle|*
%AMROUNDEDRECTD23*
21,1,1.0500,0.4125,0,0,180.0*
21,1,0.9125,0.5500,0,0,180.0*
1,1,0.1375,-0.4563,0.2063*
1,1,0.1375,0.4563,0.2063*
1,1,0.1375,0.4563,-0.2063*
1,1,0.1375,-0.4563,-0.2063*
%
%ADD23ROUNDEDRECTD23*%
G04:AMPARAMS|DCode=24|XSize=0.8mm|YSize=1.3mm|CornerRadius=0.04mm|HoleSize=0mm|Usage=FLASHONLY|Rotation=90.000|XOffset=0mm|YOffset=0mm|HoleType=Round|Shape=RoundedRectangle|*
%AMROUNDEDRECTD24*
21,1,0.8000,1.2200,0,0,90.0*
21,1,0.7200,1.3000,0,0,90.0*
1,1,0.0800,0.6100,0.3600*
1,1,0.0800,0.6100,-0.3600*
1,1,0.0800,-0.6100,-0.3600*
1,1,0.0800,-0.6100,0.3600*
%
%ADD24ROUNDEDRECTD24*%
G04:AMPARAMS|DCode=25|XSize=0.8mm|YSize=1.3mm|CornerRadius=0.04mm|HoleSize=0mm|Usage=FLASHONLY|Rotation=0.000|XOffset=0mm|YOffset=0mm|HoleType=Round|Shape=RoundedRectangle|*
%AMROUNDEDRECTD25*
21,1,0.8000,1.2200,0,0,0.0*
21,1,0.7200,1.3000,0,0,0.0*
1,1,0.0800,0.3600,-0.6100*
1,1,0.0800,-0.3600,-0.6100*
1,1,0.0800,-0.3600,0.6100*
1,1,0.0800,0.3600,0.6100*
%
%ADD25ROUNDEDRECTD25*%
%ADD26R,2.4000X3.3000*%
G04:AMPARAMS|DCode=27|XSize=0.94mm|YSize=0.75mm|CornerRadius=0.0375mm|HoleSize=0mm|Usage=FLASHONLY|Rotation=315.000|XOffset=0mm|YOffset=0mm|HoleType=Round|Shape=RoundedRectangle|*
%AMROUNDEDRECTD27*
21,1,0.9400,0.6750,0,0,315.0*
21,1,0.8650,0.7500,0,0,315.0*
1,1,0.0750,0.0672,-0.5445*
1,1,0.0750,-0.5445,0.0672*
1,1,0.0750,-0.0672,0.5445*
1,1,0.0750,0.5445,-0.0672*
%
%ADD27ROUNDEDRECTD27*%
G04:AMPARAMS|DCode=28|XSize=0.95mm|YSize=0.9mm|CornerRadius=0.045mm|HoleSize=0mm|Usage=FLASHONLY|Rotation=90.000|XOffset=0mm|YOffset=0mm|HoleType=Round|Shape=RoundedRectangle|*
%AMROUNDEDRECTD28*
21,1,0.9500,0.8100,0,0,90.0*
21,1,0.8600,0.9000,0,0,90.0*
1,1,0.0900,0.4050,0.4300*
1,1,0.0900,0.4050,-0.4300*
1,1,0.0900,-0.4050,-0.4300*
1,1,0.0900,-0.4050,0.4300*
%
%ADD28ROUNDEDRECTD28*%
G04:AMPARAMS|DCode=29|XSize=0.94mm|YSize=0.75mm|CornerRadius=0.0375mm|HoleSize=0mm|Usage=FLASHONLY|Rotation=270.000|XOffset=0mm|YOffset=0mm|HoleType=Round|Shape=RoundedRectangle|*
%AMROUNDEDRECTD29*
21,1,0.9400,0.6750,0,0,270.0*
21,1,0.8650,0.7500,0,0,270.0*
1,1,0.0750,-0.3375,-0.4325*
1,1,0.0750,-0.3375,0.4325*
1,1,0.0750,0.3375,0.4325*
1,1,0.0750,0.3375,-0.4325*
%
%ADD29ROUNDEDRECTD29*%
G04:AMPARAMS|DCode=30|XSize=1.2mm|YSize=0.6mm|CornerRadius=0.03mm|HoleSize=0mm|Usage=FLASHONLY|Rotation=270.000|XOffset=0mm|YOffset=0mm|HoleType=Round|Shape=RoundedRectangle|*
%AMROUNDEDRECTD30*
21,1,1.2000,0.5400,0,0,270.0*
21,1,1.1400,0.6000,0,0,270.0*
1,1,0.0600,-0.2700,-0.5700*
1,1,0.0600,-0.2700,0.5700*
1,1,0.0600,0.2700,0.5700*
1,1,0.0600,0.2700,-0.5700*
%
%ADD30ROUNDEDRECTD30*%
G04:AMPARAMS|DCode=31|XSize=0.95mm|YSize=0.9mm|CornerRadius=0.045mm|HoleSize=0mm|Usage=FLASHONLY|Rotation=315.000|XOffset=0mm|YOffset=0mm|HoleType=Round|Shape=RoundedRectangle|*
%AMROUNDEDRECTD31*
21,1,0.9500,0.8100,0,0,315.0*
21,1,0.8600,0.9000,0,0,315.0*
1,1,0.0900,0.0177,-0.5904*
1,1,0.0900,-0.5904,0.0177*
1,1,0.0900,-0.0177,0.5904*
1,1,0.0900,0.5904,-0.0177*
%
%ADD31ROUNDEDRECTD31*%
G04:AMPARAMS|DCode=32|XSize=1.45mm|YSize=0.3mm|CornerRadius=0.0375mm|HoleSize=0mm|Usage=FLASHONLY|Rotation=225.000|XOffset=0mm|YOffset=0mm|HoleType=Round|Shape=RoundedRectangle|*
%AMROUNDEDRECTD32*
21,1,1.4500,0.2250,0,0,225.0*
21,1,1.3750,0.3000,0,0,225.0*
1,1,0.0750,-0.5657,-0.4066*
1,1,0.0750,0.4066,0.5657*
1,1,0.0750,0.5657,0.4066*
1,1,0.0750,-0.4066,-0.5657*
%
%ADD32ROUNDEDRECTD32*%
G04:AMPARAMS|DCode=33|XSize=1.5mm|YSize=0.45mm|CornerRadius=0.0563mm|HoleSize=0mm|Usage=FLASHONLY|Rotation=180.000|XOffset=0mm|YOffset=0mm|HoleType=Round|Shape=RoundedRectangle|*
%AMROUNDEDRECTD33*
21,1,1.5000,0.3375,0,0,180.0*
21,1,1.3875,0.4500,0,0,180.0*
1,1,0.1125,-0.6938,0.1688*
1,1,0.1125,0.6938,0.1688*
1,1,0.1125,0.6938,-0.1688*
1,1,0.1125,-0.6938,-0.1688*
%
%ADD33ROUNDEDRECTD33*%
G04:AMPARAMS|DCode=34|XSize=1.2mm|YSize=0.6mm|CornerRadius=0.03mm|HoleSize=0mm|Usage=FLASHONLY|Rotation=180.000|XOffset=0mm|YOffset=0mm|HoleType=Round|Shape=RoundedRectangle|*
%AMROUNDEDRECTD34*
21,1,1.2000,0.5400,0,0,180.0*
21,1,1.1400,0.6000,0,0,180.0*
1,1,0.0600,-0.5700,0.2700*
1,1,0.0600,0.5700,0.2700*
1,1,0.0600,0.5700,-0.2700*
1,1,0.0600,-0.5700,-0.2700*
%
%ADD34ROUNDEDRECTD34*%
G04:AMPARAMS|DCode=35|XSize=2.34mm|YSize=0.64mm|CornerRadius=0.08mm|HoleSize=0mm|Usage=FLASHONLY|Rotation=0.000|XOffset=0mm|YOffset=0mm|HoleType=Round|Shape=RoundedRectangle|*
%AMROUNDEDRECTD35*
21,1,2.3400,0.4800,0,0,0.0*
21,1,2.1800,0.6400,0,0,0.0*
1,1,0.1600,1.0900,-0.2400*
1,1,0.1600,-1.0900,-0.2400*
1,1,0.1600,-1.0900,0.2400*
1,1,0.1600,1.0900,0.2400*
%
%ADD35ROUNDEDRECTD35*%
G04:AMPARAMS|DCode=36|XSize=0.95mm|YSize=0.9mm|CornerRadius=0.045mm|HoleSize=0mm|Usage=FLASHONLY|Rotation=45.000|XOffset=0mm|YOffset=0mm|HoleType=Round|Shape=RoundedRectangle|*
%AMROUNDEDRECTD36*
21,1,0.9500,0.8100,0,0,45.0*
21,1,0.8600,0.9000,0,0,45.0*
1,1,0.0900,0.5904,0.0177*
1,1,0.0900,-0.0177,-0.5904*
1,1,0.0900,-0.5904,-0.0177*
1,1,0.0900,0.0177,0.5904*
%
%ADD36ROUNDEDRECTD36*%
G04:AMPARAMS|DCode=37|XSize=1.45mm|YSize=0.3mm|CornerRadius=0.0375mm|HoleSize=0mm|Usage=FLASHONLY|Rotation=315.000|XOffset=0mm|YOffset=0mm|HoleType=Round|Shape=RoundedRectangle|*
%AMROUNDEDRECTD37*
21,1,1.4500,0.2250,0,0,315.0*
21,1,1.3750,0.3000,0,0,315.0*
1,1,0.0750,0.4066,-0.5657*
1,1,0.0750,-0.5657,0.4066*
1,1,0.0750,-0.4066,0.5657*
1,1,0.0750,0.5657,-0.4066*
%
%ADD37ROUNDEDRECTD37*%
G04:AMPARAMS|DCode=38|XSize=0.94mm|YSize=0.75mm|CornerRadius=0.0375mm|HoleSize=0mm|Usage=FLASHONLY|Rotation=45.000|XOffset=0mm|YOffset=0mm|HoleType=Round|Shape=RoundedRectangle|*
%AMROUNDEDRECTD38*
21,1,0.9400,0.6750,0,0,45.0*
21,1,0.8650,0.7500,0,0,45.0*
1,1,0.0750,0.5445,0.0672*
1,1,0.0750,-0.0672,-0.5445*
1,1,0.0750,-0.5445,-0.0672*
1,1,0.0750,0.0672,0.5445*
%
%ADD38ROUNDEDRECTD38*%
G04:AMPARAMS|DCode=39|XSize=0.56mm|YSize=0.51mm|CornerRadius=0.0255mm|HoleSize=0mm|Usage=FLASHONLY|Rotation=90.000|XOffset=0mm|YOffset=0mm|HoleType=Round|Shape=RoundedRectangle|*
%AMROUNDEDRECTD39*
21,1,0.5600,0.4590,0,0,90.0*
21,1,0.5090,0.5100,0,0,90.0*
1,1,0.0510,0.2295,0.2545*
1,1,0.0510,0.2295,-0.2545*
1,1,0.0510,-0.2295,-0.2545*
1,1,0.0510,-0.2295,0.2545*
%
%ADD39ROUNDEDRECTD39*%
%ADD40R,0.6000X1.5000*%
G04:AMPARAMS|DCode=41|XSize=2.34mm|YSize=0.64mm|CornerRadius=0.08mm|HoleSize=0mm|Usage=FLASHONLY|Rotation=270.000|XOffset=0mm|YOffset=0mm|HoleType=Round|Shape=RoundedRectangle|*
%AMROUNDEDRECTD41*
21,1,2.3400,0.4800,0,0,270.0*
21,1,2.1800,0.6400,0,0,270.0*
1,1,0.1600,-0.2400,-1.0900*
1,1,0.1600,-0.2400,1.0900*
1,1,0.1600,0.2400,1.0900*
1,1,0.1600,0.2400,-1.0900*
%
%ADD41ROUNDEDRECTD41*%
G04:AMPARAMS|DCode=42|XSize=0.65mm|YSize=0.6mm|CornerRadius=0.045mm|HoleSize=0mm|Usage=FLASHONLY|Rotation=90.000|XOffset=0mm|YOffset=0mm|HoleType=Round|Shape=RoundedRectangle|*
%AMROUNDEDRECTD42*
21,1,0.6500,0.5100,0,0,90.0*
21,1,0.5600,0.6000,0,0,90.0*
1,1,0.0900,0.2550,0.2800*
1,1,0.0900,0.2550,-0.2800*
1,1,0.0900,-0.2550,-0.2800*
1,1,0.0900,-0.2550,0.2800*
%
%ADD42ROUNDEDRECTD42*%
%ADD43R,3.4000X1.3000*%
%ADD44R,3.7000X0.9800*%
G04:AMPARAMS|DCode=45|XSize=1.5mm|YSize=0.8mm|CornerRadius=0.2mm|HoleSize=0mm|Usage=FLASHONLY|Rotation=270.000|XOffset=0mm|YOffset=0mm|HoleType=Round|Shape=RoundedRectangle|*
%AMROUNDEDRECTD45*
21,1,1.5000,0.4000,0,0,270.0*
21,1,1.1000,0.8000,0,0,270.0*
1,1,0.4000,-0.2000,-0.5500*
1,1,0.4000,-0.2000,0.5500*
1,1,0.4000,0.2000,0.5500*
1,1,0.4000,0.2000,-0.5500*
%
%ADD45ROUNDEDRECTD45*%
%ADD46R,3.3500X1.2500*%
G04:AMPARAMS|DCode=51|XSize=3.42mm|YSize=1.21mm|CornerRadius=0.0605mm|HoleSize=0mm|Usage=FLASHONLY|Rotation=90.000|XOffset=0mm|YOffset=0mm|HoleType=Round|Shape=RoundedRectangle|*
%AMROUNDEDRECTD51*
21,1,3.4200,1.0890,0,0,90.0*
21,1,3.2990,1.2100,0,0,90.0*
1,1,0.1210,0.5445,1.6495*
1,1,0.1210,0.5445,-1.6495*
1,1,0.1210,-0.5445,-1.6495*
1,1,0.1210,-0.5445,1.6495*
%
%ADD51ROUNDEDRECTD51*%
G04:AMPARAMS|DCode=52|XSize=3.42mm|YSize=1.21mm|CornerRadius=0.0605mm|HoleSize=0mm|Usage=FLASHONLY|Rotation=0.000|XOffset=0mm|YOffset=0mm|HoleType=Round|Shape=RoundedRectangle|*
%AMROUNDEDRECTD52*
21,1,3.4200,1.0890,0,0,0.0*
21,1,3.2990,1.2100,0,0,0.0*
1,1,0.1210,1.6495,-0.5445*
1,1,0.1210,-1.6495,-0.5445*
1,1,0.1210,-1.6495,0.5445*
1,1,0.1210,1.6495,0.5445*
%
%ADD52ROUNDEDRECTD52*%
G04:AMPARAMS|DCode=53|XSize=1.8mm|YSize=1.4mm|CornerRadius=0.07mm|HoleSize=0mm|Usage=FLASHONLY|Rotation=90.000|XOffset=0mm|YOffset=0mm|HoleType=Round|Shape=RoundedRectangle|*
%AMROUNDEDRECTD53*
21,1,1.8000,1.2600,0,0,90.0*
21,1,1.6600,1.4000,0,0,90.0*
1,1,0.1400,0.6300,0.8300*
1,1,0.1400,0.6300,-0.8300*
1,1,0.1400,-0.6300,-0.8300*
1,1,0.1400,-0.6300,0.8300*
%
%ADD53ROUNDEDRECTD53*%
%ADD54R,2.9500X3.5000*%
%ADD55R,1.6700X1.1000*%
G04:AMPARAMS|DCode=56|XSize=1.05mm|YSize=0.55mm|CornerRadius=0.0688mm|HoleSize=0mm|Usage=FLASHONLY|Rotation=90.000|XOffset=0mm|YOffset=0mm|HoleType=Round|Shape=RoundedRectangle|*
%AMROUNDEDRECTD56*
21,1,1.0500,0.4125,0,0,90.0*
21,1,0.9125,0.5500,0,0,90.0*
1,1,0.1375,0.2063,0.4563*
1,1,0.1375,0.2063,-0.4563*
1,1,0.1375,-0.2063,-0.4563*
1,1,0.1375,-0.2063,0.4563*
%
%ADD56ROUNDEDRECTD56*%
G04:AMPARAMS|DCode=57|XSize=1.8mm|YSize=1.4mm|CornerRadius=0.07mm|HoleSize=0mm|Usage=FLASHONLY|Rotation=180.000|XOffset=0mm|YOffset=0mm|HoleType=Round|Shape=RoundedRectangle|*
%AMROUNDEDRECTD57*
21,1,1.8000,1.2600,0,0,180.0*
21,1,1.6600,1.4000,0,0,180.0*
1,1,0.1400,-0.8300,0.6300*
1,1,0.1400,0.8300,0.6300*
1,1,0.1400,0.8300,-0.6300*
1,1,0.1400,-0.8300,-0.6300*
%
%ADD57ROUNDEDRECTD57*%
G04:AMPARAMS|DCode=58|XSize=0.56mm|YSize=0.51mm|CornerRadius=0.0255mm|HoleSize=0mm|Usage=FLASHONLY|Rotation=180.000|XOffset=0mm|YOffset=0mm|HoleType=Round|Shape=RoundedRectangle|*
%AMROUNDEDRECTD58*
21,1,0.5600,0.4590,0,0,180.0*
21,1,0.5090,0.5100,0,0,180.0*
1,1,0.0510,-0.2545,0.2295*
1,1,0.0510,0.2545,0.2295*
1,1,0.0510,0.2545,-0.2295*
1,1,0.0510,-0.2545,-0.2295*
%
%ADD58ROUNDEDRECTD58*%
%ADD59R,1.3000X3.4000*%
%ADD116R,4.5500X0.8500*%
%ADD117R,4.0000X1.1000*%
%ADD118R,4.5000X1.1000*%
%ADD119R,4.5000X0.8500*%
%ADD120R,0.8000X2.7000*%
%ADD124R,2.6250X2.6250*%
%ADD125C,2.6250*%
%ADD126C,1.8000*%
%ADD127R,1.4000X1.4000*%
%ADD128C,1.4000*%
%ADD129C,1.7500*%
%ADD130C,1.6500*%
%ADD131R,1.8000X1.8000*%
%ADD132C,1.4080*%
%ADD133C,1.5750*%
%ADD134R,1.4080X1.4080*%
%ADD135C,1.4730*%
%ADD136R,1.6500X1.6500*%
%ADD137C,2.8500*%
D19*
X1863140Y663300D02*
D03*
Y647300D02*
D03*
X2869950Y663300D02*
D03*
Y647300D02*
D03*
X2854950D02*
D03*
Y663300D02*
D03*
X1848140Y647300D02*
D03*
Y663300D02*
D03*
X841330Y647300D02*
D03*
Y663300D02*
D03*
X856330Y647300D02*
D03*
Y663300D02*
D03*
X1064830Y687300D02*
D03*
Y703300D02*
D03*
X1049830Y687300D02*
D03*
Y703300D02*
D03*
X1297860Y687300D02*
D03*
Y703300D02*
D03*
X1312860Y687300D02*
D03*
Y703300D02*
D03*
X1521360Y687300D02*
D03*
Y703300D02*
D03*
X1506360Y687300D02*
D03*
Y703300D02*
D03*
X2071640D02*
D03*
Y687300D02*
D03*
X2056640Y703300D02*
D03*
Y687300D02*
D03*
X2319670Y703300D02*
D03*
Y687300D02*
D03*
X2513170Y703300D02*
D03*
Y687300D02*
D03*
X2528170Y703300D02*
D03*
Y687300D02*
D03*
X3326480Y703300D02*
D03*
Y687300D02*
D03*
X3519980Y703300D02*
D03*
Y687300D02*
D03*
X3534980Y703300D02*
D03*
Y687300D02*
D03*
X3063450Y703300D02*
D03*
Y687300D02*
D03*
X3078450Y703300D02*
D03*
Y687300D02*
D03*
X3311480Y703300D02*
D03*
Y687300D02*
D03*
X2304670Y703300D02*
D03*
Y687300D02*
D03*
X3732856Y2001829D02*
D03*
X2014695Y112996D02*
D03*
Y96996D02*
D03*
X3592856Y1964329D02*
D03*
X314636Y126946D02*
D03*
X3021505Y96996D02*
D03*
X1007885D02*
D03*
X1349830Y126696D02*
D03*
X2356640Y126696D02*
D03*
X1450331Y1885079D02*
D03*
X2457141Y1886096D02*
D03*
X3363450Y126696D02*
D03*
X3463951Y1885079D02*
D03*
X4111745Y1963219D02*
D03*
Y1947219D02*
D03*
X4050345Y1998095D02*
D03*
Y1982095D02*
D03*
X4024945Y1998095D02*
D03*
Y1982095D02*
D03*
X3963545Y1963219D02*
D03*
Y1947219D02*
D03*
X3732856Y1985829D02*
D03*
X3592856Y1980329D02*
D03*
X3831856Y1985829D02*
D03*
Y1969829D02*
D03*
X4045710Y1546420D02*
D03*
Y1562420D02*
D03*
X3984245Y1673719D02*
D03*
Y1657719D02*
D03*
X4012245Y1673719D02*
D03*
Y1657719D02*
D03*
X4024945Y1943219D02*
D03*
Y1927219D02*
D03*
X4037645Y1673719D02*
D03*
Y1657719D02*
D03*
X4050345Y1943219D02*
D03*
Y1927219D02*
D03*
X4065645Y1673719D02*
D03*
Y1657719D02*
D03*
Y1764719D02*
D03*
Y1748719D02*
D03*
X4037645Y1764719D02*
D03*
Y1748719D02*
D03*
X4012245Y1764719D02*
D03*
Y1748719D02*
D03*
X3984245Y1764719D02*
D03*
Y1748719D02*
D03*
X3049102Y72513D02*
D03*
Y88513D02*
D03*
X2042292Y72513D02*
D03*
X1035482D02*
D03*
Y88513D02*
D03*
X4384050Y1782750D02*
D03*
Y1798750D02*
D03*
X4371050Y1911750D02*
D03*
Y1927750D02*
D03*
X3363450Y110696D02*
D03*
X3463951Y1869079D02*
D03*
X2356640Y110696D02*
D03*
X2457141Y1870096D02*
D03*
X1450331Y1869079D02*
D03*
X4082280Y1185030D02*
D03*
Y1169030D02*
D03*
X314636Y110946D02*
D03*
X856330Y1278510D02*
D03*
X841330D02*
D03*
X3021505Y112996D02*
D03*
X1007885D02*
D03*
X1349830Y110696D02*
D03*
X2854950Y1278510D02*
D03*
Y1294510D02*
D03*
X3078450Y1278510D02*
D03*
Y1294510D02*
D03*
X1848140D02*
D03*
Y1278510D02*
D03*
X3311480Y1294510D02*
D03*
Y1278510D02*
D03*
X2869950D02*
D03*
Y1294510D02*
D03*
X3063450Y1278510D02*
D03*
Y1294510D02*
D03*
X3326480D02*
D03*
Y1278510D02*
D03*
X3534980Y1294510D02*
D03*
Y1278510D02*
D03*
X3519980Y1294510D02*
D03*
Y1278510D02*
D03*
X2513170Y1294510D02*
D03*
Y1278510D02*
D03*
X2528170D02*
D03*
Y1294510D02*
D03*
X2319670D02*
D03*
Y1278510D02*
D03*
X2304670D02*
D03*
Y1294510D02*
D03*
X1863140Y1278510D02*
D03*
Y1294510D02*
D03*
X2056640Y1278510D02*
D03*
Y1294510D02*
D03*
X2071640D02*
D03*
Y1278510D02*
D03*
X841330Y1294510D02*
D03*
X856330D02*
D03*
X1049830Y1278510D02*
D03*
Y1294510D02*
D03*
X1064830D02*
D03*
Y1278510D02*
D03*
X1297860Y1299510D02*
D03*
Y1283510D02*
D03*
X1312860D02*
D03*
Y1299510D02*
D03*
X2042292Y88513D02*
D03*
X1506360Y1278510D02*
D03*
Y1294510D02*
D03*
X1521360D02*
D03*
Y1278510D02*
D03*
D20*
X4153380Y1050030D02*
D03*
Y1043530D02*
D03*
Y1017530D02*
D03*
X4210780Y1011030D02*
D03*
Y1043530D02*
D03*
Y1037030D02*
D03*
X4153380Y1024030D02*
D03*
Y1030530D02*
D03*
X4210780Y1017530D02*
D03*
Y1024030D02*
D03*
Y1030530D02*
D03*
X4153380Y1037030D02*
D03*
Y1011030D02*
D03*
X4210780Y1050030D02*
D03*
D21*
X1494830Y126996D02*
D03*
Y112996D02*
D03*
X1595331Y1885379D02*
D03*
X4351050Y1925750D02*
D03*
X4364050Y1768750D02*
D03*
X3752856Y1999829D02*
D03*
X3612766Y1966329D02*
D03*
X3608951Y1885379D02*
D03*
X3948430Y1609330D02*
D03*
X4026660Y1548420D02*
D03*
X3974890Y1583930D02*
D03*
X3968830Y1007730D02*
D03*
X3918430Y1063130D02*
D03*
X3239951Y1943231D02*
D03*
X3508450Y126996D02*
D03*
X2602141Y1886396D02*
D03*
X2233141Y1943231D02*
D03*
X1226331D02*
D03*
X3343450Y124696D02*
D03*
X2926505Y109496D02*
D03*
X2996505Y107246D02*
D03*
X2501640Y126996D02*
D03*
X2336640Y124696D02*
D03*
X1919695Y109496D02*
D03*
X1989695Y107246D02*
D03*
X1329830Y124696D02*
D03*
X982885Y107246D02*
D03*
X409636Y114446D02*
D03*
X339636Y116696D02*
D03*
X912885Y109496D02*
D03*
X292277Y86330D02*
D03*
X1595331Y1871379D02*
D03*
X1874695Y124496D02*
D03*
Y110496D02*
D03*
X1919695Y95496D02*
D03*
X1989695Y93246D02*
D03*
X1913695Y63246D02*
D03*
Y77246D02*
D03*
X1794695Y82696D02*
D03*
Y68696D02*
D03*
X339636Y130696D02*
D03*
X2996505Y93246D02*
D03*
X982885Y93246D02*
D03*
X3918430Y1049130D02*
D03*
X3948430Y1595330D02*
D03*
X4026660Y1562420D02*
D03*
X2501640Y112996D02*
D03*
X2602141Y1872396D02*
D03*
X3508450Y112996D02*
D03*
X3608951Y1871379D02*
D03*
X3752856Y1985829D02*
D03*
X3672856Y1966329D02*
D03*
Y1980329D02*
D03*
X3612766D02*
D03*
X3811856Y1985829D02*
D03*
Y1971829D02*
D03*
X4430050Y1739250D02*
D03*
X4430050Y1753250D02*
D03*
X4364050Y1782750D02*
D03*
X4351050Y1911750D02*
D03*
X4417050Y1882250D02*
D03*
Y1868250D02*
D03*
X2432141Y1918096D02*
D03*
X3968830Y993730D02*
D03*
X3567450Y85746D02*
D03*
Y99746D02*
D03*
X3428450Y107496D02*
D03*
Y93496D02*
D03*
X3343450Y110696D02*
D03*
X3667951Y1844129D02*
D03*
Y1858129D02*
D03*
X3528951Y1865879D02*
D03*
Y1851879D02*
D03*
X2336640Y110696D02*
D03*
X2421640Y107496D02*
D03*
Y93496D02*
D03*
X2560640Y85746D02*
D03*
Y99746D02*
D03*
X2522141Y1866896D02*
D03*
Y1852896D02*
D03*
X2661141Y1845146D02*
D03*
X2661141Y1859146D02*
D03*
X1515331Y1865879D02*
D03*
Y1851879D02*
D03*
X1654331Y1844129D02*
D03*
Y1858129D02*
D03*
X2313141Y1945846D02*
D03*
Y1931846D02*
D03*
X2233141Y1957231D02*
D03*
X2393141Y1951346D02*
D03*
X2393141Y1965347D02*
D03*
X2432141Y1904096D02*
D03*
X1425331Y1918096D02*
D03*
X3438951Y1918096D02*
D03*
X1306331Y1945847D02*
D03*
Y1931846D02*
D03*
X1386331Y1951346D02*
D03*
Y1965347D02*
D03*
X1226331Y1957231D02*
D03*
X1425331Y1904096D02*
D03*
X3319951Y1945846D02*
D03*
Y1931846D02*
D03*
X3399951Y1965347D02*
D03*
Y1951346D02*
D03*
X3239951Y1957231D02*
D03*
X3438951Y1904096D02*
D03*
X409636Y128446D02*
D03*
X452277Y94446D02*
D03*
X452277Y108446D02*
D03*
X372277Y74946D02*
D03*
Y88946D02*
D03*
X292277Y100330D02*
D03*
X491277Y61196D02*
D03*
Y47196D02*
D03*
X3974890Y1569930D02*
D03*
X3782730Y1550230D02*
D03*
Y1564230D02*
D03*
X2926505Y95496D02*
D03*
X912885D02*
D03*
X2920505Y77246D02*
D03*
Y63246D02*
D03*
X2881505Y110496D02*
D03*
X1414830Y93496D02*
D03*
Y107496D02*
D03*
X1329830Y110696D02*
D03*
X1553830Y99746D02*
D03*
Y85746D02*
D03*
X798285Y240396D02*
D03*
Y226396D02*
D03*
X2811905D02*
D03*
Y240396D02*
D03*
X1805095D02*
D03*
Y226396D02*
D03*
X906885Y77246D02*
D03*
Y63246D02*
D03*
X2801505Y82696D02*
D03*
Y68696D02*
D03*
X2881505Y124496D02*
D03*
X787885Y68696D02*
D03*
Y82696D02*
D03*
X867885Y110496D02*
D03*
Y124496D02*
D03*
X3782730Y988030D02*
D03*
Y974030D02*
D03*
D22*
X4437050Y1911500D02*
D03*
X4450050Y1782500D02*
D03*
X4437050Y1921500D02*
D03*
X4450050Y1792500D02*
D03*
X565650Y1624844D02*
D03*
X565650Y1614844D02*
D03*
D23*
X4417050Y1911750D02*
D03*
X4430050Y1782750D02*
D03*
X4404050D02*
D03*
X4404050Y1773250D02*
D03*
Y1792250D02*
D03*
X4430050D02*
D03*
Y1773250D02*
D03*
X4417050Y1902250D02*
D03*
X4417050Y1921250D02*
D03*
X4391050Y1921250D02*
D03*
X4391050Y1911750D02*
D03*
X4391050Y1902250D02*
D03*
D24*
X4437050Y1867250D02*
D03*
X4450050Y1735550D02*
D03*
X3588951Y1891379D02*
D03*
X2582141Y1892396D02*
D03*
X3488450Y132996D02*
D03*
X2481640D02*
D03*
X1575331Y1891379D02*
D03*
X1474830Y132996D02*
D03*
X1854695Y130496D02*
D03*
Y110496D02*
D03*
X1938695Y80246D02*
D03*
Y60246D02*
D03*
X4437050Y1847250D02*
D03*
X4450050Y1715550D02*
D03*
X2457141Y1921096D02*
D03*
X3948430Y948330D02*
D03*
Y968330D02*
D03*
X3968830Y948330D02*
D03*
Y968330D02*
D03*
Y888330D02*
D03*
Y908330D02*
D03*
X3948430Y888330D02*
D03*
Y908330D02*
D03*
X3592450Y102746D02*
D03*
Y82746D02*
D03*
X3488450Y112996D02*
D03*
X3588951Y1871379D02*
D03*
X3692951Y1861129D02*
D03*
Y1841129D02*
D03*
X2585640Y102746D02*
D03*
Y82746D02*
D03*
X2481640Y112996D02*
D03*
X2686141Y1862146D02*
D03*
X2686141Y1842146D02*
D03*
X2582141Y1872396D02*
D03*
X1679331Y1861129D02*
D03*
Y1841129D02*
D03*
X1575331Y1871379D02*
D03*
X2373141Y1951346D02*
D03*
Y1971346D02*
D03*
X2457141Y1901096D02*
D03*
X1450331Y1921096D02*
D03*
X3463951Y1921096D02*
D03*
X1450331Y1901096D02*
D03*
X1366331Y1951346D02*
D03*
Y1971346D02*
D03*
X3463951Y1901096D02*
D03*
X3379951Y1951346D02*
D03*
Y1971346D02*
D03*
X432277Y114446D02*
D03*
Y94446D02*
D03*
X516277Y44196D02*
D03*
Y64196D02*
D03*
X3970930Y1484530D02*
D03*
X3970930Y1464530D02*
D03*
Y1524530D02*
D03*
Y1544530D02*
D03*
X3991330Y1484530D02*
D03*
Y1464530D02*
D03*
Y1544530D02*
D03*
Y1524530D02*
D03*
X3717730Y1567230D02*
D03*
Y1547230D02*
D03*
X2945505Y60246D02*
D03*
Y80246D02*
D03*
X2861505Y110496D02*
D03*
X1474830Y112996D02*
D03*
X1578830Y82746D02*
D03*
Y102746D02*
D03*
X847885Y110496D02*
D03*
Y130496D02*
D03*
X744935Y286396D02*
D03*
Y306396D02*
D03*
X725435D02*
D03*
Y286396D02*
D03*
X2758555D02*
D03*
Y306396D02*
D03*
X2739055D02*
D03*
Y286396D02*
D03*
X2861505Y130496D02*
D03*
X1732245Y286396D02*
D03*
Y306396D02*
D03*
X1751745D02*
D03*
Y286396D02*
D03*
X931885Y60246D02*
D03*
Y80246D02*
D03*
X3717730Y991030D02*
D03*
Y971030D02*
D03*
D25*
X4351050Y1811750D02*
D03*
X3632856Y1963579D02*
D03*
X4013830Y868330D02*
D03*
X1834695Y65496D02*
D03*
X1814695D02*
D03*
X1834695Y85896D02*
D03*
X1814695D02*
D03*
X1774695D02*
D03*
X1754695D02*
D03*
Y65496D02*
D03*
X1774695D02*
D03*
X4131745Y1927219D02*
D03*
X4111745D02*
D03*
X4070345Y1962095D02*
D03*
X4050345D02*
D03*
X4004945D02*
D03*
X4024945D02*
D03*
X3943545Y1927219D02*
D03*
X3963545D02*
D03*
X3652856Y1963579D02*
D03*
X3632856Y1983079D02*
D03*
X3652856D02*
D03*
X3692856Y1963579D02*
D03*
X3712856Y1963579D02*
D03*
X3692856Y1983079D02*
D03*
X3712856Y1983079D02*
D03*
X4331050Y1811750D02*
D03*
X3993830Y868330D02*
D03*
X3963180Y804330D02*
D03*
X3943180D02*
D03*
X3408450Y110696D02*
D03*
X3388450Y110696D02*
D03*
X3468450Y90296D02*
D03*
X3448450D02*
D03*
X3468450Y110696D02*
D03*
X3448450Y110696D02*
D03*
X3408450Y90296D02*
D03*
X3388450Y90296D02*
D03*
X3568951Y1848679D02*
D03*
X3548951D02*
D03*
X3568951Y1869079D02*
D03*
X3548951D02*
D03*
X3508951Y1848679D02*
D03*
X3488951D02*
D03*
X3508951Y1869079D02*
D03*
X3488951Y1869079D02*
D03*
X2401640Y110696D02*
D03*
X2381640Y110696D02*
D03*
X2461640D02*
D03*
X2441640D02*
D03*
X2461640Y90296D02*
D03*
X2441640D02*
D03*
X2401640D02*
D03*
X2381640D02*
D03*
X2502141Y1870096D02*
D03*
X2482141D02*
D03*
X2562141D02*
D03*
X2542141D02*
D03*
X2562141Y1849696D02*
D03*
X2542141D02*
D03*
X2502141D02*
D03*
X2482141D02*
D03*
X1495331Y1869079D02*
D03*
X1475331D02*
D03*
X1555331D02*
D03*
X1535331D02*
D03*
X1555331Y1848679D02*
D03*
X1535331D02*
D03*
X1495331D02*
D03*
X1475331D02*
D03*
X2293141Y1949046D02*
D03*
X2273141D02*
D03*
X2333141Y1949046D02*
D03*
X2353141D02*
D03*
X2333141Y1928646D02*
D03*
X2353141D02*
D03*
X2293141Y1928646D02*
D03*
X2273141D02*
D03*
X511400Y1639844D02*
D03*
X1286331Y1928646D02*
D03*
X1266331D02*
D03*
X1286331Y1949046D02*
D03*
X1266331Y1949046D02*
D03*
X1326331D02*
D03*
X1346331D02*
D03*
X1346331Y1928646D02*
D03*
X1326331Y1928646D02*
D03*
X3299951D02*
D03*
X3279951D02*
D03*
X3299951Y1949046D02*
D03*
X3279951D02*
D03*
X3339951Y1949046D02*
D03*
X3359951D02*
D03*
X3339951Y1928646D02*
D03*
X3359951D02*
D03*
X332277Y92146D02*
D03*
X352277Y92146D02*
D03*
X412277D02*
D03*
X392277D02*
D03*
X332277Y71746D02*
D03*
X352277D02*
D03*
X412277D02*
D03*
X392277Y71746D02*
D03*
X3995930Y1375530D02*
D03*
X3975930D02*
D03*
X4015930Y1459530D02*
D03*
X4035930D02*
D03*
X3747730Y1566980D02*
D03*
X3767730D02*
D03*
X3747730Y1547480D02*
D03*
X3767730D02*
D03*
X2841505Y85896D02*
D03*
Y65496D02*
D03*
X1374830Y110696D02*
D03*
X1394830D02*
D03*
X1374830Y90296D02*
D03*
X1394830D02*
D03*
X1434830Y110696D02*
D03*
X1454830D02*
D03*
X1434830Y90296D02*
D03*
X1454830Y90296D02*
D03*
X491400Y1639844D02*
D03*
X767885Y65496D02*
D03*
X747885D02*
D03*
X807885Y85896D02*
D03*
X827885D02*
D03*
X767885D02*
D03*
X747885D02*
D03*
X807885Y65496D02*
D03*
X827885D02*
D03*
X725185Y336396D02*
D03*
X745185D02*
D03*
X2781505Y85896D02*
D03*
X2761505D02*
D03*
X2821505D02*
D03*
X2761505Y65496D02*
D03*
X2781505D02*
D03*
X2821505D02*
D03*
X2738805Y336396D02*
D03*
X2758805D02*
D03*
X1751995D02*
D03*
X1731995D02*
D03*
X3767730Y971280D02*
D03*
X3747730D02*
D03*
X3767730Y990780D02*
D03*
X3747730D02*
D03*
D26*
X4261550Y1911750D02*
D03*
X4195550D02*
D03*
D27*
X4185651Y1801850D02*
D03*
X3901010Y1831858D02*
D03*
X3845248Y1811452D02*
D03*
X3833935Y1800139D02*
D03*
X3817672Y1748520D02*
D03*
X3855148Y1821352D02*
D03*
X3824035Y1790239D02*
D03*
X3827571Y1758419D02*
D03*
X3891110Y1821959D02*
D03*
X4195550Y1811750D02*
D03*
D28*
X4111745Y1827219D02*
D03*
X4051645Y1703719D02*
D03*
Y1688719D02*
D03*
X3998245Y1703719D02*
D03*
Y1688719D02*
D03*
X4017430Y1314530D02*
D03*
X1140330Y85596D02*
D03*
X1197730Y85696D02*
D03*
X2147140Y85596D02*
D03*
X3153950D02*
D03*
X2204540Y85696D02*
D03*
X3211350D02*
D03*
X1165831Y1891149D02*
D03*
X1223231Y1891249D02*
D03*
X2172641Y1891149D02*
D03*
X2230041Y1891249D02*
D03*
X3179451Y1891149D02*
D03*
X3236851Y1891249D02*
D03*
X4098080Y1080530D02*
D03*
X4198080D02*
D03*
X4298080D02*
D03*
X3869069Y1985829D02*
D03*
X3853069D02*
D03*
X3947180Y779330D02*
D03*
X3963180D02*
D03*
X4095745Y1827219D02*
D03*
X3983545Y1927219D02*
D03*
X3999545D02*
D03*
X4091745D02*
D03*
X4075745D02*
D03*
X4012245Y1867219D02*
D03*
X3996245D02*
D03*
X4012245Y1882219D02*
D03*
X4028245D02*
D03*
X4063045Y1882219D02*
D03*
X4047045D02*
D03*
X4063045Y1867219D02*
D03*
X4079045D02*
D03*
X4067645Y1688719D02*
D03*
X4035645Y1703719D02*
D03*
X4014245Y1703719D02*
D03*
X3982245Y1688719D02*
D03*
X3380951Y1839329D02*
D03*
X2374141D02*
D03*
X1367331D02*
D03*
X4097280Y1215570D02*
D03*
X3296480Y1223510D02*
D03*
X3280480D02*
D03*
X3280480Y753300D02*
D03*
X3296480D02*
D03*
X2289670D02*
D03*
X2273670D02*
D03*
Y1223510D02*
D03*
X2289670D02*
D03*
X1266860D02*
D03*
X1282860D02*
D03*
X1320331Y1726649D02*
D03*
X555900Y1705844D02*
D03*
X4282080Y1080530D02*
D03*
X4182080D02*
D03*
X4082080D02*
D03*
X4113280Y1215570D02*
D03*
Y1230840D02*
D03*
X4097280Y1230840D02*
D03*
X4033430Y1314530D02*
D03*
X1266860Y753300D02*
D03*
X1282860D02*
D03*
X571900Y1705844D02*
D03*
X1207231Y1891249D02*
D03*
X1181831Y1891149D02*
D03*
X1156330Y85596D02*
D03*
X1181730Y85696D02*
D03*
X2188540D02*
D03*
X2163140Y85596D02*
D03*
X1038783Y250193D02*
D03*
X1022783D02*
D03*
X2029592D02*
D03*
X2045592D02*
D03*
X3349951Y1726649D02*
D03*
X3333951D02*
D03*
X3364951Y1839329D02*
D03*
X2358141D02*
D03*
X1351331D02*
D03*
X2343141Y1726649D02*
D03*
X2327141D02*
D03*
X3169950Y85596D02*
D03*
X3195350Y85696D02*
D03*
X3036402Y250193D02*
D03*
X3052402D02*
D03*
X1336331Y1726649D02*
D03*
X3195451Y1891149D02*
D03*
X3220851Y1891249D02*
D03*
X2214041D02*
D03*
X2188641Y1891149D02*
D03*
D29*
X4051645Y1718719D02*
D03*
Y1733719D02*
D03*
X3998245Y1718719D02*
D03*
Y1733719D02*
D03*
X4296280Y1149030D02*
D03*
X4224780Y1070030D02*
D03*
X4096280Y1149030D02*
D03*
X4196280D02*
D03*
X4029930Y1409530D02*
D03*
X4027680Y1339530D02*
D03*
X4007830Y888330D02*
D03*
X3892180Y246673D02*
D03*
X3399951Y1869079D02*
D03*
X2393141Y1870096D02*
D03*
X2830905Y135696D02*
D03*
X1824095D02*
D03*
X1401331Y1869079D02*
D03*
X817285Y135696D02*
D03*
X761885Y110696D02*
D03*
X2775505Y110696D02*
D03*
X1768695D02*
D03*
X1754695D02*
D03*
X4210780Y1070030D02*
D03*
X4013680Y1339530D02*
D03*
X803285Y135696D02*
D03*
X1810095D02*
D03*
X2816905D02*
D03*
X3993830Y888330D02*
D03*
X3906180Y246673D02*
D03*
X4012245Y1897219D02*
D03*
X4026245D02*
D03*
X4065645Y1718719D02*
D03*
X4012245Y1912219D02*
D03*
X3998245D02*
D03*
X4063045Y1897219D02*
D03*
X4049045D02*
D03*
X4063045Y1912219D02*
D03*
X4077045D02*
D03*
X4037645Y1733719D02*
D03*
X4012245Y1733719D02*
D03*
X3984245Y1718719D02*
D03*
X3965630Y928330D02*
D03*
X3951630D02*
D03*
X3946180Y829330D02*
D03*
X3960180Y829330D02*
D03*
X3413951Y1869079D02*
D03*
X2407141Y1870096D02*
D03*
X1415331Y1869079D02*
D03*
X4082280Y1149030D02*
D03*
X4182280D02*
D03*
X4282280D02*
D03*
X4015930Y1409530D02*
D03*
X4029930Y1439530D02*
D03*
X4015930Y1439530D02*
D03*
X3981930Y1400530D02*
D03*
X3995930D02*
D03*
X3974130Y1504530D02*
D03*
X3988130D02*
D03*
X3813730Y1620330D02*
D03*
X3827730Y1620330D02*
D03*
X526400Y1659844D02*
D03*
X512400D02*
D03*
X747885Y110696D02*
D03*
X2761505Y110696D02*
D03*
X742185Y271396D02*
D03*
X728185D02*
D03*
X2755805D02*
D03*
X2741805D02*
D03*
X1734995D02*
D03*
X1748995D02*
D03*
X3813730Y1044130D02*
D03*
X3827730D02*
D03*
D30*
X3782356Y1985829D02*
D03*
X3638451Y1871379D02*
D03*
X4025430Y1364530D02*
D03*
X3537950Y112996D02*
D03*
X3409451Y1931346D02*
D03*
X2402641D02*
D03*
X2631641Y1872396D02*
D03*
X1624831Y1871379D02*
D03*
X1395831Y1931346D02*
D03*
X2531140Y112996D02*
D03*
X2891005Y90496D02*
D03*
X1524330Y112996D02*
D03*
X1884195Y90496D02*
D03*
X877385D02*
D03*
X461777Y74446D02*
D03*
X1874695Y90496D02*
D03*
Y65496D02*
D03*
X1893695Y90496D02*
D03*
Y65496D02*
D03*
X3791856Y1960829D02*
D03*
X3647951Y1846379D02*
D03*
X3418951Y1906346D02*
D03*
X4015930Y1364530D02*
D03*
X3547450Y87996D02*
D03*
X2412141Y1906346D02*
D03*
X2641141Y1847396D02*
D03*
X1405331Y1906346D02*
D03*
X1634331Y1846379D02*
D03*
X2540640Y87996D02*
D03*
X2900505Y65496D02*
D03*
X1533830Y87996D02*
D03*
X886885Y65496D02*
D03*
X471277Y49446D02*
D03*
X3791856Y1985829D02*
D03*
X3772856Y1985829D02*
D03*
Y1960829D02*
D03*
X2412141Y1931346D02*
D03*
X3547450Y112996D02*
D03*
X3528450D02*
D03*
Y87996D02*
D03*
X3647951Y1871379D02*
D03*
X3628951D02*
D03*
Y1846379D02*
D03*
X2540640Y112996D02*
D03*
X2521640D02*
D03*
Y87996D02*
D03*
X2641141Y1872396D02*
D03*
X2622141D02*
D03*
Y1847396D02*
D03*
X1634331Y1871379D02*
D03*
X1615331D02*
D03*
Y1846379D02*
D03*
X2393141Y1906346D02*
D03*
X2393141Y1931346D02*
D03*
X1405331Y1931346D02*
D03*
X3418951Y1931346D02*
D03*
X3399951D02*
D03*
Y1906346D02*
D03*
X1386331Y1906346D02*
D03*
Y1931346D02*
D03*
X471277Y74446D02*
D03*
X452277D02*
D03*
Y49446D02*
D03*
X4015930Y1389530D02*
D03*
X4034930D02*
D03*
Y1364530D02*
D03*
X2881505Y65496D02*
D03*
Y90496D02*
D03*
X2900505D02*
D03*
X1514830Y87996D02*
D03*
Y112996D02*
D03*
X1533830Y112996D02*
D03*
X867885Y90496D02*
D03*
X886885D02*
D03*
X867885Y65496D02*
D03*
D31*
X3944746Y1754382D02*
D03*
X3909595Y1819231D02*
D03*
X3798532Y212032D02*
D03*
X3924746Y1774381D02*
D03*
X3933432Y1743068D02*
D03*
X3913432Y1763068D02*
D03*
X3787218Y200718D02*
D03*
X3841006Y1835494D02*
D03*
X3829692Y1824180D02*
D03*
X3898282Y1807917D02*
D03*
X3790136Y99516D02*
D03*
X3778822Y88202D02*
D03*
X3766005Y137079D02*
D03*
X3754691Y125765D02*
D03*
X3762469Y175969D02*
D03*
X3751156Y164656D02*
D03*
D32*
X3876361Y1800139D02*
D03*
X3845249Y1769026D02*
D03*
X3883432Y1793068D02*
D03*
X3879897Y1796603D02*
D03*
X3872826Y1803674D02*
D03*
X3869290Y1807210D02*
D03*
X3838177Y1776097D02*
D03*
X3841713Y1772562D02*
D03*
X3848784Y1765491D02*
D03*
X3852320Y1761955D02*
D03*
D33*
X4211080Y1125030D02*
D03*
X4311080Y1125030D02*
D03*
X4111080Y1125030D02*
D03*
X4053080Y1105530D02*
D03*
X4153080D02*
D03*
X4253080Y1105530D02*
D03*
X4153080Y1112030D02*
D03*
X4211080Y1105530D02*
D03*
X4211080Y1112030D02*
D03*
X4211080Y1118530D02*
D03*
X4153080Y1125030D02*
D03*
Y1118530D02*
D03*
X4053080Y1112030D02*
D03*
Y1118530D02*
D03*
Y1125030D02*
D03*
X4111080Y1118530D02*
D03*
X4111080Y1112030D02*
D03*
X4111080Y1105530D02*
D03*
X4253080Y1125030D02*
D03*
X4253080Y1118530D02*
D03*
X4311080D02*
D03*
X4311080Y1105530D02*
D03*
X4253080Y1112030D02*
D03*
X4311080Y1112030D02*
D03*
D34*
X3995930Y1430030D02*
D03*
X3973430Y858830D02*
D03*
X2971505Y104996D02*
D03*
X1964695D02*
D03*
X364636Y118946D02*
D03*
X957885Y104996D02*
D03*
X1939695Y95496D02*
D03*
X1964695Y114496D02*
D03*
X1939695D02*
D03*
X1964695Y95496D02*
D03*
X3970930Y1420530D02*
D03*
X3948430Y849330D02*
D03*
X364636Y128446D02*
D03*
X2971505Y95496D02*
D03*
X957885D02*
D03*
X3973430Y849330D02*
D03*
X3973430Y868330D02*
D03*
X3948430Y868330D02*
D03*
X364636Y109446D02*
D03*
X389636Y109446D02*
D03*
Y128446D02*
D03*
X3995930Y1420530D02*
D03*
X3995930Y1439530D02*
D03*
X3970930D02*
D03*
X2946505Y95496D02*
D03*
Y114496D02*
D03*
X2971505D02*
D03*
X932885Y95496D02*
D03*
Y114496D02*
D03*
X957885D02*
D03*
D35*
X3918430Y1519130D02*
D03*
Y942930D02*
D03*
Y1019130D02*
D03*
X3918430Y1595330D02*
D03*
X3918430Y968330D02*
D03*
Y993730D02*
D03*
Y1544530D02*
D03*
X3918430Y1569930D02*
D03*
X3827730Y1595330D02*
D03*
Y1569930D02*
D03*
X3827730Y1544530D02*
D03*
X3827730Y1519130D02*
D03*
X3827730Y968330D02*
D03*
Y993730D02*
D03*
Y942930D02*
D03*
Y1019130D02*
D03*
D36*
X3826852Y221085D02*
D03*
X3846852Y241085D02*
D03*
X3809893Y1804382D02*
D03*
X3798579Y1815695D02*
D03*
X3813429Y1772562D02*
D03*
X3802115Y1783875D02*
D03*
X3838166Y209771D02*
D03*
X3858166Y229771D02*
D03*
D37*
X3801094Y172700D02*
D03*
X3832207Y141587D02*
D03*
X3808166Y179771D02*
D03*
X3804630Y176235D02*
D03*
X3797559Y169164D02*
D03*
X3794023Y165629D02*
D03*
X3825136Y134516D02*
D03*
X3828672Y138052D02*
D03*
X3835743Y145123D02*
D03*
X3839278Y148658D02*
D03*
D38*
X3789966Y141240D02*
D03*
X3800237Y129416D02*
D03*
X3766712Y200011D02*
D03*
X3810136Y119516D02*
D03*
X3780066Y151139D02*
D03*
X3776612Y190112D02*
D03*
D39*
X3229851Y1876149D02*
D03*
X3186451D02*
D03*
X2223041D02*
D03*
X2179641D02*
D03*
X1172831D02*
D03*
X1216231D02*
D03*
X3204350Y100696D02*
D03*
X3160950Y100596D02*
D03*
X2197540Y100696D02*
D03*
X2154140Y100596D02*
D03*
X1190730Y100696D02*
D03*
X1147330Y100596D02*
D03*
X1207231Y1876149D02*
D03*
X1181831D02*
D03*
X1156330Y100596D02*
D03*
X1181730Y100696D02*
D03*
X757385Y256396D02*
D03*
X748385D02*
D03*
X2727105D02*
D03*
X2736105D02*
D03*
X2771005D02*
D03*
X2762005D02*
D03*
X1755195D02*
D03*
X1764195D02*
D03*
X713485D02*
D03*
X722485D02*
D03*
X1729295D02*
D03*
X1720295D02*
D03*
X3169950Y100596D02*
D03*
X2188641Y1876149D02*
D03*
X2214041D02*
D03*
X2188540Y100696D02*
D03*
X2163140Y100596D02*
D03*
X3195451Y1876149D02*
D03*
X3220851D02*
D03*
X3195350Y100696D02*
D03*
D40*
X3337251Y1839329D02*
D03*
X2330441D02*
D03*
X3049102Y137513D02*
D03*
X2042292D02*
D03*
X1323631Y1839329D02*
D03*
X1035482Y137513D02*
D03*
X1022783D02*
D03*
X2029592D02*
D03*
X2042292Y197513D02*
D03*
X2029592D02*
D03*
X1022783D02*
D03*
X1035482D02*
D03*
X3349951Y1839329D02*
D03*
X3337251Y1779329D02*
D03*
X3349951D02*
D03*
X3036402Y137513D02*
D03*
X3049102Y197513D02*
D03*
X3036402D02*
D03*
X1336331Y1779329D02*
D03*
X1323631D02*
D03*
X1336331Y1839329D02*
D03*
X2343141D02*
D03*
X2330441Y1779329D02*
D03*
X2343141D02*
D03*
D41*
X2710705Y135696D02*
D03*
X1703895D02*
D03*
X697085D02*
D03*
X1729295D02*
D03*
X1754695D02*
D03*
X773285D02*
D03*
X1780095D02*
D03*
X2786905D02*
D03*
X697085Y226396D02*
D03*
X747885Y135696D02*
D03*
Y226396D02*
D03*
X722485D02*
D03*
Y135696D02*
D03*
X773285Y226396D02*
D03*
X2710705D02*
D03*
X2761505Y135696D02*
D03*
X2736105D02*
D03*
Y226396D02*
D03*
X2761505D02*
D03*
X2786905D02*
D03*
X1754695D02*
D03*
X1729295D02*
D03*
X1703895D02*
D03*
X1780095D02*
D03*
D42*
X4462050Y1921500D02*
D03*
X4474550Y1792375D02*
D03*
X4452050Y1921500D02*
D03*
X4464550Y1792375D02*
D03*
X555650Y1639844D02*
D03*
X565650D02*
D03*
D43*
X4379296Y1847250D02*
D03*
Y1868250D02*
D03*
D44*
X4390800Y1715550D02*
D03*
Y1739250D02*
D03*
D45*
X3999545Y1784719D02*
D03*
X4024945Y1784719D02*
D03*
X4050345Y1784719D02*
D03*
X4075745D02*
D03*
X4063045D02*
D03*
X4037645Y1784719D02*
D03*
X4012245Y1784719D02*
D03*
X3986845D02*
D03*
X3986845Y1847219D02*
D03*
X3999545Y1847219D02*
D03*
X4012245Y1847219D02*
D03*
X4024945D02*
D03*
X4037645D02*
D03*
X4050345D02*
D03*
X4063045Y1847219D02*
D03*
X4075745Y1847219D02*
D03*
D46*
X3240450Y856782D02*
D03*
X2823450Y794780D02*
D03*
X3031950Y856782D02*
D03*
X3488480D02*
D03*
X1474860D02*
D03*
X1226830D02*
D03*
X809830Y794780D02*
D03*
X1018330Y856782D02*
D03*
X1474860Y1314710D02*
D03*
X1226830D02*
D03*
X1018330D02*
D03*
X809830D02*
D03*
X2025140D02*
D03*
X2233640D02*
D03*
X2481670D02*
D03*
X1816640D02*
D03*
X3488480D02*
D03*
X3031950D02*
D03*
X2823450D02*
D03*
X3240450D02*
D03*
X3488480Y796782D02*
D03*
X3240450Y1254710D02*
D03*
X2823450D02*
D03*
X3031950D02*
D03*
X3488480D02*
D03*
X1816640D02*
D03*
X2481670D02*
D03*
X2233640D02*
D03*
X2025140D02*
D03*
X1816640Y734780D02*
D03*
Y794780D02*
D03*
X2025140Y856782D02*
D03*
Y796782D02*
D03*
X2481670Y856782D02*
D03*
Y796782D02*
D03*
X2233640Y856782D02*
D03*
Y796782D02*
D03*
X3031950D02*
D03*
X2823450Y734780D02*
D03*
X3240450Y796782D02*
D03*
X1474860D02*
D03*
X1226830D02*
D03*
X809830Y734780D02*
D03*
X809830Y1254710D02*
D03*
X1018330Y796782D02*
D03*
X1018330Y1254710D02*
D03*
X1226830D02*
D03*
X1474860D02*
D03*
D51*
X2901700Y1132030D02*
D03*
X595900Y1740844D02*
D03*
X888080Y1132030D02*
D03*
X555900Y1740844D02*
D03*
X75700Y1202130D02*
D03*
Y1152130D02*
D03*
X115700D02*
D03*
Y1202130D02*
D03*
X1854890Y1132030D02*
D03*
X1894890D02*
D03*
X2861700D02*
D03*
X848080D02*
D03*
D52*
X3031950Y1184710D02*
D03*
X3240450D02*
D03*
X3488480D02*
D03*
X2755520Y994030D02*
D03*
Y1034030D02*
D03*
X2705520Y994030D02*
D03*
Y1034030D02*
D03*
X1226830Y1184710D02*
D03*
X1474860D02*
D03*
X1018330D02*
D03*
X741900Y1034030D02*
D03*
X691900D02*
D03*
X1698710D02*
D03*
X1748710D02*
D03*
X3488480Y736780D02*
D03*
Y776780D02*
D03*
X1748710Y994030D02*
D03*
X1698710D02*
D03*
X2025140Y1184710D02*
D03*
Y1224710D02*
D03*
X3488480D02*
D03*
X2481670Y1184710D02*
D03*
Y1224710D02*
D03*
X3240450D02*
D03*
X2233640Y1184710D02*
D03*
Y1224710D02*
D03*
X3031950D02*
D03*
X2823450Y684780D02*
D03*
Y644780D02*
D03*
X1816640Y684780D02*
D03*
Y644780D02*
D03*
X2233640Y776780D02*
D03*
Y736780D02*
D03*
X2025140Y776780D02*
D03*
Y736780D02*
D03*
X3031950Y776780D02*
D03*
Y736780D02*
D03*
X3240450Y776780D02*
D03*
Y736780D02*
D03*
X2481670Y776780D02*
D03*
Y736780D02*
D03*
X809830Y684780D02*
D03*
Y644780D02*
D03*
X1018330Y776780D02*
D03*
Y736780D02*
D03*
X691900Y994030D02*
D03*
X1226830Y776780D02*
D03*
Y736780D02*
D03*
X1474860Y776780D02*
D03*
Y736780D02*
D03*
X1226830Y1224710D02*
D03*
X1474860D02*
D03*
X741900Y994030D02*
D03*
X1018330Y1224710D02*
D03*
D53*
X2824805Y336396D02*
D03*
X811185D02*
D03*
X1781995D02*
D03*
X1817995D02*
D03*
X775185D02*
D03*
X2788805D02*
D03*
D54*
X4246550Y1811750D02*
D03*
X4301050D02*
D03*
D55*
X4195550Y1961750D02*
D03*
Y1990950D02*
D03*
D56*
X555900Y1659844D02*
D03*
Y1685844D02*
D03*
X546400D02*
D03*
X565400D02*
D03*
Y1659844D02*
D03*
X546400D02*
D03*
D57*
X3717730Y1057030D02*
D03*
Y1633230D02*
D03*
Y1597230D02*
D03*
Y1021030D02*
D03*
D58*
X3797730Y1570430D02*
D03*
Y1579430D02*
D03*
Y1544530D02*
D03*
Y1535530D02*
D03*
Y968330D02*
D03*
Y959330D02*
D03*
Y993730D02*
D03*
Y1002730D02*
D03*
D59*
X512400Y1697598D02*
D03*
X491400D02*
D03*
D116*
X3583730Y905780D02*
D03*
X3633730D02*
D03*
X3375230D02*
D03*
X3425230D02*
D03*
X3177200D02*
D03*
X3127200D02*
D03*
X2918700D02*
D03*
X2968700D02*
D03*
X1113580D02*
D03*
X1163580D02*
D03*
X1361610D02*
D03*
X1411610D02*
D03*
X1570110D02*
D03*
X1620110D02*
D03*
X905080D02*
D03*
X955080D02*
D03*
X905080Y1293030D02*
D03*
X955080D02*
D03*
X1113580D02*
D03*
X1163580D02*
D03*
X1570110D02*
D03*
X1620110D02*
D03*
X1361610D02*
D03*
X1411610D02*
D03*
X2918700D02*
D03*
X2968700D02*
D03*
X3127200D02*
D03*
X3177200D02*
D03*
X3375230D02*
D03*
X3425230D02*
D03*
X2576920D02*
D03*
X2626920D02*
D03*
X2368420D02*
D03*
X2418420D02*
D03*
X3583730D02*
D03*
X3633730D02*
D03*
X2120390D02*
D03*
X2170390D02*
D03*
X1911890D02*
D03*
X1961890D02*
D03*
X2576920Y905780D02*
D03*
X2626920D02*
D03*
X2120390D02*
D03*
X2170390D02*
D03*
X1911890D02*
D03*
X1961890D02*
D03*
X2368420D02*
D03*
X2418420D02*
D03*
D117*
X3586480Y889280D02*
D03*
Y871280D02*
D03*
X3630980Y889280D02*
D03*
Y871280D02*
D03*
X3377980Y889280D02*
D03*
Y871280D02*
D03*
X3422480Y889280D02*
D03*
Y871280D02*
D03*
X3174450D02*
D03*
Y889280D02*
D03*
X3129950Y871280D02*
D03*
Y889280D02*
D03*
X2921450D02*
D03*
Y871280D02*
D03*
X2965950Y889280D02*
D03*
Y871280D02*
D03*
X1116330Y889280D02*
D03*
Y871280D02*
D03*
X1160830Y889280D02*
D03*
Y871280D02*
D03*
X1364360D02*
D03*
X1408860D02*
D03*
X1364360Y889280D02*
D03*
X1408860D02*
D03*
X1572860Y871280D02*
D03*
Y889280D02*
D03*
X1617360Y871280D02*
D03*
Y889280D02*
D03*
X952330Y871280D02*
D03*
X907830D02*
D03*
X952330Y889280D02*
D03*
X907830D02*
D03*
Y1276530D02*
D03*
Y1258530D02*
D03*
X952330Y1276530D02*
D03*
Y1258530D02*
D03*
X1116330Y1276530D02*
D03*
Y1258530D02*
D03*
X1160830Y1276530D02*
D03*
Y1258530D02*
D03*
X1572860Y1276530D02*
D03*
Y1258530D02*
D03*
X1617360Y1276530D02*
D03*
Y1258530D02*
D03*
X1364360Y1276530D02*
D03*
Y1258530D02*
D03*
X1408860Y1276530D02*
D03*
Y1258530D02*
D03*
X2921450Y1276530D02*
D03*
Y1258530D02*
D03*
X2965950Y1276530D02*
D03*
Y1258530D02*
D03*
X3129950Y1276530D02*
D03*
Y1258530D02*
D03*
X3174450Y1276530D02*
D03*
Y1258530D02*
D03*
X3377980Y1276530D02*
D03*
Y1258530D02*
D03*
X3422480Y1276530D02*
D03*
Y1258530D02*
D03*
X2579670Y1276530D02*
D03*
Y1258530D02*
D03*
X2624170Y1276530D02*
D03*
Y1258530D02*
D03*
X2371170Y1276530D02*
D03*
Y1258530D02*
D03*
X2415670Y1276530D02*
D03*
Y1258530D02*
D03*
X3586480Y1276530D02*
D03*
Y1258530D02*
D03*
X3630980Y1276530D02*
D03*
Y1258530D02*
D03*
X2123140Y1276530D02*
D03*
Y1258530D02*
D03*
X2167640Y1276530D02*
D03*
Y1258530D02*
D03*
X1914640Y1276530D02*
D03*
Y1258530D02*
D03*
X1959140Y1276530D02*
D03*
Y1258530D02*
D03*
X2579670Y889280D02*
D03*
Y871280D02*
D03*
X2624170Y889280D02*
D03*
Y871280D02*
D03*
X2123140Y889280D02*
D03*
Y871280D02*
D03*
X2167640Y889280D02*
D03*
Y871280D02*
D03*
X1914640Y889280D02*
D03*
Y871280D02*
D03*
X1959140Y889280D02*
D03*
Y871280D02*
D03*
X2371170Y889280D02*
D03*
Y871280D02*
D03*
X2415670Y889280D02*
D03*
Y871280D02*
D03*
D118*
X3583480Y853280D02*
D03*
X3633980D02*
D03*
X3374980D02*
D03*
X3425480D02*
D03*
X3177450D02*
D03*
X3126950D02*
D03*
X2918450D02*
D03*
X2968950D02*
D03*
X1113330D02*
D03*
X1163830D02*
D03*
X1361360D02*
D03*
X1411860D02*
D03*
X1569860D02*
D03*
X1620360D02*
D03*
X904830D02*
D03*
X955330D02*
D03*
X904830Y1240530D02*
D03*
X955330D02*
D03*
X1113330D02*
D03*
X1163830D02*
D03*
X1569860D02*
D03*
X1620360D02*
D03*
X1361360D02*
D03*
X1411860D02*
D03*
X2918450D02*
D03*
X2968950D02*
D03*
X3126950D02*
D03*
X3177450D02*
D03*
X3374980D02*
D03*
X3425480D02*
D03*
X2576670D02*
D03*
X2627170D02*
D03*
X2368170D02*
D03*
X2418670D02*
D03*
X3583480D02*
D03*
X3633980D02*
D03*
X2120140D02*
D03*
X2170640D02*
D03*
X1911640D02*
D03*
X1962140D02*
D03*
X2576670Y853280D02*
D03*
X2627170D02*
D03*
X2120140D02*
D03*
X2170640D02*
D03*
X1911640D02*
D03*
X1962140D02*
D03*
X2368170D02*
D03*
X2418670D02*
D03*
D119*
X3583480Y836780D02*
D03*
X3633980D02*
D03*
X3374980D02*
D03*
X3425480D02*
D03*
X3177450D02*
D03*
X3126950D02*
D03*
X2918450D02*
D03*
X2968950D02*
D03*
X1113330D02*
D03*
X1163830D02*
D03*
X1361360D02*
D03*
X1411860D02*
D03*
X1569860D02*
D03*
X1620360D02*
D03*
X904830D02*
D03*
X955330D02*
D03*
X904830Y1224030D02*
D03*
X955330D02*
D03*
X1113330D02*
D03*
X1163830D02*
D03*
X1569860D02*
D03*
X1620360D02*
D03*
X1361360D02*
D03*
X1411860D02*
D03*
X2918450D02*
D03*
X2968950D02*
D03*
X3126950D02*
D03*
X3177450D02*
D03*
X3374980D02*
D03*
X3425480D02*
D03*
X2576670D02*
D03*
X2627170D02*
D03*
X2368170D02*
D03*
X2418670D02*
D03*
X3583480D02*
D03*
X3633980D02*
D03*
X2120140D02*
D03*
X2170640D02*
D03*
X1911640D02*
D03*
X1962140D02*
D03*
X2576670Y836780D02*
D03*
X2627170D02*
D03*
X2120140D02*
D03*
X2170640D02*
D03*
X1911640D02*
D03*
X1962140D02*
D03*
X2368170D02*
D03*
X2418670D02*
D03*
D120*
X2949700Y1182030D02*
D03*
X2913700D02*
D03*
X2925700D02*
D03*
X2961700D02*
D03*
X2937700D02*
D03*
X2973700D02*
D03*
X2985700D02*
D03*
X3158200D02*
D03*
X3122200D02*
D03*
X3134200D02*
D03*
X3170200D02*
D03*
X3146200D02*
D03*
X3182200D02*
D03*
X3194200D02*
D03*
X3406230D02*
D03*
X3370230D02*
D03*
X3382230D02*
D03*
X3418230D02*
D03*
X3394230D02*
D03*
X3430230D02*
D03*
X3442230D02*
D03*
X3614730D02*
D03*
X3578730D02*
D03*
X3590730D02*
D03*
X3626730D02*
D03*
X3602730D02*
D03*
X3638730D02*
D03*
X3650730D02*
D03*
X1380610D02*
D03*
X1392610D02*
D03*
X1356610D02*
D03*
X1368610D02*
D03*
X1428610D02*
D03*
X1404610D02*
D03*
X1416610D02*
D03*
X1589110D02*
D03*
X1577110D02*
D03*
X1625110D02*
D03*
X1637110D02*
D03*
X1601110D02*
D03*
X1613110D02*
D03*
X1565110D02*
D03*
X1108580D02*
D03*
X1132580D02*
D03*
X1144580D02*
D03*
X1120580D02*
D03*
X1180580D02*
D03*
X1156580D02*
D03*
X1168580D02*
D03*
X912080D02*
D03*
X924080D02*
D03*
X900080D02*
D03*
X960080D02*
D03*
X972080D02*
D03*
X936080D02*
D03*
X948080D02*
D03*
X888080D02*
D03*
X2559920Y794780D02*
D03*
X2571920D02*
D03*
X2619920D02*
D03*
X2607920D02*
D03*
X2643920D02*
D03*
X2631920D02*
D03*
X2595920D02*
D03*
X2583920D02*
D03*
X2901700D02*
D03*
X2913700D02*
D03*
X2937700D02*
D03*
X2925700D02*
D03*
X2961700D02*
D03*
X2949700D02*
D03*
X2973700D02*
D03*
X2985700D02*
D03*
X2103390D02*
D03*
X2187390D02*
D03*
X2151390D02*
D03*
X2139390D02*
D03*
X2175390D02*
D03*
X2163390D02*
D03*
X2115390D02*
D03*
X2127390D02*
D03*
X1894890D02*
D03*
X1942890D02*
D03*
X1930890D02*
D03*
X1966890D02*
D03*
X1954890D02*
D03*
X1918890D02*
D03*
X1906890D02*
D03*
X1978890D02*
D03*
X1894890Y1182030D02*
D03*
X1942890D02*
D03*
X1906890D02*
D03*
X1918890D02*
D03*
X1954890D02*
D03*
X1930890D02*
D03*
X1966890D02*
D03*
X1978890D02*
D03*
X2103390D02*
D03*
X2151390D02*
D03*
X2115390D02*
D03*
X2127390D02*
D03*
X2163390D02*
D03*
X2139390D02*
D03*
X2175390D02*
D03*
X2187390D02*
D03*
X3566730D02*
D03*
X2399420D02*
D03*
X2351420D02*
D03*
X2363420D02*
D03*
X2375420D02*
D03*
X2411420D02*
D03*
X2387420D02*
D03*
X2423420D02*
D03*
X2435420D02*
D03*
X2607920D02*
D03*
X2559920D02*
D03*
X2571920D02*
D03*
X2583920D02*
D03*
X2619920D02*
D03*
X2595920D02*
D03*
X2631920D02*
D03*
X2643920D02*
D03*
X3358230D02*
D03*
X3110200D02*
D03*
X2901700D02*
D03*
X2351420Y794780D02*
D03*
X2411420D02*
D03*
X2387420D02*
D03*
X2375420D02*
D03*
X2399420D02*
D03*
X2423420D02*
D03*
X2363420D02*
D03*
X2435420D02*
D03*
X3110200D02*
D03*
X3134200D02*
D03*
X3122200D02*
D03*
X3158200D02*
D03*
X3146200D02*
D03*
X3182200D02*
D03*
X3170200D02*
D03*
X3194200D02*
D03*
X3358230D02*
D03*
X3382230D02*
D03*
X3370230D02*
D03*
X3406230D02*
D03*
X3394230D02*
D03*
X3442230D02*
D03*
X3430230D02*
D03*
X3418230D02*
D03*
X3566730D02*
D03*
X3650730D02*
D03*
X3578730D02*
D03*
X3602730D02*
D03*
X3590730D02*
D03*
X3626730D02*
D03*
X3614730D02*
D03*
X3638730D02*
D03*
X1096580D02*
D03*
X1108580D02*
D03*
X1180580D02*
D03*
X1168580D02*
D03*
X1132580D02*
D03*
X1120580D02*
D03*
X1144580D02*
D03*
X1156580D02*
D03*
X1344610D02*
D03*
X1368610D02*
D03*
X1356610D02*
D03*
X1392610D02*
D03*
X1404610D02*
D03*
X1380610D02*
D03*
X1416610D02*
D03*
X1428610D02*
D03*
X1553110D02*
D03*
X1589110D02*
D03*
X1577110D02*
D03*
X1613110D02*
D03*
X1601110D02*
D03*
X1565110D02*
D03*
X1637110D02*
D03*
X1625110D02*
D03*
X1344610Y1182030D02*
D03*
X1553110D02*
D03*
X1096580D02*
D03*
X888080Y794780D02*
D03*
X960080D02*
D03*
X948080D02*
D03*
X972080D02*
D03*
X924080D02*
D03*
X912080D02*
D03*
X936080D02*
D03*
X900080D02*
D03*
D124*
X4235550Y2042000D02*
D03*
D125*
X4015550Y2082000D02*
D03*
X3955550Y2122000D02*
D03*
X3935550Y2082000D02*
D03*
X3915550Y2042000D02*
D03*
Y2122000D02*
D03*
X3875550Y2042000D02*
D03*
X3975550Y2082000D02*
D03*
X3855550Y2082000D02*
D03*
X3895550D02*
D03*
X3815550D02*
D03*
X3835550Y2042000D02*
D03*
X3795550D02*
D03*
X3955550Y2042000D02*
D03*
X4215550Y2082000D02*
D03*
X4235550Y2122000D02*
D03*
X4195550Y2042000D02*
D03*
X4155550D02*
D03*
X4115550Y2042000D02*
D03*
X4075550D02*
D03*
X4035550D02*
D03*
X3995550Y2042000D02*
D03*
X4195550Y2122000D02*
D03*
X4155550D02*
D03*
X4115550D02*
D03*
X4075550D02*
D03*
X4175550Y2082000D02*
D03*
X4135550Y2082000D02*
D03*
X4095550D02*
D03*
X4055550D02*
D03*
X4035550Y2122000D02*
D03*
X3995550D02*
D03*
X3875550D02*
D03*
X3835550D02*
D03*
X3795550D02*
D03*
D126*
X4383380Y1383160D02*
D03*
Y748160D02*
D03*
X3951580Y1358030D02*
D03*
Y723030D02*
D03*
Y1383430D02*
D03*
Y748430D02*
D03*
Y570630D02*
D03*
X3296560Y1020899D02*
D03*
Y995499D02*
D03*
X3271160D02*
D03*
X3321960D02*
D03*
X3271160Y1020899D02*
D03*
Y1046299D02*
D03*
X3296560D02*
D03*
X3321960D02*
D03*
Y1020899D02*
D03*
X1308340D02*
D03*
Y1046299D02*
D03*
X1282940D02*
D03*
X1257540D02*
D03*
Y1020899D02*
D03*
X1308340Y995499D02*
D03*
X1257540D02*
D03*
X1282940D02*
D03*
Y1020899D02*
D03*
X2315150D02*
D03*
Y1046299D02*
D03*
X2289750D02*
D03*
X2264350D02*
D03*
Y1020899D02*
D03*
X2315150Y995499D02*
D03*
X2264350D02*
D03*
X2289750D02*
D03*
Y1020899D02*
D03*
X3951580Y1307230D02*
D03*
Y1256430D02*
D03*
Y1281830D02*
D03*
X3926180D02*
D03*
X4357980Y1281560D02*
D03*
X3926180Y1180230D02*
D03*
Y1154830D02*
D03*
X3951580Y1205630D02*
D03*
Y1180230D02*
D03*
Y1231030D02*
D03*
X3926180Y1205630D02*
D03*
Y1231030D02*
D03*
Y1256430D02*
D03*
Y1307230D02*
D03*
X3951580Y1332630D02*
D03*
X3926180Y1358030D02*
D03*
Y1383430D02*
D03*
Y1332630D02*
D03*
Y748430D02*
D03*
Y723030D02*
D03*
Y697630D02*
D03*
X3951580D02*
D03*
X3926180Y672230D02*
D03*
X3951580D02*
D03*
X3926180Y646830D02*
D03*
X3951580D02*
D03*
X3926180Y621430D02*
D03*
X3951580D02*
D03*
X3926180Y596030D02*
D03*
X3951580D02*
D03*
X3926180Y570630D02*
D03*
Y545230D02*
D03*
X3951580D02*
D03*
X3926180Y519830D02*
D03*
X4357980Y722760D02*
D03*
X4383380D02*
D03*
X4357980Y697360D02*
D03*
X4383380D02*
D03*
X4357980Y671960D02*
D03*
X4383380D02*
D03*
X4357980Y646560D02*
D03*
X4383380D02*
D03*
X4357980Y621160D02*
D03*
X4383380D02*
D03*
X4357980Y595760D02*
D03*
X4383380D02*
D03*
X4357980Y570360D02*
D03*
X4383380D02*
D03*
X4357980Y544960D02*
D03*
X4383380D02*
D03*
X4357980Y519560D02*
D03*
Y748160D02*
D03*
Y1383160D02*
D03*
Y1357760D02*
D03*
X4383380D02*
D03*
X4357980Y1332360D02*
D03*
X4383380D02*
D03*
X4357980Y1306960D02*
D03*
X4383380D02*
D03*
Y1281560D02*
D03*
X4357980Y1256160D02*
D03*
X4383380D02*
D03*
X4357980Y1230760D02*
D03*
X4383380D02*
D03*
X4357980Y1205360D02*
D03*
X4383380D02*
D03*
X4357980Y1179960D02*
D03*
X4383380D02*
D03*
X4357980Y1154560D02*
D03*
X236069Y1226311D02*
D03*
Y1251712D02*
D03*
Y1200911D02*
D03*
X261469Y1251712D02*
D03*
X286869D02*
D03*
Y1226311D02*
D03*
Y1200911D02*
D03*
X261469D02*
D03*
Y1226311D02*
D03*
X236500Y801530D02*
D03*
Y826930D02*
D03*
Y776130D02*
D03*
X261900Y801530D02*
D03*
Y826930D02*
D03*
Y776130D02*
D03*
X287300D02*
D03*
Y826930D02*
D03*
Y801530D02*
D03*
D127*
X3184951Y1945846D02*
D03*
X2178141D02*
D03*
X1171331D02*
D03*
X237277Y88946D02*
D03*
D128*
X3109951Y1945846D02*
D03*
X2103141D02*
D03*
X1096331D02*
D03*
X162277Y88946D02*
D03*
X3159951Y1945846D02*
D03*
X3134951D02*
D03*
X212277Y88946D02*
D03*
X187277D02*
D03*
X2153141Y1945846D02*
D03*
X2128141Y1945847D02*
D03*
X1146331Y1945846D02*
D03*
X1121331D02*
D03*
D129*
X2790105Y1726649D02*
D03*
X674885D02*
D03*
X1681695D02*
D03*
X2688505D02*
D03*
X2645497Y250196D02*
D03*
X3652307D02*
D03*
X1638687D02*
D03*
X776485Y1726649D02*
D03*
X801885D02*
D03*
X751085D02*
D03*
X2663105D02*
D03*
X1656295D02*
D03*
X2670896Y250196D02*
D03*
X3677706D02*
D03*
X1664086D02*
D03*
X649485Y1726649D02*
D03*
X1562487Y250196D02*
D03*
X1511687D02*
D03*
X1537086D02*
D03*
X3525306D02*
D03*
X3576106D02*
D03*
X3550706D02*
D03*
X2518496D02*
D03*
X2569296D02*
D03*
X2543896D02*
D03*
X1808695Y1726649D02*
D03*
X1783295D02*
D03*
X1757895D02*
D03*
X2815505D02*
D03*
X2764705D02*
D03*
D130*
X741900Y876530D02*
D03*
Y1151530D02*
D03*
X2755520Y876530D02*
D03*
Y1151530D02*
D03*
X1748710Y876530D02*
D03*
Y1151530D02*
D03*
X341900Y976530D02*
D03*
X541900D02*
D03*
D131*
X3951580Y1154830D02*
D03*
Y519830D02*
D03*
X4383380Y519560D02*
D03*
Y1154560D02*
D03*
D132*
X365100Y1740844D02*
D03*
X415900D02*
D03*
X187300D02*
D03*
X212700D02*
D03*
X415900Y1588444D02*
D03*
X365100D02*
D03*
X212700D02*
D03*
X187300D02*
D03*
D133*
X309400Y1515960D02*
D03*
X159400D02*
D03*
D134*
X161900Y1588444D02*
D03*
D135*
X80700Y1052130D02*
D03*
Y975930D02*
D03*
X156900Y1052130D02*
D03*
Y975930D02*
D03*
D136*
X541900Y1051530D02*
D03*
X341900D02*
D03*
D137*
X4300550Y2087000D02*
D03*
X3730550Y2087000D02*
D03*
M02*
