G04*
G04 #@! TF.GenerationSoftware,Altium Limited,Altium Designer,25.8.1 (18)*
G04*
G04 Layer_Color=32896*
%FSLAX44Y44*%
%MOMM*%
G71*
G04*
G04 #@! TF.SameCoordinates,4D883809-8B02-41DD-AC40-551AF399FC8D*
G04*
G04*
G04 #@! TF.FilePolarity,Positive*
G04*
G01*
G75*
%ADD10C,0.2000*%
%ADD11C,0.1200*%
%ADD13C,0.1000*%
%ADD14C,0.5080*%
%ADD15C,0.1270*%
D10*
X660900Y853030D02*
Y1175030D01*
Y853030D02*
X822900D01*
Y1175030D01*
X660900D02*
X822900D01*
X2674520Y853030D02*
Y1175030D01*
Y853030D02*
X2836520D01*
Y1175030D01*
X2674520D02*
X2836520D01*
X1667710Y853030D02*
Y1175030D01*
Y853030D02*
X1829710D01*
Y1175030D01*
X1667710D02*
X1829710D01*
X3687550Y2119000D02*
Y2125000D01*
X3993810Y1563420D02*
Y1569420D01*
Y1583420D02*
Y1589420D01*
X4041660Y1595549D02*
Y1604549D01*
X4012160Y1608969D02*
Y1619129D01*
X4041160Y1608969D02*
X4041160Y1619129D01*
X4033010Y1619129D02*
X4041160Y1619129D01*
X4012160Y1619129D02*
X4020310Y1619129D01*
X4022660Y1606049D02*
X4030660Y1606049D01*
X4009810Y1543420D02*
Y1549420D01*
X4059510Y1563420D02*
Y1569420D01*
Y1583420D02*
Y1589420D01*
X4043510Y1543420D02*
Y1549420D01*
X4093250Y1351560D02*
X4105250Y1351560D01*
X4108750Y1352060D02*
Y1381060D01*
X4114750Y1381060D01*
X4114750Y1352060D02*
X4114750Y1381060D01*
X4108750Y1352060D02*
X4114750D01*
X4163250Y1351560D02*
X4175250D01*
X4178750Y1352060D02*
Y1381060D01*
X4184750D01*
Y1352060D02*
Y1381060D01*
X4178750Y1352060D02*
X4184750D01*
X4233250Y1351560D02*
X4245250Y1351560D01*
X4248750Y1352060D02*
X4248750Y1381060D01*
X4254750Y1381060D01*
Y1352060D02*
Y1381060D01*
X4248750Y1352060D02*
X4254750D01*
X4062710Y1454420D02*
X4068710D01*
X3984180Y1342330D02*
Y1348330D01*
Y1316930D02*
Y1322930D01*
X4053710Y1370390D02*
Y1376390D01*
X4004070Y1779731D02*
X4010070D01*
X4024070Y1778081D02*
X4030070Y1778081D01*
X3995070Y1889000D02*
Y1895000D01*
Y1909000D02*
Y1915000D01*
X3962070Y1949000D02*
X3968070D01*
X3991070Y1938000D02*
X3999070Y1938000D01*
X3980570Y1951080D02*
X3988720Y1951080D01*
X4001420Y1951080D02*
X4009570Y1951080D01*
X4009570Y1940920D02*
X4009570Y1951080D01*
X3980570Y1940920D02*
Y1951080D01*
X4010070Y1927500D02*
Y1936500D01*
X4057070Y1722081D02*
Y1728081D01*
X4053070Y1751081D02*
X4061070Y1751081D01*
X4042570Y1764161D02*
X4050720Y1764161D01*
X4063420Y1764161D02*
X4071570Y1764161D01*
Y1754001D02*
Y1764161D01*
X4042570Y1754001D02*
Y1764161D01*
X4072070Y1740581D02*
Y1749581D01*
X3944590Y1963700D02*
Y1973530D01*
X3885550D02*
X3944590D01*
X3885550Y1970000D02*
Y1973530D01*
Y1884300D02*
Y1970000D01*
X3944590Y1884300D02*
Y1963700D01*
X3992720Y1813000D02*
X3994220D01*
Y1861000D01*
X3992720D02*
X3994220D01*
X3967220Y1813000D02*
X3968720D01*
X3967220D02*
Y1861000D01*
X3968720D01*
X3929670Y1985380D02*
Y1998620D01*
X4074570Y1703581D02*
Y1709581D01*
X3951370Y1859000D02*
X3957370D01*
X4341370D02*
X4347370D01*
X4211370D02*
X4217370D01*
X4352070Y1949000D02*
X4358070D01*
X4317070Y1722081D02*
Y1728081D01*
X4255070Y1909000D02*
Y1915000D01*
X4334570Y1703581D02*
Y1709581D01*
X4255070Y1889000D02*
Y1895000D01*
X4284070Y1778081D02*
X4290070D01*
X4313070Y1751081D02*
X4321070D01*
X4302570Y1764161D02*
X4310720D01*
X4323420D02*
X4331570D01*
Y1754001D02*
Y1764161D01*
X4302570Y1754001D02*
Y1764161D01*
X4332070Y1740581D02*
Y1749581D01*
X4251070Y1938000D02*
X4259070D01*
X4240570Y1951080D02*
X4248720D01*
X4261420D02*
X4269570D01*
Y1940920D02*
Y1951080D01*
X4240570Y1940920D02*
Y1951080D01*
X4270070Y1927500D02*
Y1936500D01*
X4264070Y1779731D02*
X4270070D01*
X4222070Y1949000D02*
X4228070D01*
X4447070Y1722081D02*
Y1728081D01*
X4385070Y1909000D02*
Y1915000D01*
X4448570Y1703581D02*
Y1709581D01*
X4385070Y1889000D02*
Y1895000D01*
X4414070Y1778081D02*
X4420070D01*
X4394070Y1779731D02*
X4400070D01*
X4381070Y1938000D02*
X4389070D01*
X4370570Y1951080D02*
X4378720D01*
X4391420D02*
X4399570D01*
Y1940920D02*
Y1951080D01*
X4370570Y1940920D02*
Y1951080D01*
X4400070Y1927500D02*
Y1936500D01*
X4443070Y1751081D02*
X4451070D01*
X4432570Y1764161D02*
X4440720D01*
X4453420D02*
X4461570D01*
Y1754001D02*
Y1764161D01*
X4432570Y1754001D02*
Y1764161D01*
X4462070Y1740581D02*
Y1749581D01*
X4334590Y1963700D02*
Y1973530D01*
X4275550D02*
X4334590D01*
X4275550Y1970000D02*
Y1973530D01*
Y1884300D02*
Y1970000D01*
X4334590Y1884300D02*
Y1963700D01*
X4382720Y1813000D02*
X4384220D01*
Y1861000D01*
X4382720D02*
X4384220D01*
X4357220Y1813000D02*
X4358720D01*
X4357220D02*
Y1861000D01*
X4358720D01*
X4204590Y1963700D02*
Y1973530D01*
X4145550D02*
X4204590D01*
X4145550Y1970000D02*
Y1973530D01*
Y1884300D02*
Y1970000D01*
X4204590Y1884300D02*
Y1963700D01*
X4319670Y1985380D02*
Y1998620D01*
X4252720Y1813000D02*
X4254220D01*
Y1861000D01*
X4252720D02*
X4254220D01*
X4227220Y1813000D02*
X4228720D01*
X4227220D02*
Y1861000D01*
X4228720D01*
X4189670Y1985380D02*
Y1998620D01*
X4092070Y1949000D02*
X4098070D01*
X4059670Y1985380D02*
Y1998620D01*
X4187070Y1722081D02*
Y1728081D01*
X4183070Y1751081D02*
X4191070D01*
X4172570Y1764161D02*
X4180720Y1764161D01*
X4193420Y1764161D02*
X4201570D01*
Y1754001D02*
Y1764161D01*
X4172570Y1754001D02*
Y1764161D01*
X4202070Y1740581D02*
Y1749581D01*
X4154070Y1778081D02*
X4160070D01*
X4134070Y1779731D02*
X4140070D01*
X4121070Y1938000D02*
X4129070D01*
X4110570Y1951080D02*
X4118720Y1951080D01*
X4131420D02*
X4139570Y1951080D01*
Y1940920D02*
Y1951080D01*
X4110570Y1940920D02*
Y1951080D01*
X4140070Y1927500D02*
Y1936500D01*
X4125070Y1889000D02*
Y1895000D01*
X4081370Y1859000D02*
X4087370D01*
X4125070Y1909000D02*
Y1915000D01*
X4204570Y1703581D02*
Y1709581D01*
X4122720Y1813000D02*
X4124220D01*
Y1861000D01*
X4122720D02*
X4124220D01*
X4097220Y1813000D02*
X4098720D01*
X4097220D02*
Y1861000D01*
X4098720Y1861000D01*
X4074590Y1963700D02*
Y1973530D01*
X4015550D02*
X4074590D01*
X4015550Y1970000D02*
Y1973530D01*
Y1884300D02*
Y1970000D01*
X4074590Y1884300D02*
Y1963700D01*
X4150080Y1097030D02*
X4156080D01*
X4145080Y1071030D02*
X4145080Y1077030D01*
X4145080Y1117030D02*
Y1123030D01*
X4044810Y1071030D02*
Y1077030D01*
X4049810Y1097030D02*
X4055810Y1097030D01*
X4245080Y1117030D02*
X4245080Y1123030D01*
X4250080Y1097030D02*
X4256080D01*
X4245080Y1077030D02*
X4245080Y1071030D01*
X4045080Y1123030D02*
X4045080Y1117030D01*
X3531951Y1954829D02*
X3537951D01*
X3469451Y1969329D02*
X3475451D01*
X3469451Y1940329D02*
X3469451Y1969329D01*
X3469451Y1940329D02*
X3475451D01*
X3475451Y1969329D01*
X3478951Y1969829D02*
X3490951D01*
X246900Y1014030D02*
X276900D01*
X1186531Y1888089D02*
Y1894089D01*
X1249631Y1771649D02*
X1255631D01*
X1246669Y205357D02*
X1252669D01*
X1107930Y205516D02*
X1113930D01*
X1177030Y82756D02*
Y88756D01*
X1110731Y1771649D02*
X1116731D01*
X1239681Y1759899D02*
Y1827899D01*
X1136681D02*
X1239681D01*
X1136681Y1759899D02*
Y1827899D01*
Y1759899D02*
X1239681D01*
X1239381Y1736899D02*
Y1756399D01*
X3121550Y205516D02*
X3127550D01*
X3097102Y194513D02*
Y200513D01*
X3260289Y205357D02*
X3266289D01*
X2117541Y1771649D02*
X2123541D01*
X2256441D02*
X2262441D01*
X2090293Y194513D02*
Y200513D01*
X2114740Y205516D02*
X2120740D01*
X2253479Y205357D02*
X2259479D01*
X2183840Y82756D02*
Y88756D01*
X2282441Y1776329D02*
Y1782329D01*
X3263251Y1771649D02*
X3269251D01*
X3124351D02*
X3130351D01*
X1083483Y194513D02*
Y200513D01*
X3289251Y1776329D02*
Y1782329D01*
X1275631Y1776329D02*
Y1782329D01*
X3190650Y82756D02*
Y88756D01*
X1123880Y148946D02*
Y216946D01*
Y148946D02*
X1226880D01*
Y216946D01*
X1123880D02*
X1226880D01*
X1124180Y220446D02*
Y239946D01*
X2130690Y148946D02*
Y216946D01*
Y148946D02*
X2233690D01*
Y216946D01*
X2130690D02*
X2233690D01*
X2130990Y220446D02*
Y239946D01*
X3253301Y1759899D02*
Y1827899D01*
X3150301D02*
X3253301D01*
X3150301Y1759899D02*
Y1827899D01*
Y1759899D02*
X3253301D01*
X3253001Y1736899D02*
Y1756399D01*
X3137500Y148946D02*
Y216946D01*
Y148946D02*
X3240500D01*
Y216946D01*
X3137500D02*
X3240500D01*
X3137800Y220446D02*
Y239946D01*
X2246491Y1759899D02*
Y1827899D01*
X2143491D02*
X2246491D01*
X2143491Y1759899D02*
Y1827899D01*
Y1759899D02*
X2246491D01*
X2246191Y1736899D02*
Y1756399D01*
X2193341Y1888089D02*
Y1894089D01*
X3200151Y1888089D02*
Y1894089D01*
X790135Y1683539D02*
Y1669543D01*
X797133D01*
X799465Y1671876D01*
Y1676541D01*
X797133Y1678874D01*
X790135D01*
X794800D02*
X799465Y1683539D01*
X1796945D02*
Y1669543D01*
X1803943D01*
X1806275Y1671876D01*
Y1676541D01*
X1803943Y1678874D01*
X1796945D01*
X1801610D02*
X1806275Y1683539D01*
X2803755D02*
Y1669543D01*
X2810753D01*
X2813085Y1671876D01*
Y1676541D01*
X2810753Y1678874D01*
X2803755D01*
X2808420D02*
X2813085Y1683539D01*
D11*
X4472550Y1645550D02*
G03*
X4472550Y1645550I-7500J0D01*
G01*
X4479550Y1832250D02*
G03*
X4479550Y1832250I-7500J0D01*
G01*
X4429550Y1872250D02*
G03*
X4429550Y1872250I-7500J0D01*
G01*
D13*
X3987070Y1795000D02*
G03*
X3987070Y1794000I0J-500D01*
G01*
D02*
G03*
X3987070Y1795000I0J500D01*
G01*
X4377070D02*
G03*
X4377070Y1794000I0J-500D01*
G01*
D02*
G03*
X4377070Y1795000I0J500D01*
G01*
X4247070D02*
G03*
X4247070Y1794000I0J-500D01*
G01*
D02*
G03*
X4247070Y1795000I0J500D01*
G01*
X4117070D02*
G03*
X4117070Y1794000I0J-500D01*
G01*
D02*
G03*
X4117070Y1795000I0J500D01*
G01*
D14*
X201731Y1052130D02*
G03*
X201731Y1052130I-3810J0D01*
G01*
D15*
X4051960Y1475220D02*
X4052060Y1419660D01*
X4001360Y1475220D02*
X4001360Y1435220D01*
X766562Y1665197D02*
Y1688057D01*
X822442D01*
Y1665197D02*
Y1688057D01*
X766562Y1665197D02*
X822442D01*
X1773372D02*
Y1688057D01*
X1829252D01*
Y1665197D02*
Y1688057D01*
X1773372Y1665197D02*
X1829252D01*
X2780182D02*
Y1688057D01*
X2836062D01*
Y1665197D02*
Y1688057D01*
X2780182Y1665197D02*
X2836062D01*
M02*
