G04*
G04 #@! TF.GenerationSoftware,Altium Limited,Altium Designer,25.8.1 (18)*
G04*
G04 Layer_Color=255*
%FSLAX44Y44*%
%MOMM*%
G71*
G04*
G04 #@! TF.SameCoordinates,4D883809-8B02-41DD-AC40-551AF399FC8D*
G04*
G04*
G04 #@! TF.FilePolarity,Positive*
G04*
G01*
G75*
G04:AMPARAMS|DCode=19|XSize=0.95mm|YSize=0.9mm|CornerRadius=0.045mm|HoleSize=0mm|Usage=FLASHONLY|Rotation=0.000|XOffset=0mm|YOffset=0mm|HoleType=Round|Shape=RoundedRectangle|*
%AMROUNDEDRECTD19*
21,1,0.9500,0.8100,0,0,0.0*
21,1,0.8600,0.9000,0,0,0.0*
1,1,0.0900,0.4300,-0.4050*
1,1,0.0900,-0.4300,-0.4050*
1,1,0.0900,-0.4300,0.4050*
1,1,0.0900,0.4300,0.4050*
%
%ADD19ROUNDEDRECTD19*%
G04:AMPARAMS|DCode=21|XSize=0.94mm|YSize=0.75mm|CornerRadius=0.0375mm|HoleSize=0mm|Usage=FLASHONLY|Rotation=180.000|XOffset=0mm|YOffset=0mm|HoleType=Round|Shape=RoundedRectangle|*
%AMROUNDEDRECTD21*
21,1,0.9400,0.6750,0,0,180.0*
21,1,0.8650,0.7500,0,0,180.0*
1,1,0.0750,-0.4325,0.3375*
1,1,0.0750,0.4325,0.3375*
1,1,0.0750,0.4325,-0.3375*
1,1,0.0750,-0.4325,-0.3375*
%
%ADD21ROUNDEDRECTD21*%
G04:AMPARAMS|DCode=24|XSize=0.8mm|YSize=1.3mm|CornerRadius=0.04mm|HoleSize=0mm|Usage=FLASHONLY|Rotation=90.000|XOffset=0mm|YOffset=0mm|HoleType=Round|Shape=RoundedRectangle|*
%AMROUNDEDRECTD24*
21,1,0.8000,1.2200,0,0,90.0*
21,1,0.7200,1.3000,0,0,90.0*
1,1,0.0800,0.6100,0.3600*
1,1,0.0800,0.6100,-0.3600*
1,1,0.0800,-0.6100,-0.3600*
1,1,0.0800,-0.6100,0.3600*
%
%ADD24ROUNDEDRECTD24*%
G04:AMPARAMS|DCode=25|XSize=0.8mm|YSize=1.3mm|CornerRadius=0.04mm|HoleSize=0mm|Usage=FLASHONLY|Rotation=0.000|XOffset=0mm|YOffset=0mm|HoleType=Round|Shape=RoundedRectangle|*
%AMROUNDEDRECTD25*
21,1,0.8000,1.2200,0,0,0.0*
21,1,0.7200,1.3000,0,0,0.0*
1,1,0.0800,0.3600,-0.6100*
1,1,0.0800,-0.3600,-0.6100*
1,1,0.0800,-0.3600,0.6100*
1,1,0.0800,0.3600,0.6100*
%
%ADD25ROUNDEDRECTD25*%
G04:AMPARAMS|DCode=28|XSize=0.95mm|YSize=0.9mm|CornerRadius=0.045mm|HoleSize=0mm|Usage=FLASHONLY|Rotation=90.000|XOffset=0mm|YOffset=0mm|HoleType=Round|Shape=RoundedRectangle|*
%AMROUNDEDRECTD28*
21,1,0.9500,0.8100,0,0,90.0*
21,1,0.8600,0.9000,0,0,90.0*
1,1,0.0900,0.4050,0.4300*
1,1,0.0900,0.4050,-0.4300*
1,1,0.0900,-0.4050,-0.4300*
1,1,0.0900,-0.4050,0.4300*
%
%ADD28ROUNDEDRECTD28*%
G04:AMPARAMS|DCode=29|XSize=0.94mm|YSize=0.75mm|CornerRadius=0.0375mm|HoleSize=0mm|Usage=FLASHONLY|Rotation=270.000|XOffset=0mm|YOffset=0mm|HoleType=Round|Shape=RoundedRectangle|*
%AMROUNDEDRECTD29*
21,1,0.9400,0.6750,0,0,270.0*
21,1,0.8650,0.7500,0,0,270.0*
1,1,0.0750,-0.3375,-0.4325*
1,1,0.0750,-0.3375,0.4325*
1,1,0.0750,0.3375,0.4325*
1,1,0.0750,0.3375,-0.4325*
%
%ADD29ROUNDEDRECTD29*%
G04:AMPARAMS|DCode=34|XSize=1.2mm|YSize=0.6mm|CornerRadius=0.03mm|HoleSize=0mm|Usage=FLASHONLY|Rotation=180.000|XOffset=0mm|YOffset=0mm|HoleType=Round|Shape=RoundedRectangle|*
%AMROUNDEDRECTD34*
21,1,1.2000,0.5400,0,0,180.0*
21,1,1.1400,0.6000,0,0,180.0*
1,1,0.0600,-0.5700,0.2700*
1,1,0.0600,0.5700,0.2700*
1,1,0.0600,0.5700,-0.2700*
1,1,0.0600,-0.5700,-0.2700*
%
%ADD34ROUNDEDRECTD34*%
G04:AMPARAMS|DCode=39|XSize=0.56mm|YSize=0.51mm|CornerRadius=0.0255mm|HoleSize=0mm|Usage=FLASHONLY|Rotation=90.000|XOffset=0mm|YOffset=0mm|HoleType=Round|Shape=RoundedRectangle|*
%AMROUNDEDRECTD39*
21,1,0.5600,0.4590,0,0,90.0*
21,1,0.5090,0.5100,0,0,90.0*
1,1,0.0510,0.2295,0.2545*
1,1,0.0510,0.2295,-0.2545*
1,1,0.0510,-0.2295,-0.2545*
1,1,0.0510,-0.2295,0.2545*
%
%ADD39ROUNDEDRECTD39*%
%ADD40R,0.6000X1.5000*%
G04:AMPARAMS|DCode=52|XSize=3.42mm|YSize=1.21mm|CornerRadius=0.0605mm|HoleSize=0mm|Usage=FLASHONLY|Rotation=0.000|XOffset=0mm|YOffset=0mm|HoleType=Round|Shape=RoundedRectangle|*
%AMROUNDEDRECTD52*
21,1,3.4200,1.0890,0,0,0.0*
21,1,3.2990,1.2100,0,0,0.0*
1,1,0.1210,1.6495,-0.5445*
1,1,0.1210,-1.6495,-0.5445*
1,1,0.1210,-1.6495,0.5445*
1,1,0.1210,1.6495,0.5445*
%
%ADD52ROUNDEDRECTD52*%
G04:AMPARAMS|DCode=53|XSize=1.8mm|YSize=1.4mm|CornerRadius=0.07mm|HoleSize=0mm|Usage=FLASHONLY|Rotation=90.000|XOffset=0mm|YOffset=0mm|HoleType=Round|Shape=RoundedRectangle|*
%AMROUNDEDRECTD53*
21,1,1.8000,1.2600,0,0,90.0*
21,1,1.6600,1.4000,0,0,90.0*
1,1,0.1400,0.6300,0.8300*
1,1,0.1400,0.6300,-0.8300*
1,1,0.1400,-0.6300,-0.8300*
1,1,0.1400,-0.6300,0.8300*
%
%ADD53ROUNDEDRECTD53*%
%ADD124R,2.6250X2.6250*%
%ADD125C,2.6250*%
%ADD126C,1.8000*%
%ADD127R,1.4000X1.4000*%
%ADD128C,1.4000*%
%ADD129C,1.7500*%
%ADD130C,1.6500*%
%ADD131R,1.8000X1.8000*%
%ADD132C,1.4080*%
%ADD133C,1.5750*%
%ADD134R,1.4080X1.4080*%
%ADD135C,1.4730*%
%ADD136R,1.6500X1.6500*%
%ADD137C,2.8500*%
%ADD141C,1.0000*%
G04:AMPARAMS|DCode=142|XSize=1.48mm|YSize=0.61mm|CornerRadius=0.0763mm|HoleSize=0mm|Usage=FLASHONLY|Rotation=90.000|XOffset=0mm|YOffset=0mm|HoleType=Round|Shape=RoundedRectangle|*
%AMROUNDEDRECTD142*
21,1,1.4800,0.4575,0,0,90.0*
21,1,1.3275,0.6100,0,0,90.0*
1,1,0.1525,0.2288,0.6637*
1,1,0.1525,0.2288,-0.6637*
1,1,0.1525,-0.2288,-0.6637*
1,1,0.1525,-0.2288,0.6637*
%
%ADD142ROUNDEDRECTD142*%
G04:AMPARAMS|DCode=143|XSize=1.5mm|YSize=0.6mm|CornerRadius=0.15mm|HoleSize=0mm|Usage=FLASHONLY|Rotation=90.000|XOffset=0mm|YOffset=0mm|HoleType=Round|Shape=RoundedRectangle|*
%AMROUNDEDRECTD143*
21,1,1.5000,0.3000,0,0,90.0*
21,1,1.2000,0.6000,0,0,90.0*
1,1,0.3000,0.1500,0.6000*
1,1,0.3000,0.1500,-0.6000*
1,1,0.3000,-0.1500,-0.6000*
1,1,0.3000,-0.1500,0.6000*
%
%ADD143ROUNDEDRECTD143*%
G04:AMPARAMS|DCode=144|XSize=0.46mm|YSize=0.42mm|CornerRadius=0.021mm|HoleSize=0mm|Usage=FLASHONLY|Rotation=270.000|XOffset=0mm|YOffset=0mm|HoleType=Round|Shape=RoundedRectangle|*
%AMROUNDEDRECTD144*
21,1,0.4600,0.3780,0,0,270.0*
21,1,0.4180,0.4200,0,0,270.0*
1,1,0.0420,-0.1890,-0.2090*
1,1,0.0420,-0.1890,0.2090*
1,1,0.0420,0.1890,0.2090*
1,1,0.0420,0.1890,-0.2090*
%
%ADD144ROUNDEDRECTD144*%
G04:AMPARAMS|DCode=145|XSize=1.95mm|YSize=0.65mm|CornerRadius=0.1625mm|HoleSize=0mm|Usage=FLASHONLY|Rotation=270.000|XOffset=0mm|YOffset=0mm|HoleType=Round|Shape=RoundedRectangle|*
%AMROUNDEDRECTD145*
21,1,1.9500,0.3250,0,0,270.0*
21,1,1.6250,0.6500,0,0,270.0*
1,1,0.3250,-0.1625,-0.8125*
1,1,0.3250,-0.1625,0.8125*
1,1,0.3250,0.1625,0.8125*
1,1,0.3250,0.1625,-0.8125*
%
%ADD145ROUNDEDRECTD145*%
%ADD146R,3.3000X2.4000*%
%ADD147R,1.1000X1.6700*%
D19*
X4084370Y1851000D02*
D03*
X4214370D02*
D03*
X4344370D02*
D03*
X4397070Y1771731D02*
D03*
X4267070D02*
D03*
X4137070Y1771731D02*
D03*
X4007070Y1771731D02*
D03*
X3954370Y1851000D02*
D03*
X3534951Y1962829D02*
D03*
X3127351Y1779649D02*
D03*
X3266251D02*
D03*
X4065710Y1446420D02*
D03*
Y1462420D02*
D03*
X4007070Y1787731D02*
D03*
X4027070Y1786081D02*
D03*
Y1770081D02*
D03*
X3965070Y1941000D02*
D03*
Y1957000D02*
D03*
X3954370Y1867000D02*
D03*
X4344370D02*
D03*
X4214370D02*
D03*
X4355070Y1941000D02*
D03*
Y1957000D02*
D03*
X4287070Y1786081D02*
D03*
Y1770081D02*
D03*
X4267070Y1787731D02*
D03*
X4225070Y1941000D02*
D03*
Y1957000D02*
D03*
X4417070Y1786081D02*
D03*
Y1770081D02*
D03*
X4397070Y1787731D02*
D03*
X4095070Y1941000D02*
D03*
Y1957000D02*
D03*
X4157070Y1786081D02*
D03*
Y1770081D02*
D03*
X4137070Y1787731D02*
D03*
X4084370Y1867000D02*
D03*
X4153080Y1089030D02*
D03*
X4153080Y1105030D02*
D03*
X4052810D02*
D03*
Y1089030D02*
D03*
X1252631Y1779649D02*
D03*
X1113731D02*
D03*
X4253080Y1105030D02*
D03*
Y1089030D02*
D03*
X3534951Y1946829D02*
D03*
X1252631Y1763649D02*
D03*
X1249669Y213357D02*
D03*
Y197357D02*
D03*
X1110930Y213516D02*
D03*
Y197516D02*
D03*
X1113731Y1763649D02*
D03*
X3124550Y213516D02*
D03*
Y197516D02*
D03*
X3263289Y213357D02*
D03*
Y197357D02*
D03*
X2120541Y1779649D02*
D03*
Y1763649D02*
D03*
X2259441Y1779649D02*
D03*
Y1763649D02*
D03*
X2117740Y213516D02*
D03*
Y197516D02*
D03*
X2256479Y213357D02*
D03*
Y197357D02*
D03*
X3266251Y1763649D02*
D03*
X3127351D02*
D03*
D21*
X4377070Y1772731D02*
D03*
X4247070D02*
D03*
X4117070D02*
D03*
X3509951Y1952579D02*
D03*
X3987070Y1772731D02*
D03*
X3439951Y1950329D02*
D03*
X3248551Y1885149D02*
D03*
X3233551D02*
D03*
X2241741D02*
D03*
X2226741D02*
D03*
X1219931D02*
D03*
X1234931D02*
D03*
X3157250Y91696D02*
D03*
X3142250Y91696D02*
D03*
X2150440Y91696D02*
D03*
X2135440Y91696D02*
D03*
X1143630Y91696D02*
D03*
X1128630Y91696D02*
D03*
X3509951Y1966579D02*
D03*
X2135440Y105696D02*
D03*
X1128630D02*
D03*
X1143630Y105696D02*
D03*
X2150440D02*
D03*
X3142250Y105696D02*
D03*
X3157250Y105696D02*
D03*
X1219931Y1871149D02*
D03*
X1234931D02*
D03*
X2241741D02*
D03*
X3248551D02*
D03*
X3233551D02*
D03*
X2226741D02*
D03*
X3087351Y1763649D02*
D03*
X3102351D02*
D03*
X3072351D02*
D03*
X2997351Y1743649D02*
D03*
X3012351D02*
D03*
X3027351D02*
D03*
X3987070Y1786731D02*
D03*
X4247070D02*
D03*
X4377070D02*
D03*
X4117070D02*
D03*
X1058731Y1763649D02*
D03*
X983731Y1743649D02*
D03*
X998731D02*
D03*
X1013731D02*
D03*
X1073731Y1763649D02*
D03*
X1088731D02*
D03*
X1013731Y1729649D02*
D03*
X998731D02*
D03*
X983731D02*
D03*
X1088731Y1749649D02*
D03*
X1073731D02*
D03*
X1058731D02*
D03*
X3439951Y1964329D02*
D03*
X3363450Y233195D02*
D03*
Y247194D02*
D03*
X1379830D02*
D03*
Y233195D02*
D03*
X1304669Y227197D02*
D03*
Y213197D02*
D03*
X1349830Y247194D02*
D03*
Y233195D02*
D03*
X1364830Y247194D02*
D03*
Y233195D02*
D03*
X1274669Y227197D02*
D03*
Y213197D02*
D03*
X1289669Y227197D02*
D03*
Y213197D02*
D03*
X3303289Y227197D02*
D03*
Y213197D02*
D03*
X3318289Y227197D02*
D03*
Y213197D02*
D03*
X3393450Y247194D02*
D03*
Y233195D02*
D03*
X3288289Y227197D02*
D03*
Y213197D02*
D03*
X3378450Y247194D02*
D03*
Y233195D02*
D03*
X2080541Y1763649D02*
D03*
Y1749649D02*
D03*
X2095541D02*
D03*
Y1763649D02*
D03*
X2065541Y1749649D02*
D03*
Y1763649D02*
D03*
X2005541Y1743649D02*
D03*
Y1729649D02*
D03*
X1990541Y1743649D02*
D03*
Y1729649D02*
D03*
X2020541Y1743649D02*
D03*
Y1729649D02*
D03*
X2296479Y227197D02*
D03*
Y213197D02*
D03*
X2311479Y227197D02*
D03*
Y213197D02*
D03*
X2281479Y227197D02*
D03*
Y213197D02*
D03*
X2356640Y247194D02*
D03*
Y233195D02*
D03*
X3027351Y1729649D02*
D03*
X3012351D02*
D03*
X2997351D02*
D03*
X3072351Y1749649D02*
D03*
X3102351D02*
D03*
X3087351D02*
D03*
X2386640Y247194D02*
D03*
Y233195D02*
D03*
X2371640Y247194D02*
D03*
Y233195D02*
D03*
D24*
X4264250Y1436060D02*
D03*
X4124250D02*
D03*
X4194250D02*
D03*
X4124250Y1416060D02*
D03*
X4099250Y1436060D02*
D03*
Y1456060D02*
D03*
X4194250Y1416060D02*
D03*
X4169250Y1436060D02*
D03*
Y1456060D02*
D03*
X4239250Y1436060D02*
D03*
Y1456060D02*
D03*
X4264250Y1416060D02*
D03*
D25*
X4219250Y1396060D02*
D03*
X4149250D02*
D03*
X4079250D02*
D03*
X4101750Y1317060D02*
D03*
X4121750Y1317060D02*
D03*
X4099250Y1396060D02*
D03*
X4171750Y1317060D02*
D03*
X4191750D02*
D03*
X4169250Y1396060D02*
D03*
X4239250D02*
D03*
X4241750Y1317060D02*
D03*
X4261750D02*
D03*
D28*
X4017810Y1546420D02*
D03*
X4035510D02*
D03*
X3679550Y2122000D02*
D03*
X4237080Y1120030D02*
D03*
X4137080D02*
D03*
X4037080D02*
D03*
X4117070Y1912000D02*
D03*
X3987070D02*
D03*
X1185030Y85756D02*
D03*
X2191840D02*
D03*
X3198650D02*
D03*
X1178531Y1891089D02*
D03*
X2185341D02*
D03*
X3192151D02*
D03*
X4439070Y1725081D02*
D03*
X4309070D02*
D03*
X4179070D02*
D03*
X4036810Y1074030D02*
D03*
X4137080D02*
D03*
X4237080D02*
D03*
X4049070Y1725081D02*
D03*
X4061710Y1373390D02*
D03*
X3281251Y1779329D02*
D03*
X3695550Y2122000D02*
D03*
X4001810Y1566420D02*
D03*
X3985810D02*
D03*
Y1586420D02*
D03*
X4001810D02*
D03*
Y1546420D02*
D03*
X4051510Y1566420D02*
D03*
X4067510D02*
D03*
X4051510Y1586420D02*
D03*
X4067510D02*
D03*
X4051510Y1546420D02*
D03*
X3976180Y1345330D02*
D03*
X3992180D02*
D03*
X3976180Y1319930D02*
D03*
X3992180D02*
D03*
X4045710Y1373390D02*
D03*
X4003070Y1892000D02*
D03*
X3987070D02*
D03*
X4003070Y1912000D02*
D03*
X4065070Y1725081D02*
D03*
X4066570Y1706581D02*
D03*
X4082570D02*
D03*
X4325070Y1725081D02*
D03*
X4263070Y1912000D02*
D03*
X4247070D02*
D03*
X4326570Y1706581D02*
D03*
X4342570D02*
D03*
X4263070Y1892000D02*
D03*
X4247070D02*
D03*
X4455070Y1725081D02*
D03*
X4393070Y1912000D02*
D03*
X4377070D02*
D03*
X4456570Y1706581D02*
D03*
X4440570D02*
D03*
X4393070Y1892000D02*
D03*
X4377070D02*
D03*
X4195070Y1725081D02*
D03*
X4133070Y1892000D02*
D03*
X4117070Y1892000D02*
D03*
X4133070Y1912000D02*
D03*
X4196570Y1706581D02*
D03*
X4212570D02*
D03*
X4153080Y1074030D02*
D03*
Y1120030D02*
D03*
X4052810Y1074030D02*
D03*
X1267631Y1779329D02*
D03*
X4253080Y1120030D02*
D03*
Y1074030D02*
D03*
X4053080Y1120030D02*
D03*
X1194531Y1891089D02*
D03*
X1169030Y85756D02*
D03*
X3089102Y197513D02*
D03*
X3105103D02*
D03*
X2082292D02*
D03*
X2098293D02*
D03*
X2175840Y85756D02*
D03*
X2274441Y1779329D02*
D03*
X2290441D02*
D03*
X1075482Y197513D02*
D03*
X1091483D02*
D03*
X3297251Y1779329D02*
D03*
X1283631D02*
D03*
X3182650Y85756D02*
D03*
X2201341Y1891089D02*
D03*
X3208151D02*
D03*
D29*
X4258610Y1476060D02*
D03*
X4188610D02*
D03*
X4118610D02*
D03*
X4079710Y1482420D02*
D03*
X4085250Y1416060D02*
D03*
X4225250D02*
D03*
X4155250D02*
D03*
X4033660Y1408020D02*
D03*
Y1393020D02*
D03*
X4019660Y1408020D02*
D03*
Y1393020D02*
D03*
X4099250Y1416060D02*
D03*
X4104610Y1476060D02*
D03*
X4118750Y1337060D02*
D03*
X4104750Y1337060D02*
D03*
X4188750Y1337060D02*
D03*
X4174750D02*
D03*
X4169250Y1416060D02*
D03*
X4174610Y1476060D02*
D03*
X4239250Y1416060D02*
D03*
X4244610Y1476060D02*
D03*
X4244750Y1337060D02*
D03*
X4258750D02*
D03*
X4065710Y1482420D02*
D03*
D34*
X4239250Y1366560D02*
D03*
X4169250D02*
D03*
X4099250Y1366560D02*
D03*
X3484951Y1954829D02*
D03*
X3484951Y1964329D02*
D03*
X4194250Y1357060D02*
D03*
X4264250D02*
D03*
X4124250D02*
D03*
Y1376060D02*
D03*
X4099250Y1376060D02*
D03*
X4099250Y1357060D02*
D03*
X4194250Y1376060D02*
D03*
X4169250D02*
D03*
Y1357060D02*
D03*
X4239250Y1376060D02*
D03*
Y1357060D02*
D03*
X4264250Y1376060D02*
D03*
X3484951Y1945329D02*
D03*
X3459951D02*
D03*
X3459951Y1964329D02*
D03*
D39*
X3217151Y1871149D02*
D03*
X2210341D02*
D03*
X1203531D02*
D03*
X3173650Y105696D02*
D03*
X2166840D02*
D03*
X1160030D02*
D03*
X1194531Y1871149D02*
D03*
X1169030Y105696D02*
D03*
X3182650D02*
D03*
X2201341Y1871149D02*
D03*
X2175840Y105696D02*
D03*
X3208151Y1871149D02*
D03*
D40*
X4364370Y1807000D02*
D03*
X4234370D02*
D03*
X4104370D02*
D03*
X3974370D02*
D03*
X3987070D02*
D03*
X3974370Y1867000D02*
D03*
X3987070D02*
D03*
X4377070Y1807000D02*
D03*
X4364370Y1867000D02*
D03*
X4377070D02*
D03*
X4247070Y1807000D02*
D03*
X4234370Y1867000D02*
D03*
X4247070D02*
D03*
X4117070Y1807000D02*
D03*
X4104370Y1867000D02*
D03*
X4117070D02*
D03*
D52*
X261900Y1034030D02*
D03*
Y994030D02*
D03*
D53*
X2790105Y1676649D02*
D03*
X776485D02*
D03*
X812485D02*
D03*
X1783295D02*
D03*
X1819295D02*
D03*
X2826105D02*
D03*
D124*
X4235550Y2042000D02*
D03*
D125*
X4015550Y2082000D02*
D03*
X3955550Y2122000D02*
D03*
X3935550Y2082000D02*
D03*
X3915550Y2042000D02*
D03*
Y2122000D02*
D03*
X3875550Y2042000D02*
D03*
X3975550Y2082000D02*
D03*
X3855550Y2082000D02*
D03*
X3895550D02*
D03*
X3815550D02*
D03*
X3835550Y2042000D02*
D03*
X3795550D02*
D03*
X3955550Y2042000D02*
D03*
X4215550Y2082000D02*
D03*
X4235550Y2122000D02*
D03*
X4195550Y2042000D02*
D03*
X4155550D02*
D03*
X4115550Y2042000D02*
D03*
X4075550D02*
D03*
X4035550D02*
D03*
X3995550Y2042000D02*
D03*
X4195550Y2122000D02*
D03*
X4155550D02*
D03*
X4115550D02*
D03*
X4075550D02*
D03*
X4175550Y2082000D02*
D03*
X4135550Y2082000D02*
D03*
X4095550D02*
D03*
X4055550D02*
D03*
X4035550Y2122000D02*
D03*
X3995550D02*
D03*
X3875550D02*
D03*
X3835550D02*
D03*
X3795550D02*
D03*
D126*
X4383380Y1383160D02*
D03*
Y748160D02*
D03*
X3951580Y1358030D02*
D03*
Y723030D02*
D03*
Y1383430D02*
D03*
Y748430D02*
D03*
Y570630D02*
D03*
X3296560Y1020899D02*
D03*
Y995499D02*
D03*
X3271160D02*
D03*
X3321960D02*
D03*
X3271160Y1020899D02*
D03*
Y1046299D02*
D03*
X3296560D02*
D03*
X3321960D02*
D03*
Y1020899D02*
D03*
X1308340D02*
D03*
Y1046299D02*
D03*
X1282940D02*
D03*
X1257540D02*
D03*
Y1020899D02*
D03*
X1308340Y995499D02*
D03*
X1257540D02*
D03*
X1282940D02*
D03*
Y1020899D02*
D03*
X2315150D02*
D03*
Y1046299D02*
D03*
X2289750D02*
D03*
X2264350D02*
D03*
Y1020899D02*
D03*
X2315150Y995499D02*
D03*
X2264350D02*
D03*
X2289750D02*
D03*
Y1020899D02*
D03*
X3951580Y1307230D02*
D03*
Y1256430D02*
D03*
Y1281830D02*
D03*
X3926180D02*
D03*
X4357980Y1281560D02*
D03*
X3926180Y1180230D02*
D03*
Y1154830D02*
D03*
X3951580Y1205630D02*
D03*
Y1180230D02*
D03*
Y1231030D02*
D03*
X3926180Y1205630D02*
D03*
Y1231030D02*
D03*
Y1256430D02*
D03*
Y1307230D02*
D03*
X3951580Y1332630D02*
D03*
X3926180Y1358030D02*
D03*
Y1383430D02*
D03*
Y1332630D02*
D03*
Y748430D02*
D03*
Y723030D02*
D03*
Y697630D02*
D03*
X3951580D02*
D03*
X3926180Y672230D02*
D03*
X3951580D02*
D03*
X3926180Y646830D02*
D03*
X3951580D02*
D03*
X3926180Y621430D02*
D03*
X3951580D02*
D03*
X3926180Y596030D02*
D03*
X3951580D02*
D03*
X3926180Y570630D02*
D03*
Y545230D02*
D03*
X3951580D02*
D03*
X3926180Y519830D02*
D03*
X4357980Y722760D02*
D03*
X4383380D02*
D03*
X4357980Y697360D02*
D03*
X4383380D02*
D03*
X4357980Y671960D02*
D03*
X4383380D02*
D03*
X4357980Y646560D02*
D03*
X4383380D02*
D03*
X4357980Y621160D02*
D03*
X4383380D02*
D03*
X4357980Y595760D02*
D03*
X4383380D02*
D03*
X4357980Y570360D02*
D03*
X4383380D02*
D03*
X4357980Y544960D02*
D03*
X4383380D02*
D03*
X4357980Y519560D02*
D03*
Y748160D02*
D03*
Y1383160D02*
D03*
Y1357760D02*
D03*
X4383380D02*
D03*
X4357980Y1332360D02*
D03*
X4383380D02*
D03*
X4357980Y1306960D02*
D03*
X4383380D02*
D03*
Y1281560D02*
D03*
X4357980Y1256160D02*
D03*
X4383380D02*
D03*
X4357980Y1230760D02*
D03*
X4383380D02*
D03*
X4357980Y1205360D02*
D03*
X4383380D02*
D03*
X4357980Y1179960D02*
D03*
X4383380D02*
D03*
X4357980Y1154560D02*
D03*
X236069Y1226311D02*
D03*
Y1251712D02*
D03*
Y1200911D02*
D03*
X261469Y1251712D02*
D03*
X286869D02*
D03*
Y1226311D02*
D03*
Y1200911D02*
D03*
X261469D02*
D03*
Y1226311D02*
D03*
X236500Y801530D02*
D03*
Y826930D02*
D03*
Y776130D02*
D03*
X261900Y801530D02*
D03*
Y826930D02*
D03*
Y776130D02*
D03*
X287300D02*
D03*
Y826930D02*
D03*
Y801530D02*
D03*
D127*
X3184951Y1945846D02*
D03*
X2178141D02*
D03*
X1171331D02*
D03*
X237277Y88946D02*
D03*
D128*
X3109951Y1945846D02*
D03*
X2103141D02*
D03*
X1096331D02*
D03*
X162277Y88946D02*
D03*
X3159951Y1945846D02*
D03*
X3134951D02*
D03*
X212277Y88946D02*
D03*
X187277D02*
D03*
X2153141Y1945846D02*
D03*
X2128141Y1945847D02*
D03*
X1146331Y1945846D02*
D03*
X1121331D02*
D03*
D129*
X2790105Y1726649D02*
D03*
X674885D02*
D03*
X1681695D02*
D03*
X2688505D02*
D03*
X2645497Y250196D02*
D03*
X3652307D02*
D03*
X1638687D02*
D03*
X776485Y1726649D02*
D03*
X801885D02*
D03*
X751085D02*
D03*
X2663105D02*
D03*
X1656295D02*
D03*
X2670896Y250196D02*
D03*
X3677706D02*
D03*
X1664086D02*
D03*
X649485Y1726649D02*
D03*
X1562487Y250196D02*
D03*
X1511687D02*
D03*
X1537086D02*
D03*
X3525306D02*
D03*
X3576106D02*
D03*
X3550706D02*
D03*
X2518496D02*
D03*
X2569296D02*
D03*
X2543896D02*
D03*
X1808695Y1726649D02*
D03*
X1783295D02*
D03*
X1757895D02*
D03*
X2815505D02*
D03*
X2764705D02*
D03*
D130*
X741900Y876530D02*
D03*
Y1151530D02*
D03*
X2755520Y876530D02*
D03*
Y1151530D02*
D03*
X1748710Y876530D02*
D03*
Y1151530D02*
D03*
X341900Y976530D02*
D03*
X541900D02*
D03*
D131*
X3951580Y1154830D02*
D03*
Y519830D02*
D03*
X4383380Y519560D02*
D03*
Y1154560D02*
D03*
D132*
X365100Y1740844D02*
D03*
X415900D02*
D03*
X187300D02*
D03*
X212700D02*
D03*
X415900Y1588444D02*
D03*
X365100D02*
D03*
X212700D02*
D03*
X187300D02*
D03*
D133*
X309400Y1515960D02*
D03*
X159400D02*
D03*
D134*
X161900Y1588444D02*
D03*
D135*
X80700Y1052130D02*
D03*
Y975930D02*
D03*
X156900Y1052130D02*
D03*
Y975930D02*
D03*
D136*
X541900Y1051530D02*
D03*
X341900D02*
D03*
D137*
X4300550Y2087000D02*
D03*
X3730550Y2087000D02*
D03*
D141*
X4472050Y1832250D02*
D03*
X4465050Y1645550D02*
D03*
X4422050Y1872250D02*
D03*
D142*
X4020310Y1482420D02*
D03*
X4033010Y1482420D02*
D03*
Y1428020D02*
D03*
X4020310D02*
D03*
X4045710D02*
D03*
X4007610D02*
D03*
Y1482420D02*
D03*
X4045710D02*
D03*
D143*
X4026660Y1625049D02*
D03*
X4115570Y1932000D02*
D03*
X3985570D02*
D03*
X4437570Y1745081D02*
D03*
X4307570D02*
D03*
X4177570D02*
D03*
X4047570Y1745081D02*
D03*
X4017160Y1600049D02*
D03*
X4036160D02*
D03*
X4004570Y1932000D02*
D03*
X3995070Y1957000D02*
D03*
X4066570Y1745081D02*
D03*
X4057070Y1770081D02*
D03*
X4326570Y1745081D02*
D03*
X4317070Y1770081D02*
D03*
X4264570Y1932000D02*
D03*
X4245570D02*
D03*
X4255070Y1957000D02*
D03*
X4394570Y1932000D02*
D03*
X4375570D02*
D03*
X4385070Y1957000D02*
D03*
X4456570Y1745081D02*
D03*
X4447070Y1770081D02*
D03*
X4196570Y1745081D02*
D03*
X4187070Y1770081D02*
D03*
X4134570Y1932000D02*
D03*
X4125070Y1957000D02*
D03*
D144*
X4035510Y1573020D02*
D03*
X4017810D02*
D03*
Y1566420D02*
D03*
X4035510D02*
D03*
D145*
X3233450Y135696D02*
D03*
X3157351Y1841149D02*
D03*
X2150541D02*
D03*
X2226640Y135696D02*
D03*
X1143731Y1841149D02*
D03*
X1219830Y135696D02*
D03*
X1143630D02*
D03*
X2150440D02*
D03*
X3157250D02*
D03*
X1219931Y1841149D02*
D03*
X2226741D02*
D03*
X3233551D02*
D03*
X3220851Y1746649D02*
D03*
X1207231D02*
D03*
X1181831D02*
D03*
X1143731D02*
D03*
X1232631D02*
D03*
X1219931D02*
D03*
X1194531D02*
D03*
X1169131D02*
D03*
X1156431D02*
D03*
Y1841149D02*
D03*
X1169131D02*
D03*
X1181831D02*
D03*
X1194531D02*
D03*
X1207231D02*
D03*
X1232631D02*
D03*
X1130930Y230196D02*
D03*
X1143630D02*
D03*
X1169030D02*
D03*
X1181730D02*
D03*
X1194430D02*
D03*
X1207130D02*
D03*
X1219830D02*
D03*
X1207130Y135696D02*
D03*
X1194430D02*
D03*
X1181730D02*
D03*
X1169030D02*
D03*
X1156330D02*
D03*
X1130930D02*
D03*
X1156330Y230196D02*
D03*
X2137740D02*
D03*
X2150440D02*
D03*
X2175840D02*
D03*
X2188540D02*
D03*
X2201240D02*
D03*
X2213940D02*
D03*
X2226640D02*
D03*
X2213940Y135696D02*
D03*
X2201240D02*
D03*
X2188540D02*
D03*
X2175840D02*
D03*
X2163140D02*
D03*
X2137740D02*
D03*
X2163140Y230196D02*
D03*
X3246251Y1746649D02*
D03*
X3233551D02*
D03*
X3208151D02*
D03*
X3195451D02*
D03*
X3182751D02*
D03*
X3170051D02*
D03*
X3157351D02*
D03*
X3170051Y1841149D02*
D03*
X3182751D02*
D03*
X3195451D02*
D03*
X3208151D02*
D03*
X3220851D02*
D03*
X3246251D02*
D03*
X3144550Y230196D02*
D03*
X3157250D02*
D03*
X3182650D02*
D03*
X3195350D02*
D03*
X3208050D02*
D03*
X3220750D02*
D03*
X3233450D02*
D03*
X3220750Y135696D02*
D03*
X3208050D02*
D03*
X3195350D02*
D03*
X3182650D02*
D03*
X3169950D02*
D03*
X3144550D02*
D03*
X3169950Y230196D02*
D03*
X2239441Y1746649D02*
D03*
X2226741D02*
D03*
X2214041D02*
D03*
X2201341D02*
D03*
X2188641D02*
D03*
X2175941D02*
D03*
X2163241D02*
D03*
X2150541D02*
D03*
X2163241Y1841149D02*
D03*
X2175941D02*
D03*
X2188641D02*
D03*
X2201341D02*
D03*
X2214041D02*
D03*
X2239441D02*
D03*
D146*
X3915070Y1957000D02*
D03*
Y1891000D02*
D03*
X4305070Y1957000D02*
D03*
Y1891000D02*
D03*
X4175070Y1957000D02*
D03*
Y1891000D02*
D03*
X4045070Y1957000D02*
D03*
Y1891000D02*
D03*
D147*
X3915070Y1992000D02*
D03*
X3944270D02*
D03*
X4305070D02*
D03*
X4334270D02*
D03*
X4175070D02*
D03*
X4204270D02*
D03*
X4045070D02*
D03*
X4074270D02*
D03*
M02*
