M48
;Layer_Color=9474304
;FILE_FORMAT=4:4
METRIC,LZ
;TYPE=PLATED
T01F00S00C0.2500
T02F00S00C0.3500
T03F00S00C0.5000
T04F00S00C0.6000
T05F00S00C0.9000
T06F00S00C0.9650
T07F00S00C1.0500
T08F00S00C1.1000
T09F00S00C1.1500
T10F00S00C1.2000
T11F00S00C1.4750
T12F00S00C1.7500
%
T01
X0088008Y0084428
Y0086228
Y0088028
Y0089816
X0093008
Y0088028
Y0086228
Y0084428
X0098008
Y0086228
Y0088028
Y0089816
X0108858
Y0088028
Y0086228
Y0084428
X0113858
Y0086228
Y0088028
Y0089816
X0118858
Y0088028
Y0086228
Y0084428
X0133661
Y0086228
Y0088028
Y0089816
X0138661
Y0088028
Y0086228
Y0084428
X0143661
Y0086228
Y0088028
Y0089816
X0154511
Y0088028
Y0086228
Y0084428
X0159511
Y0086228
Y0088028
Y0089816
X0164511
Y0088028
Y0086228
Y0084428
X0188689
Y0086228
Y0088028
Y0089816
X0193689
Y0088028
Y0086228
Y0084428
X0198689
Y0086228
Y0088028
Y0089816
X0209539
Y0088028
Y0086228
Y0084428
X0214539
Y0086228
Y0088028
Y0089816
X0219539
Y0088028
Y0086228
Y0084428
X0234342
Y0086228
Y0088028
Y0089816
X0239342
Y0088028
Y0086228
Y0084428
X0244342
Y0086228
Y0088028
Y0089816
X0255192
Y0088028
Y0086228
Y0084428
X0260192
Y0086228
Y0088028
Y0089816
X0265192
Y0088028
Y0086228
Y0084428
X028937
Y0086228
Y0088028
Y0089816
X029437
Y0088028
Y0086228
Y0084428
X029937
Y0086228
Y0088028
Y0089816
X031022
Y0088028
Y0086228
Y0084428
X031522
Y0086228
Y0088028
Y0089816
X032022
Y0088028
Y0086228
Y0084428
X0335023
Y0086228
Y0088028
Y0089816
X0340023
Y0088028
Y0086228
Y0084428
X0345023
Y0086228
Y0088028
Y0089816
X0355873
Y0088028
Y0086228
Y0084428
X0360873
Y0086228
Y0088028
Y0089816
X0365873
Y0088028
Y0086228
Y0084428
Y0123153
Y0124953
Y0126753
Y0128541
X0360873
Y0126753
Y0124953
Y0123153
X0355873
Y0124953
Y0126753
Y0128541
X032022
Y0126753
Y0124953
Y0123153
X031522
Y0124953
Y0126753
Y0128541
X031022
Y0126753
Y0124953
Y0123153
X029937
Y0124953
Y0126753
Y0128541
X029437
Y0126753
Y0124953
Y0123153
X028937
Y0124953
Y0126753
Y0128541
X0265192
Y0126753
Y0124953
Y0123153
X0260192
Y0124953
Y0126753
Y0128541
X0255192
Y0126753
Y0124953
Y0123153
X0244342
Y0124953
Y0126753
Y0128541
X0239342
Y0126753
Y0124953
Y0123153
X0234342
Y0124953
Y0126753
Y0128541
X0219539
Y0126753
Y0124953
Y0123153
X0214539
Y0124953
Y0126753
Y0128541
X0209539
Y0126753
Y0124953
Y0123153
X0198689
Y0124953
Y0126753
Y0128541
X0193689
Y0126753
Y0124953
Y0123153
X0188689
Y0124953
Y0126753
Y0128541
X0164511
Y0126753
Y0124953
Y0123153
X0159511
Y0124953
Y0126753
Y0128541
X0154511
Y0126753
Y0124953
Y0123153
X0143661
Y0124953
Y0126753
Y0128541
X0138661
Y0126753
Y0124953
Y0123153
X0133661
Y0124953
Y0126753
Y0128541
X0118858
Y0126753
Y0124953
Y0123153
X0113858
Y0124953
Y0126753
Y0128541
X0108858
Y0126753
Y0124953
Y0123153
X0098008
Y0124953
Y0126753
Y0128541
X0093008
Y0126753
Y0124953
Y0123153
X0088008
Y0124953
Y0126753
Y0128541
T02
X00332277Y00051746
X00462438Y00058284
X00466777Y00089446
X00472277Y00108446
X00803285Y00121143
X00882385Y00105496
X00878046Y00074335
X0094532Y00080246
X00995635Y00104996
X01022885Y00095496
X01035482Y00117513
Y0005796
X0110033Y00085596
X0115633Y00070471
X0116903
X0118173Y00070696
X0119773Y00065696
X0118173Y00115696
X0115633
X0121983Y00115696
X0126686Y00152866
X0128286Y00157666
X0136983Y00126696
X01524991Y00096834
X01810095Y00121143
X01889195Y00105496
X01884856Y00074335
X0195213Y00080246
X02029695Y00095496
X02042292Y0005796
X0210714Y00085596
X0216314Y00070471
Y00115696
X0218854
X0222664Y00115696
X0220454Y00065696
X0218854Y00070696
X0217584Y00070471
X0227367Y00152866
X0228967Y00157666
X0237664Y00126696
X02531801Y00096834
X02816905Y00121143
X02896005Y00105496
X02891666Y00074335
X0295894Y00080246
X03036505Y00095496
X03049102Y0005796
X0311395Y00085596
X0316995Y00070471
X0318265
X0319535Y00070696
X0322961Y0007493
X0323345Y00115696
X0319535Y00115696
X0316995
X0328048Y00152866
X0329648Y00157666
X0338345Y00126696
X03538611Y00096834
X0383921Y0012319
X03850151Y00130715
X03845402Y00162534
X0383271Y00255227
X03338458Y00230197
X0329648Y00322819
X0328048
X03069105Y00197516
X02831905Y00226396
X02794955Y00256396
X02727105Y00322196
X02738805Y00421396
X0228967Y00322819
X0227367
X02331648Y00230197
X02062295Y00197516
X01825095Y00226396
X01788145Y00256396
X01720295Y00322196
X01731995Y00421396
X0128286Y00322919
X0126686
X01324835Y00230194
X01055482Y00197513
X00818285Y00226396
X00781335Y00256396
X00713485Y00322196
X00725185Y00421396
X0079483Y0061478
X0080983
Y0062978
X0082483Y0062978
Y0061478
X0079483Y0062978
X0180164
Y0061478
X0181664
Y0062978
X0183164Y0062978
Y0061478
X0280845
X0282345
Y0062978
X0283845Y0062978
Y0061478
X0280845Y0062978
X0369558Y0072556
X0373193Y0095933
X03957269Y00858169
X0433976Y0072276
X0432976Y0069736
X0431976Y0067196
X0430976Y0064656
X0429976Y0062116
X0428976Y0059576
X0423078Y0103053
X0424434Y0106172
X0421808Y0108053
X0419078Y0107003
X0418108Y0111203
X0427824Y0111203
X0425308Y0114003
X0431808Y0108053
X04255411Y01365899
X04185411
X04115411
X0404749Y0134366
X0400431Y0132969
X0401593Y0129103
X0408228Y0123084
Y0121557
Y012003
X0405308Y011403
X0408108Y0111203
X0411808Y0108053
X0413338Y0103703
X0415308Y0114003
X0401808Y0110553
X0393843Y0104913
X0382773Y0106413
X0379773Y0102718
X0369573Y0132413
X0283845Y0132971
X0282345
X0280845
Y0134471
X0282345
X0283845
X0183164
X0181664
X0180164
Y0132971
X0181664
X0183164
X0082483
Y0134471
X0080983
Y0132971
X0079483Y0132971
Y0134471
X005264Y01624844
X004764
Y01639844
X004614
Y01654844
X004764
X004614Y01624844
X006159Y01740844
X00832485Y01666534
X01038726Y0174665
X01267002Y01678866
X01283002
X01839295Y01666534
X02045536Y0174665
X02273812Y01679884
X02289812
X02846105Y01666534
X03052346Y0174665
X03280622Y01678866
X03296622
X0371773Y01666534
X0373193Y0153553
X0379773Y0160338
X0382773Y0163533
X03838784Y01745491
X0386232Y01751955
X038735Y017272
X04030569Y01725497
X0402666Y0159131
X0398581Y0160142
X0397383Y0161163
X0406751Y0155142
X0405071Y0146367
X0398343Y0143003
X0397093Y0140803
X0393827Y0144642
X0415907Y01725081
X0428907
X0441907
X0443505Y0168055
Y0166555
X0445005
Y0168055
X0446505Y0168055
Y0166555
X0445205Y0181725
Y0183225
X0443705Y0183225
Y0181725
X0442205
Y0183225
X04327928Y01834239
X04320428Y01849239
X04335428Y01879239
Y01909239
Y01789239
X0410207Y01912
X0397207
X03923737Y01833373
X03910604Y01788524
X03787973Y01798017
X03781437Y01832837
X03783017Y01969668
X03554951Y01964329
X03522451Y01954829
X03483951Y01921096
X03409451Y01915846
X03414451Y01946346
X03419951Y01965347
X0343281Y018796
X03395951Y01839329
X03397381Y01801709
X03381381Y01806509
X03639113Y01856218
X03263494Y01871149
X03220851Y01861149
X03195451
X03177751Y01871149
X03165051
X0315087
X03195451Y01906274
X03208151Y01906203
X03220851Y01906374
X03279951Y01908646
X03317251Y01779329
X02706141Y01862146
X02632303Y01856235
X02477141Y01921096
X02403302Y01915185
X02407641Y01946346
X02413141Y01965347
X02425432Y01879796
X02389141Y01839329
X02390571Y01802726
X02374571Y01807526
X02310441Y01779329
X02256866Y01871149
X02214041Y01861149
X02188641
X02170941Y01871149
X02172641Y01906274
X02188641
X02201341Y01906203
X02214041Y01906374
X02230041
X02273141Y01908646
X02158241Y01871149
X01699331Y01861129
X01625493Y01855218
X01435206Y01885079
X01396492Y01915185
X01400831Y01946346
X01406331Y01965347
X01470331Y01921096
X01382331Y01839329
X01383761Y01801709
X01367761Y01806509
X01303631Y01779329
Y01839329
X0125095Y0188087
X01266331Y01908646
X01207231Y01906374
X01194531Y01906031
X01181831Y01906274
Y01861149
X01207231
X01164131Y01871149
X01151431
X01150706Y01891149
T03
X03421057Y00297844
X03420982Y00322986
X03600706Y00421526
X03225283Y00250263
X03195283
X03182515Y00275195
X02968772Y00297743
X02968813Y00322986
X02593896Y00421526
X0241424Y00322919
X02414382Y0029771
X0221854Y00250196
X0218854
X02175773Y00275128
X01962063Y0029771
X0196207Y00322919
X01587086Y00421526
X0140743Y00322919
X01407572Y0029771
X0121173Y00250196
X0118173
X01168963Y00275128
X00955253Y0029771
X0095526Y00322919
X0403083Y0099103
X029017Y0109615
X0189489
X0088808
X0095526Y01653891
X00955219Y01679
X01151831Y01726649
X01181831
X01194396Y01701649
X01407538Y01679
X0140743Y01653891
X0196207
X01961995Y01679034
X02158641Y01726649
X02188641
X02201206Y01701649
X02414348Y01679
X0241424Y01653891
X0296888
X02968805Y01679034
X03165451Y01726649
X03195451
X03208016Y01701649
X03421158Y01679
X0342105Y01653891
T04
X0337043Y0042424
X0339543
X0342043
X0344543
X0347043
X0349543
X0348293Y0044924
X0345793
X0343293
X0340793
X0338293
X0339543Y0047424
X0342043
X0344543
X0347043
X0349543
X0348293Y0049924
X0345793
X0343293
X0340793
X0338293
X0339543Y0052424
X0342043
X0344543
X0347043
X0349543
X0348293Y0054924
X0345793
X0343293
X0340793
X0338293
X0339543Y0057424
X0342043
X0344543
X0347043
X0349543
X0357043
X0359543
X0362043
X0364543
X0365793Y0054924
X0363293
X0360793
X0358293
X0355793
X0357043Y0052424
X0359543
X0362043
X0364543
X0365793Y0049924
X0363293
X0360793
X0358293
X0355793
X0357043Y0047424
X0359543
X0362043
X0364543
X0365793Y0044924
X0363293
X0360793
X0358293
X0355793
X0357043Y0042424
X0362043
X0364543
X0337043Y0047424
Y0052424
Y0057424
X0334543
X0335793Y0054924
X0334543Y0052424
X0335793Y0049924
X0334543Y0047424
X0335793Y0044924
X0334543Y0042424
X0324543
X0322043
X0319543
X0317043
X0314543
X0312043
X0309543
X0310793Y0044924
X0313293
X0315793
X0318293
X0320793
X0323293
X0325793
X0324543Y0047424
X0322043
X0319543
X0317043
X0314543
X0312043
X0309543
X0310793Y0049924
X0313293
X0315793
X0318293
X0320793
X0323293
X0325793
X0324543Y0052424
X0322043
X0319543
X0317043
X0314543
X0312043
X0309543
X0310793Y0054924
X0313293
X0315793
X0318293
X0320793
X0323293
X0325793
X0324543Y0057424
X0322043
X0319543
X0317043
X0314543
X0312043
X0309543
X0304543
X0302043
X0299543
X0297043
X0298293Y0054924
X0300793
X0303293
X0304543Y0052424
X0302043
X0299543
X0297043
X0298293Y0049924
X0300793
X0303293
X0304543Y0047424
X0302043
X0299543
X0297043
X0298293Y0044924
X0300793
X0303293
X0304543Y0042424
X0302043
X0299543
X0297043
X0294543
X0292043
X0289543
X0290793Y0044924
X0293293
X0295793
X0294543Y0047424
X0292043
X0289543
X0290793Y0049924
X0293293
X0295793
X0294543Y0052424
X0292043
X0289543
X0290793Y0054924
X0293293
X0295793
X0294543Y0057424
X0292043
X0289543
X0282043
X0283293Y0054924
X0282043Y0052424
X0283293Y0049924
X0282043Y0047424
X0283293Y0044924
X0279543Y0042424
X0277043
X0275793Y0044924
X0273293
X0270793
X0268293
X0265793
X0263293
X0260793
X0258293
X0259543Y0047424
X0262043
X0264543
X0267043
X0269543
X0272043
X0274543
X0277043
X0275793Y0049924
X0273293
X0270793
X0268293
X0265793
X0263293
X0260793
X0258293
X0259543Y0052424
X0262043
X0264543
X0267043
X0269543
X0272043
X0274543
X0277043
X0275793Y0054924
X0273293
X0270793
X0268293
X0265793
X0263293
X0260793
X0258293
X0259543Y0057424
X0262043
X0264543
X0267043
X0269543
X0272043
X0274543
X0277043
X0272043Y0042424
X0269543
X0267043
X0264543
X0262043
X0257043
Y0047424
Y0052424
Y0057424
X0254543
X0255793Y0054924
X0254543Y0052424
X0255793Y0049924
X0254543Y0047424
X0255793Y0044924
X0254543Y0042424
X0247043
X0244543
X0242043
X0239543
X0237043
X0234543
X0235793Y0044924
X0238293
X0240793
X0243293
X0245793
X0248293
X0249543Y0047424
X0247043
X0244543
X0242043
X0239543
X0237043
X0234543
X0235793Y0049924
X0238293
X0240793
X0243293
X0245793
X0248293
X0249543Y0052424
X0247043
X0244543
X0242043
X0239543
X0237043
X0234543
X0235793Y0054924
X0238293
X0240793
X0243293
X0245793
X0248293
X0249543Y0057424
X0247043
X0244543
X0242043
X0239543
X0237043
X0234543
X0224543
X0222043
X0219543
X0217043
X0218293Y0054924
X0220793
X0223293
X0225793
X0224543Y0052424
X0222043
X0219543
X0217043
X0218293Y0049924
X0220793
X0223293
X0225793
X0224543Y0047424
X0222043
X0219543
X0217043
X0218293Y0044924
X0220793
X0223293
X0225793
X0224543Y0042424
X0222043
X0219543
X0217043
X0214543
X0212043
X0209543
X0210793Y0044924
X0213293
X0215793
X0214543Y0047424
X0212043
X0209543
X0210793Y0049924
X0213293
X0215793
X0214543Y0052424
X0212043
X0209543
X0210793Y0054924
X0213293
X0215793
X0214543Y0057424
X0212043
X0209543
X0202043
X0199543
X0197043
X0194543
X0192043
X0189543
X0190793Y0054924
X0193293
X0195793
X0198293
X0200793
X0203293
X0202043Y0052424
X0199543
X0197043
X0194543
X0192043
X0189543
X0190793Y0049924
X0193293
X0195793
X0198293
X0200793
X0203293
X0202043Y0047424
X0199543
X0197043
X0194543
X0192043
X0189543
X0190793Y0044924
X0193293
X0195793
X0198293
X0200793
X0203293
X0202043Y0042424
X0199543
X0197043
X0194543
X0192043
X0189543
X0188293Y0044924
Y0049924
Y0054924
X0180793
X0182043Y0057424
Y0052424
X0180793Y0049924
X0182043Y0047424
X0179543Y0042424
X0177043
X0175793Y0044924
X0173293
X0170793
X0168293
X0165793
X0163293
X0160793
X0158293
X0155793
X0157043Y0047424
X0159543
X0162043
X0164543
X0167043
X0169543
X0172043
X0174543
X0177043
X0175793Y0049924
X0173293
X0170793
X0168293
X0165793
X0163293
X0160793
X0158293
X0155793
X0157043Y0052424
X0159543
X0162043
X0164543
X0167043
X0169543
X0172043
X0174543
X0177043
X0175793Y0054924
X0173293
X0170793
X0168293
X0165793
X0163293
X0160793
X0158293
X0155793
X0157043Y0057424
X0159543
X0162043
X0164543
X0167043
X0169543
X0172043
X0174543
X0177043
X0169543Y0042424
X0167043
X0164543
X0162043
X0154543
Y0047424
Y0052424
Y0057424
X0147043
X0144543
X0142043
X0139543
X0140793Y0054924
X0143293
X0145793
X0148293
X0147043Y0052424
X0144543
X0142043
X0139543
X0140793Y0049924
X0143293
X0145793
X0148293
X0147043Y0047424
X0144543
X0142043
X0139543
X0140793Y0044924
X0143293
X0145793
X0148293
X0147043Y0042424
X0144543
X0142043
X0139543
X0138293Y0044924
Y0049924
Y0054924
X0135793
X0133293
X0134543Y0057424
X0137043
Y0052424
X0134543
X0135793Y0049924
X0133293
X0134543Y0047424
X0137043
X0135793Y0044924
X0133293
X0134543Y0042424
X0137043
X0124543
X0122043
X0119543
X0117043
X0114543
X0112043
X0109543
X0110793Y0044924
X0113293
X0115793
X0118293
X0120793
X0123293
X0124543Y0047424
X0122043
X0119543
X0117043
X0114543
X0112043
X0109543
X0110793Y0049924
X0113293
X0115793
X0118293
X0120793
X0123293
X0124543Y0052424
X0122043
X0119543
X0117043
X0114543
X0112043
X0109543
X0110793Y0054924
X0113293
X0115793
X0118293
X0120793
X0123293
X0124543Y0057424
X0122043
X0119543
X0117043
X0114543
X0112043
X0109543
X0108293Y0054924
Y0049924
Y0044924
X0103293
X0100793
X0098293
X0099543Y0047424
X0102043
X0103293Y0049924
X0100793
X0098293
X0099543Y0052424
X0102043
X0103293Y0054924
X0100793
X0098293
X0099543Y0057424
X0102043
Y0042424
X0099543
X0097043
X0094543
X0092043
X0089543
X0090793Y0044924
X0093293
X0095793
X0097043Y0047424
X0094543
X0092043
X0089543
X0090793Y0049924
X0093293
X0095793
X0097043Y0052424
X0094543
X0092043
X0089543
X0090793Y0054924
X0093293
X0095793
X0097043Y0057424
X0094543
X0092043
X0089543
X0088293Y0054924
Y0049924
Y0044924
X0082043Y0047424
X0080793Y0049924
X0082043Y0052424
X0080793Y0054924
X0082043Y0057424
X0075793Y0054924
X0073293
X0070793
X0068293
X0065793
X0063293
X0060793
X0058293
X0059543Y0057424
X0062043
X0064543
X0067043
X0069543
X0072043
Y0052424
X0069543
X0067043
X0064543
X0062043
X0059543
X0060793Y0049924
X0063293
X0065793
X0068293
X0070793
X0073293
X0075793
Y0044924
X0073293
X0074543Y0042424
X0077043
X0069543
X0067043
X0064543
X0062043
X0059543
Y0047424
X0062043
X0064543
X0067043
X0069543
X0072043
X0058293Y0049924
X0055793
X0053293
X0050793
X0048293
X0045793
X0047043Y0052424
X0049543
X0052043
X0054543
X0057043
X0055793Y0054924
X0053293
X0050793
X0048293
X0045793
X0043293
X0040793
X0042043Y0057424
X0044543
X0047043
X0049543
X0052043
X0054543
X0057043
Y0047424
X0054543
X0052043
X0049543
X0047043
X0044543Y0052424
X0042043
X0039543Y0057424
X0037043
X0054543Y0042424
X0057043
X0018293Y0064924
X0017043Y0067424
X0018293Y0069924
X0017043Y0072424
X0018293Y0074924
X0017043Y0077424
X0018293Y0079924
X0017043Y0082424
X0018293Y0084924
X0017043Y0087424
X0018293Y0089924
X0017043Y0092424
X0018293Y0094924
X0020793
X0023293
X0025793
X0028293
X0030793
X0033293
X0035793
X0038293
X0040793
X0043293
X0045793
X0048293
X0050793
X0053293
X0055793
X0057043Y0097424
Y0092424
X0054543
X0052043
X0049543
X0047043
X0044543
X0042043
X0039543
X0037043
X0034543
X0032043
X0029543
X0027043
X0024543
X0022043
X0019543
X0020793Y0089924
X0023293
X0025793
X0028293
X0030793
X0033293
X0035793
X0038293
X0040793
X0043293
X0045793
X0048293
X0050793
X0053293
X0055793
X0057043Y0087424
X0054543
X0052043
X0049543
X0047043
X0044543
X0042043
X0039543
X0037043
X0034543
X0032043
X0029543
X0027043
X0024543
X0022043
X0019543
X0020793Y0084924
X0023293
X0025793
X0028293
X0030793
X0033293
X0035793
X0038293
X0040793
X0043293
X0045793
X0048293
X0050793
X0053293
X0055793
X0057043Y0082424
X0054543
X0052043
X0049543
X0047043
X0044543
X0042043
X0039543
X0037043
X0034543
X0032043
X0033293Y0079924
X0035793
X0038293
X0040793
X0043293
X0045793
X0048293
X0050793
X0053293
X0055793
X0057043Y0077424
X0054543
X0052043
X0049543
X0047043
X0044543
X0042043
X0039543
X0037043
X0034543
X0032043
X0033293Y0074924
X0035793
X0038293
X0040793
X0043293
X0045793
X0048293
X0050793
X0053293
X0055793
X0057043Y0072424
X0054543
X0052043
X0049543
X0047043
X0044543
X0042043
X0039543
X0037043
X0034543
X0032043
X0029543
X0027043
X0024543
X0022043
X0019543
X0020793Y0074924
X0023293
X0025793
X0028293
X0030793
Y0069924
X0033293
X0035793
X0038293
X0040793
X0043293
X0045793
X0048293
X0050793
X0053293
X0055793
X0057043Y0067424
X0054543
X0052043
X0049543
X0047043
X0044543
X0042043
X0039543
X0037043
X0034543
X0032043
X0029543
X0027043
X0024543
X0022043
X0019543
X0020793Y0069924
X0023293
X0025793
X0028293
Y0064924
X0030793
X0033293
X0035793
X0038293
X0040793
X0043293
X0045793
X0048293
X0050793
X0053293
X0055793
X0057043Y0062424
X0054543
X0052043
X0049543
X0047043
X0044543
X0042043
X0039543
X0037043
X0034543
X0032043
X0029543
X0027043
X0024543
X0022043
X0023293Y0064924
X0025793
X0020793
X0019543Y0077424
X0020793Y0079924
X0019543Y0082424
Y0097424
X0022043
X0024543
X0027043
X0029543
X0032043
X0037043
X0039543
X0042043
X0044543
X0047043
X0049543
X0052043
X0053293Y0059924
X0055793
X0050793
X0048293
X0045793
X0043293
X0040793
X0038293
X0035793
X0058293
X0060793
X0063293
X0065793
X0068293
X0070793
X0073293
X0075793
X0080793
X0088293
X0090793
X0093293
X0095793
X0097043Y0062424
X0094543
X0092043
X0089543
X0090793Y0064924
X0093293
X0095793
X0097043Y0067424
X0094543
X0092043
X0089543
X0090793Y0069924
X0093293
X0095793
X0097043Y0072424
X0094543
X0092043
X0089543
X0090793Y0074924
X0093293
X0095793
X0088293
Y0069924
Y0064924
X0075793
X0073293
X0070793
X0068293
X0065793
X0063293
X0060793
X0058293
X0059543Y0067424
X0062043
X0064543
X0067043
X0069543
X0072043
X0073293Y0069924
X0075793
Y0074924
X0073293
X0070793
X0068293
X0065793
X0063293
X0060793
X0058293
X0059543Y0077424
X0062043
X0064543
X0067043
X0069543
X0072043
X0073293Y0079924
X0075793
X0077043Y0082424
X0078293Y0084924
X0075793
X0073293
X0070793
X0068293
X0065793
X0063293
X0060793
X0058293
X0059543Y0087424
X0062043
X0064543
X0067043
X0069543
X0072043
X0073293Y0089924
X0070793
X0068293
X0065793
X0063293
X0060793
X0058293
X0059543Y0092424
X0062043
X0064543
X0067043
X0069543
X0072043
X0068293Y0094924
X0065793
X0063293
X0060793
X0058293
X0059543Y0097424
X0062043
X0064543
X0067043
Y0082424
X0069543
X0072043
X0070793Y0079924
X0068293
X0065793
X0063293
X0060793
X0058293
X0059543Y0082424
X0062043
X0064543
Y0072424
X0067043
X0069543
X0072043
X0070793Y0069924
X0068293
X0065793
X0063293
X0060793
X0058293
X0059543Y0072424
X0062043
Y0062424
X0064543
X0067043
X0069543
X0072043
X0059543
X0077043Y0087424
X0090793Y0092424
X0093293
X0095793
X0097043Y0094924
X0094543
X0092043
X0089543
X0090793Y0097424
X0093293
X0095793
X0098293
X0100793
X0103293
X0105793
X0108293
X0110793
X0113293
X0115793
X0118293
X0120793
X0123293
X0125793
X0128293
X0130793
X0133293
X0135793
X0137043Y0094924
X0134543
X0132043
X0129543
X0127043
X0124543
X0122043
X0119543
X0117043
X0114543
X0112043
X0109543
X0107043
X0104543
X0102043
X0099543
X0100793Y0092424
X0103293
X0105793
X0108293
X0110793
X0113293
X0115793
X0118293
X0120793
X0123293
X0125793
X0128293
X0130793
X0133293
X0135793
X0132043Y0089924
X0129543
X0127043
X0124543
X0122043
X0125793Y0087424
X0128293
X0130793
X0132043Y0084924
X0129543
X0127043
X0128293Y0079924
X0130793
X0127043Y0077424
X0135793Y0074924
X0137043Y0072424
X0134543
X0135793Y0069924
X0137043Y0067424
X0134543
X0135793Y0064924
X0133293
X0134543Y0062424
X0137043
X0135793Y0059924
X0133293
X0123293
X0120793
X0118293
X0115793
X0113293
X0110793
X0108293
X0109543Y0062424
X0112043
X0114543
X0117043
X0119543
X0122043
X0124543
X0123293Y0064924
X0120793
X0118293
X0115793
X0113293
X0110793
X0108293
X0109543Y0067424
X0112043
X0114543
X0117043
X0119543
X0122043
X0124543
X0123293Y0069924
X0118293
X0115793
X0113293
X0110793
X0112043Y0072424
X0114543
X0117043
X0119543
X0118293Y0074924
X0115793
X0113293
X0110793
X0109543Y0072424
X0105793Y0079924
X0107043Y0084924
X0105793Y0087424
X0107043Y0089924
X0104543
X0102043
X0099543
X0098293Y0092424
Y0074924
Y0069924
X0099543Y0067424
X0102043
X0103293Y0064924
X0100793
X0098293
X0099543Y0062424
X0102043
X0103293Y0059924
X0100793
X0098293
X0138293
X0140793
X0143293
X0145793
X0148293
X0147043Y0062424
X0144543
X0142043
X0139543
X0140793Y0064924
X0143293
X0145793
X0148293
X0147043Y0067424
X0144543
X0142043
X0139543
X0140793Y0069924
X0143293
X0144543Y0072424
X0142043
X0139543
X0140793Y0074924
X0143293
X0138293
Y0069924
Y0064924
X0148293Y0069924
X0155793
X0158293
X0160793
X0163293
X0164543Y0072424
X0162043
X0159543
X0157043
X0154543
X0155793Y0074924
X0158293
X0160793
X0163293
X0165793
X0168293
X0170793
X0173293
X0175793
X0177043Y0072424
X0175793Y0069924
X0173293
X0170793
X0168293
X0169543Y0067424
X0172043
X0174543
X0177043
X0175793Y0064924
X0173293
X0170793
X0168293
X0165793
X0163293
X0160793
X0158293
X0155793
X0157043Y0067424
X0159543
X0162043
X0164543
X0167043
Y0062424
X0169543
X0172043
X0174543
X0177043
X0175793Y0059924
X0173293
X0170793
X0168293
X0165793
X0163293
X0160793
X0158293
X0155793
X0157043Y0062424
X0159543
X0162043
X0164543
X0154543
Y0067424
X0150793Y0079924
X0152043Y0084924
X0153293Y0087424
X0150793
X0152043Y0089924
X0149543
X0147043
X0148293Y0092424
X0150793
X0153293
X0155793
X0158293
X0160793
X0163293
X0165793
X0164543Y0094924
X0162043
X0159543
X0157043
X0154543
X0152043
X0149543
X0147043
X0144543
X0142043
X0139543
X0140793Y0097424
X0143293
X0145793
X0148293
X0150793
X0153293
X0155793
X0158293
X0160793
X0163293
X0165793
Y0087424
Y0079924
X0168293
X0170793
X0173293
X0175793
X0174543Y0077424
X0172043
X0169543
X0167043
X0145793Y0092424
X0143293
X0140793
X0138293
Y0097424
X0190793
X0193293
X0195793
X0198293
X0200793
X0203293
X0205793
X0208293
X0210793
X0213293
X0215793
X0214543Y0094924
X0212043
X0209543
X0207043
X0204543
X0202043
X0199543
X0197043
X0194543
X0192043
X0189543
X0190793Y0092424
X0193293
X0195793
X0198293
X0200793
X0203293
X0205793
X0208293
X0210793
X0213293
X0215793
X0207043Y0089924
X0204543
X0202043
X0205793Y0087424
X0208293
X0207043Y0084924
X0205793Y0079924
X0210793Y0074924
X0213293
X0215793
X0214543Y0072424
X0212043
X0209543
X0210793Y0069924
X0213293
X0215793
X0214543Y0067424
X0212043
X0209543
X0210793Y0064924
X0213293
X0215793
X0214543Y0062424
X0212043
X0209543
X0210793Y0059924
X0213293
X0215793
X0203293
X0200793
X0198293
X0195793
X0193293
X0190793
X0188293
X0189543Y0062424
X0192043
X0194543
X0197043
X0199543
X0202043
X0203293Y0064924
X0200793
X0198293
X0195793
X0193293
X0190793
X0188293
X0189543Y0067424
X0192043
X0194543
X0197043
X0199543
X0202043
X0203293Y0069924
X0198293
X0195793
X0193293
X0190793
X0192043Y0072424
X0194543
X0197043
X0199543
X0198293Y0074924
X0195793
X0193293
X0190793
X0189543Y0072424
X0178293Y0079924
X0180793Y0059924
X0218293
X0220793
X0223293
X0225793
X0224543Y0062424
X0222043
X0219543
X0217043
X0218293Y0064924
X0220793
X0223293
X0225793
X0224543Y0067424
X0222043
X0219543
X0217043
X0218293Y0069924
X0220793
X0223293
X0225793
X0227043Y0077424
X0229543
X0230793Y0079924
X0228293
X0229543Y0084924
X0232043
X0233293Y0087424
X0230793
X0228293
X0225793
X0227043Y0089924
X0229543
X0232043
X0233293Y0092424
X0235793
X0238293
X0240793
X0243293
X0245793
X0248293
X0250793
X0253293
X0255793
X0254543Y0094924
X0252043
X0249543
X0247043
X0244543
X0242043
X0239543
X0237043
X0234543
X0232043
X0229543
X0227043
X0224543
X0222043
X0219543
X0217043
X0218293Y0097424
X0220793
X0223293
X0225793
X0228293
X0230793
X0233293
X0235793
X0238293
X0240793
X0243293
X0245793
X0248293
X0250793
X0253293
X0255793
X0252043Y0089924
X0249543
X0247043
X0245793Y0087424
X0250793
X0253293
X0252043Y0084924
X0255793Y0074924
Y0069924
X0254543Y0067424
X0255793Y0064924
X0254543Y0062424
X0255793Y0059924
X0248293
X0245793
X0243293
X0240793
X0238293
X0235793
X0237043Y0062424
X0239543
X0242043
X0244543
X0247043
X0249543
X0248293Y0064924
X0245793
X0243293
X0240793
X0238293
X0235793
X0237043Y0067424
X0239543
X0242043
X0244543
X0247043
X0249543
X0248293Y0069924
X0245793
X0243293
X0240793
X0238293
X0235793
X0237043Y0072424
X0239543
X0242043
X0244543
X0243293Y0074924
X0240793
X0238293
X0235793
X0234543Y0072424
Y0067424
Y0062424
X0219543Y0072424
X0217043
X0218293Y0074924
X0220793Y0087424
X0222043Y0089924
X0224543
X0225793Y0092424
X0228293
X0230793
X0223293
X0220793
X0218293
X0227043Y0084924
X0258293Y0092424
X0260793
X0263293
X0265793
X0264543Y0094924
X0262043
X0259543
X0257043
X0258293Y0097424
X0260793
X0263293
X0265793
Y0087424
X0268293Y0079924
X0270793
X0273293
X0275793
X0278293
X0274543Y0077424
X0272043
X0269543
X0267043
X0268293Y0074924
X0270793
X0273293
X0275793
X0277043Y0072424
X0275793Y0069924
X0273293
X0270793
X0268293
X0269543Y0067424
X0272043
X0274543
X0277043
X0275793Y0064924
X0273293
X0270793
X0268293
X0265793
X0263293
X0260793
X0258293
X0259543Y0067424
X0262043
X0264543
X0267043
Y0062424
X0269543
X0272043
X0274543
X0277043
X0275793Y0059924
X0273293
X0270793
X0268293
X0265793
X0263293
X0260793
X0258293
X0259543Y0062424
X0262043
X0264543
X0257043
Y0067424
X0258293Y0069924
X0260793
X0263293
X0264543Y0072424
X0262043
X0259543
X0257043
X0258293Y0074924
X0260793
X0263293
X0265793
X0284543Y0077424
X0290793Y0074924
X0293293
X0295793
X0294543Y0072424
X0292043
X0289543
X0290793Y0069924
X0293293
X0295793
X0294543Y0067424
X0292043
X0289543
X0290793Y0064924
X0293293
X0295793
X0294543Y0062424
X0292043
X0289543
X0290793Y0059924
X0293293
X0295793
X0283293
X0290793Y0092424
X0293293
X0295793
X0294543Y0094924
X0292043
X0289543
X0290793Y0097424
X0293293
X0295793
X0298293
X0300793
X0303293
X0305793
X0308293
X0310793
X0313293
X0315793
X0318293
X0320793
X0323293
X0325793
X0328293
X0330793
X0333293
X0335793
X0334543Y0094924
X0332043
X0329543
X0327043
X0324543
X0322043
X0319543
X0317043
X0314543
X0312043
X0309543
X0307043
X0304543
X0302043
X0299543
X0297043
X0298293Y0092424
X0300793
X0303293
X0305793
X0308293
X0310793
X0313293
X0315793
X0318293
X0320793
X0323293
X0325793
X0328293
X0330793
X0333293
X0335793
X0332043Y0089924
X0329543
X0327043
X0324543
X0322043
X0328293Y0087424
X0330793
X0333293
X0332043Y0084924
X0329543
X0327043
X0328293Y0079924
X0330793
X0329543Y0077424
X0335793Y0074924
Y0069924
X0334543Y0067424
X0335793Y0064924
X0334543Y0062424
X0335793Y0059924
X0325793
X0323293
X0320793
X0318293
X0315793
X0313293
X0310793
X0312043Y0062424
X0314543
X0317043
X0319543
X0322043
X0324543
X0325793Y0064924
X0323293
X0320793
X0318293
X0315793
X0313293
X0310793
X0312043Y0067424
X0314543
X0317043
X0319543
X0322043
X0324543
X0325793Y0069924
X0320793
X0318293
X0315793
X0313293
X0310793
X0312043Y0072424
X0314543
X0317043
X0319543
X0320793Y0074924
X0318293
X0315793
X0313293
X0310793
X0309543Y0067424
Y0062424
X0304543
X0302043
X0299543
X0297043
X0298293Y0064924
X0300793
X0303293
X0304543Y0067424
X0302043
X0299543
X0297043
X0298293Y0069924
X0300793
X0303293
X0299543Y0072424
X0297043
X0298293Y0074924
Y0059924
X0300793
X0303293
X0307043Y0084924
X0308293Y0087424
X0305793
X0307043Y0089924
X0304543
X0302043
X0300793Y0087424
X0338293Y0092424
X0340793
X0343293
X0345793
X0348293
X0350793
X0353293
X0355793
X0358293
X0360793
X0363293
X0365793
X0364543Y0094924
X0362043
X0359543
X0357043
X0354543
X0352043
X0349543
X0347043
X0344543
X0342043
X0339543
X0337043
X0338293Y0097424
X0340793
X0343293
X0345793
X0348293
X0350793
X0353293
X0355793
X0358293
X0360793
X0363293
X0365793
X0354543Y0089924
X0352043
X0349543
X0347043
X0345793Y0087424
X0353293
X0354543Y0084924
X0352043
X0355793Y0074924
X0358293
X0360793
X0363293
X0365793
X0364543Y0072424
X0362043
X0359543
X0357043
X0358293Y0069924
X0360793
X0363293
X0365793
X0364543Y0067424
X0362043
X0359543
X0357043
X0358293Y0064924
X0360793
X0363293
X0365793
X0364543Y0062424
X0362043
X0359543
X0357043
X0358293Y0059924
X0360793
X0363293
X0365793
X0355793
Y0064924
Y0069924
X0349543Y0067424
X0347043
X0344543
X0342043
X0339543
X0337043
X0338293Y0069924
X0340793
X0343293
X0345793
X0344543Y0072424
X0342043
X0339543
X0337043
X0338293Y0074924
X0340793
X0343293
X0345793
Y0064924
X0348293
X0349543Y0062424
X0347043
X0344543
X0342043
X0339543
X0337043
X0338293Y0064924
X0340793
X0343293
Y0059924
X0345793
X0348293
X0340793
X0338293
X0339543Y0099924
X0342043
X0344543
X0347043
X0349543
X0352043
X0354543
X0357043
X0359543
X0362043
X0364543
X0365793Y0102424
X0363293
X0360793
X0358293
X0355793
X0353293
X0350793
X0348293
X0345793
X0343293
X0340793
X0338293
X0339543Y0104924
X0342043
X0344543
X0347043
X0349543
X0352043
X0354543
X0357043
X0359543
X0362043
X0364543
X0365793Y0107424
X0363293
X0360793
X0358293
X0355793
X0353293
X0350793
X0348293
X0345793
X0343293
X0340793
X0338293
X0339543Y0109924
X0342043
X0344543
X0347043
X0349543
X0352043
X0354543
X0357043
X0359543
X0362043
X0364543
X0365793Y0112424
X0363293
X0360793
X0358293
X0355793
X0353293
X0350793
X0348293
X0345793
X0343293
X0340793
X0338293
X0339543Y0114924
X0342043
X0344543
X0347043
X0349543
X0352043
X0354543
X0357043
X0359543
X0362043
X0364543
X0353293Y0117424
X0355793Y0132424
X0358293
X0360793
X0363293
X0365793
X0364543Y0134924
X0362043
X0359543
X0357043
X0358293Y0137424
X0360793
X0363293
X0365793
X0355793
X0349543Y0134924
X0347043
X0344543
X0342043
X0339543
X0337043
X0338293Y0137424
X0340793
X0343293
X0345793
Y0132424
X0343293
X0340793
X0338293
X0337043Y0114924
Y0109924
Y0104924
Y0099924
X0334543
X0335793Y0102424
X0334543Y0104924
X0335793Y0107424
X0333293
X0330793
X0328293
X0325793
X0323293
X0320793
X0318293
X0315793
X0313293
X0310793
X0308293
X0305793
X0303293
X0300793
X0298293
X0299543Y0109924
X0302043
X0304543
X0307043
X0309543
X0312043
X0314543
X0317043
X0319543
X0322043
X0324543
X0327043
X0329543
X0332043
X0334543
X0335793Y0112424
X0333293
X0330793
X0328293
X0325793
X0323293
X0320793
X0318293
X0315793
X0313293
X0310793
X0308293
X0305793
X0303293
X0300793
X0298293
X0299543Y0114924
X0302043
X0304543
X0307043
X0309543
X0312043
X0314543
X0317043
X0319543
X0322043
X0324543
X0327043
X0329543
X0332043
X0334543
X0330793Y0117424
X0328293
X0324543Y0104924
X0322043
X0319543
X0317043
X0314543
X0312043
X0309543
X0307043
X0304543
X0302043
X0299543
X0297043
X0298293Y0102424
X0300793
X0303293
X0305793
X0308293
X0310793
X0313293
X0315793
X0318293
X0320793
X0323293
X0324543Y0099924
X0322043
X0319543
X0317043
X0314543
X0312043
X0309543
X0307043
X0304543
X0302043
X0299543
X0297043
Y0109924
Y0114924
X0298293Y0132424
X0299543Y0134924
X0302043
X0300793Y0137424
X0298293
X0297043Y0134924
X0312043
X0314543
X0317043
X0319543
X0322043
X0324543
X0325793Y0137424
X0320793
X0318293
X0315793
X0313293
X0310793
Y0132424
X0313293
X0315793
X0318293
X0320793
X0335793
Y0137424
X0295793
X0293293
X0290793
X0292043Y0134924
X0294543
X0295793Y0132424
X0293293
X0290793
X0289543Y0134924
X0283293Y0137424
X0275793
X0273293
X0270793
X0268293
X0269543Y0134924
X0272043
X0274543
X0277043
X0275793Y0132424
X0273293
X0270793
X0268293
X0265793
X0263293
X0260793
X0258293
X0259543Y0134924
X0262043
X0264543
X0267043
Y0129924
X0269543
X0272043
X0274543
X0275793Y0127424
X0273293
X0270793
X0268293
X0265793
X0267043Y0124924
X0269543
X0272043
X0274543
X0275793Y0122424
X0273293
X0270793
X0268293
X0264543Y0114924
X0262043
X0259543
X0257043
X0258293Y0112424
X0260793
X0263293
X0265793
X0264543Y0109924
X0262043
X0259543
X0257043
X0258293Y0107424
X0260793
X0263293
X0265793
X0264543Y0104924
X0262043
X0259543
X0257043
X0258293Y0102424
X0260793
X0263293
X0265793
X0264543Y0099924
X0262043
X0259543
X0257043
X0289543
X0292043
X0294543
X0295793Y0102424
X0293293
X0290793
X0292043Y0104924
X0294543
X0295793Y0107424
X0293293
X0290793
X0292043Y0109924
X0294543
X0295793Y0112424
X0293293
X0294543Y0114924
X0292043
X0289543Y0104924
X0263293Y0137424
X0260793
X0258293
X0257043Y0134924
X0255793Y0137424
Y0132424
X0247043Y0134924
X0244543
X0242043
X0239543
X0237043
X0234543
X0235793Y0137424
X0238293
X0240793
X0243293
X0245793
X0248293
X0243293Y0132424
X0240793
X0238293
X0235793
X0225793Y0137424
X0220793
X0218293
X0219543Y0134924
X0222043
X0217043
X0218293Y0132424
X0219543Y0114924
X0222043
X0224543
X0227043
X0229543
X0232043
X0234543
X0237043
X0239543
X0242043
X0244543
X0247043
X0249543
X0252043
X0254543
X0255793Y0112424
X0253293
X0250793
X0248293
X0245793
X0243293
X0240793
X0238293
X0235793
X0233293
X0230793
X0228293
X0225793
X0223293
X0220793
X0218293
X0219543Y0109924
X0222043
X0224543
X0227043
X0229543
X0232043
X0234543
X0237043
X0239543
X0242043
X0244543
X0247043
X0249543
X0252043
X0254543
X0255793Y0107424
X0253293
X0250793
X0248293
X0245793
X0243293
X0240793
X0238293
X0235793
X0233293
X0230793
X0228293
X0225793
X0223293
X0220793
X0218293
X0219543Y0104924
X0222043
X0223293Y0102424
X0220793
X0218293
X0219543Y0099924
X0222043
X0217043
Y0104924
Y0109924
Y0114924
X0228293Y0117424
X0230793
X0234543Y0104924
X0237043
X0239543
X0242043
X0244543
X0247043
X0249543
X0252043
X0254543
X0255793Y0102424
X0253293
X0250793
X0248293
X0245793
X0243293
X0240793
X0238293
X0235793
X0237043Y0099924
X0239543
X0242043
X0244543
X0247043
X0249543
X0252043
X0254543
X0234543
X0214543
X0212043
X0209543
X0207043
X0204543
X0202043
X0199543
X0197043
X0194543
X0192043
X0189543
X0190793Y0102424
X0193293
X0195793
X0198293
X0200793
X0203293
X0205793
X0208293
X0210793
X0213293
X0215793
X0214543Y0104924
X0212043
X0209543
X0207043
X0204543
X0202043
X0199543
X0197043
X0194543
X0192043
X0189543
X0190793Y0107424
X0193293
X0195793
X0198293
X0200793
X0203293
X0205793
X0208293
X0210793
X0213293
X0215793
X0214543Y0109924
X0212043
X0209543
X0207043
X0204543
X0202043
X0199543
X0197043
X0194543
X0192043
X0193293Y0112424
X0195793
X0198293
X0200793
X0203293
X0205793
X0208293
X0210793
X0213293
X0215793
X0214543Y0114924
X0212043
X0209543
X0207043
X0204543
X0202043
X0199543
X0197043
X0194543
X0192043
X0205793Y0117424
X0210793Y0132424
X0213293
X0215793
X0214543Y0134924
X0212043
X0209543
X0210793Y0137424
X0213293
X0215793
X0203293
X0200793
X0198293
X0195793
X0193293
X0190793
X0192043Y0134924
X0194543
X0197043
X0199543
X0202043
X0198293Y0132424
X0195793
X0193293
X0190793
X0189543Y0134924
X0180793Y0137424
X0175793
X0173293
X0170793
X0168293
X0169543Y0134924
X0172043
X0174543
X0175793Y0132424
X0173293
X0170793
X0168293
X0169543Y0129924
X0172043
X0174543
X0175793Y0127424
X0173293
X0170793
X0168293
X0165793
X0167043Y0129924
Y0134924
X0164543
X0162043
X0159543
X0157043
X0154543
X0155793Y0137424
X0158293
X0160793
X0163293
Y0132424
X0160793
X0158293
X0155793
X0147043Y0134924
X0144543
X0142043
X0139543
X0140793Y0137424
X0143293
X0145793
X0148293
X0143293Y0132424
X0140793
X0138293
Y0137424
X0139543Y0114924
X0142043
X0144543
X0147043
X0149543
X0152043
X0154543
X0157043
X0159543
X0162043
X0164543
X0165793Y0117424
Y0122424
X0168293
X0170793
X0173293
X0175793
X0174543Y0124924
X0172043
X0169543
X0167043
X0165793Y0112424
X0163293
X0160793
X0158293
X0155793
X0153293
X0150793
X0148293
X0145793
X0143293
X0140793
X0138293
X0139543Y0109924
X0142043
X0144543
X0147043
X0149543
X0152043
X0154543
X0157043
X0159543
X0162043
X0164543
X0165793Y0107424
X0163293
X0160793
X0158293
X0155793
X0153293
X0150793
X0148293
X0145793
X0143293
X0140793
X0138293
X0139543Y0104924
X0142043
X0144543
X0147043
X0149543
X0152043
X0154543
X0157043
X0159543
X0162043
X0164543
X0165793Y0102424
X0163293
X0160793
X0158293
X0155793
X0153293
X0150793
X0148293
X0145793
X0143293
X0140793
X0138293
X0139543Y0099924
X0142043
X0144543
X0147043
X0149543
X0152043
X0154543
X0157043
X0159543
X0162043
X0164543
X0150793Y0117424
X0137043Y0114924
X0134543
X0132043
X0129543
X0127043
X0124543
X0122043
X0119543
X0117043
X0114543
X0112043
X0109543
X0107043
X0104543
X0102043
X0099543
X0100793Y0112424
X0103293
X0105793
X0108293
X0110793
X0113293
X0115793
X0118293
X0120793
X0123293
X0125793
X0128293
X0130793
X0133293
X0135793
X0137043Y0109924
X0134543
X0132043
X0129543
X0127043
X0124543
X0122043
X0119543
X0117043
X0114543
X0112043
X0109543
X0107043
X0104543
X0102043
X0099543
X0100793Y0107424
X0103293
X0105793
X0108293
X0110793
X0113293
X0115793
X0118293
X0120793
X0123293
X0125793
X0128293
X0130793
X0133293
X0135793
X0137043Y0104924
X0134543
X0135793Y0102424
X0133293
X0134543Y0099924
X0137043
X0122043
X0119543
X0117043
X0114543
X0112043
X0109543
X0107043
X0104543
X0102043
X0099543
X0100793Y0102424
X0103293
X0105793
X0108293
X0110793
X0113293
X0115793
X0118293
X0120793
X0123293
X0122043Y0104924
X0119543
X0117043
X0114543
X0112043
X0109543
X0107043
X0104543
X0102043
X0099543
X0098293Y0107424
Y0112424
Y0102424
X0105793Y0117424
X0110793Y0132424
X0113293
X0115793
X0118293
X0119543Y0134924
X0122043
X0123293Y0137424
X0120793
X0118293
X0115793
X0113293
X0110793
X0112043Y0134924
X0114543
X0117043
X0109543
X0102043
X0099543
X0098293Y0137424
X0103293
X0098293Y0132424
X0135793
X0137043Y0134924
X0134543
X0135793Y0137424
X0130793Y0117424
X0128293
X0125793
X0097043Y0114924
X0094543
X0092043
X0093293Y0112424
X0095793
X0097043Y0109924
X0094543
X0092043
X0093293Y0107424
X0095793
X0097043Y0104924
X0094543
X0092043
X0089543
X0090793Y0107424
Y0112424
Y0102424
X0093293
X0095793
X0097043Y0099924
X0094543
X0092043
X0089543
X0072043Y0109924
X0069543
X0067043
X0064543
X0062043
X0059543
X0060793Y0112424
X0063293
X0065793
X0068293
X0070793
X0073293
X0072043Y0114924
X0069543
X0067043
X0064543
X0062043
X0059543
X0060793Y0117424
X0063293
X0065793
X0068293
X0070793
X0073293
X0072043Y0119924
X0069543
X0067043
X0064543
X0062043
X0059543
X0060793Y0122424
X0063293
X0065793
X0068293
X0070793
X0073293
X0072043Y0124924
X0069543
X0067043
X0064543
X0062043
X0059543
X0060793Y0127424
X0063293
X0065793
X0068293
X0070793
X0073293
X0072043Y0129924
X0069543
X0067043
X0064543
X0062043
X0059543
X0060793Y0132424
X0063293
X0065793
X0068293
X0070793
X0073293
X0072043Y0134924
X0069543
X0067043
X0064543
X0062043
X0059543
X0060793Y0137424
X0063293
X0065793
X0068293
X0070793
X0073293
X0080793
X0088293
X0090793
X0093293
X0095793
X0097043Y0134924
X0094543
X0092043
X0089543
X0090793Y0132424
X0093293
X0095793
X0088293
X0058293
Y0137424
Y0127424
Y0122424
Y0117424
Y0112424
Y0107424
X0060793
X0063293
X0065793
X0068293
X0064543Y0104924
X0062043
X0059543
X0057043
X0055793Y0107424
X0053293
X0050793
X0048293
X0045793
X0043293
X0040793
X0038293
X0035793
X0033293
X0030793
X0028293
X0025793
X0023293
X0020793
X0022043Y0109924
X0024543
X0027043
X0029543
X0032043
X0034543
X0037043
X0039543
X0042043
X0044543
X0047043
X0049543
X0052043
X0054543
X0057043
X0055793Y0112424
X0053293
X0050793
X0048293
X0045793
X0043293
X0040793
X0038293
X0035793
X0033293
X0030793
X0028293
X0025793
X0023293
X0020793
X0022043Y0114924
X0024543
X0027043
X0029543
X0032043
X0034543
X0037043
X0039543
X0042043
X0044543
X0047043
X0049543
X0052043
X0054543
X0057043
X0055793Y0117424
X0053293
X0050793
X0048293
X0045793
X0043293
X0040793
X0038293
X0035793
X0033293
X0030793
X0028293
X0025793
X0023293
X0020793
X0019543Y0119924
X0020793Y0122424
X0019543Y0124924
X0020793Y0127424
X0023293
X0025793
X0028293
X0030793
X0033293
X0035793
X0038293
X0040793
X0043293
X0045793
X0048293
X0050793
X0053293
X0055793
X0057043Y0129924
X0054543
X0052043
X0049543
X0047043
X0044543
X0042043
X0039543
X0037043
X0034543
X0032043
X0029543
X0027043
X0024543
X0022043
X0019543
X0020793Y0132424
X0023293
X0025793
X0028293
X0030793
X0033293
X0035793
X0038293
X0040793
X0043293
X0045793
X0048293
X0050793
X0053293
X0055793
X0057043Y0134924
X0054543
X0052043
X0049543
X0047043
X0044543
X0042043
X0039543
X0037043
X0034543
X0032043
X0029543
X0027043
X0024543
X0022043
X0019543
X0020793Y0137424
X0023293
X0025793
X0028293
X0030793
X0033293
X0035793
X0038293
X0040793
X0043293
X0045793
X0048293
X0050793
X0053293
X0055793
X0057043Y0124924
X0054543
X0052043
X0049543
X0047043
X0044543
X0042043
X0039543
X0037043
X0034543
X0032043
X0033293Y0122424
X0035793
X0038293
X0040793
X0043293
X0045793
X0048293
X0050793
X0053293
X0055793
X0057043Y0119924
X0054543
X0052043
X0049543
X0047043
X0044543
X0042043
X0039543
X0037043
X0034543
X0032043
X0030793Y0122424
X0032043Y0104924
X0029543
X0037043
X0039543
X0042043
X0044543
X0047043
X0049543
X0052043
X0022043
X0019543Y0109924
Y0114924
X0017043
X0018293Y0117424
X0017043Y0119924
X0018293Y0122424
X0017043Y0124924
X0018293Y0127424
X0017043Y0129924
X0018293Y0132424
X0017043Y0134924
X0018293Y0137424
Y0112424
X0017043Y0109924
X0018293Y0107424
X0019543Y0139924
X0022043
X0024543
X0027043
X0029543
X0032043
X0034543
X0037043
X0039543
X0042043
X0044543
X0047043
X0049543
X0052043
X0054543
X0057043
X0055793Y0142424
X0053293
X0050793
X0048293
X0045793
X0043293
X0040793
X0038293
X0035793
X0033293
X0037043Y0144924
X0039543
X0042043
X0044543
X0047043
X0049543
X0052043
X0054543
X0057043
X0055793Y0147424
X0053293
X0050793
X0048293
X0045793
X0043293
X0040793
X0042043Y0149924
X0044543
X0047043
X0049543
X0052043
X0054543
X0057043
X0055793Y0152424
X0053293
X0050793
X0048293
X0045793
X0047043Y0154924
X0049543
X0052043
X0054543
X0057043
X0054543Y0159924
X0052043
X0059543
X0062043
X0064543
X0067043
X0069543
X0072043
X0074543
X0082043
X0084543
X0080793Y0157424
X0082043Y0154924
X0080793Y0152424
X0082043Y0149924
X0080793Y0147424
X0082043Y0144924
X0080793Y0142424
X0082043Y0139924
X0088293Y0142424
X0090793
X0093293
X0095793
X0097043Y0144924
X0094543
X0092043
X0089543
X0090793Y0147424
X0093293
X0095793
X0097043Y0149924
X0094543
X0092043
X0089543
X0090793Y0152424
X0093293
X0095793
X0097043Y0154924
X0094543
X0092043
X0089543
X0090793Y0157424
X0093293
X0095793
X0097043Y0159924
X0094543
X0088293Y0152424
Y0147424
X0073293
X0070793
X0068293
X0065793
X0063293
X0060793
X0058293
X0059543Y0149924
X0062043
X0064543
X0067043
X0069543
X0072043
X0073293Y0152424
X0070793
X0068293
X0065793
X0063293
X0060793
X0058293
X0059543Y0154924
X0062043
X0064543
X0067043
X0069543
X0072043
Y0144924
X0069543
X0067043
X0064543
X0062043
X0059543
X0060793Y0142424
X0063293
X0065793
X0068293
X0070793
X0073293
X0072043Y0139924
X0069543
X0067043
X0064543
X0062043
X0059543
X0058293Y0142424
X0098293
X0100793
X0103293
X0102043Y0144924
X0099543
X0100793Y0147424
X0103293
X0102043Y0149924
X0099543
X0100793Y0152424
X0103293
X0102043Y0154924
X0099543
X0100793Y0157424
X0098293
Y0152424
Y0147424
X0099543Y0139924
X0102043
X0108293Y0142424
X0110793
X0113293
X0115793
X0118293
X0120793
X0123293
X0124543Y0144924
X0122043
X0119543
X0117043
X0114543
X0112043
X0109543
X0110793Y0147424
X0113293
X0115793
X0118293
X0120793
X0123293
X0124543Y0149924
X0122043
X0119543
X0117043
X0114543
X0112043
X0109543
X0110793Y0152424
X0113293
X0115793
X0118293
X0120793
X0123293
X0124543Y0154924
X0122043
X0119543
X0117043
X0114543
X0112043
X0109543
X0110793Y0157424
X0113293
X0115793
X0118293
X0120793
X0123293
X0124543Y0159924
X0122043
X0119543
X0117043
X0114543
X0112043
X0109543
X0107043
X0108293Y0157424
Y0152424
Y0147424
X0119543Y0139924
X0122043
X0124543
X0133293Y0142424
X0135793
X0137043Y0144924
X0134543
X0135793Y0147424
X0133293
X0134543Y0149924
X0137043
X0135793Y0152424
X0133293
X0134543Y0154924
X0137043
X0135793Y0157424
X0138293
X0140793
X0143293
X0145793
X0147043Y0154924
X0144543
X0142043
X0139543
X0140793Y0152424
X0143293
X0145793
X0148293
X0147043Y0149924
X0144543
X0142043
X0139543
X0140793Y0147424
X0143293
X0145793
X0148293
X0147043Y0144924
X0144543
X0142043
X0139543
X0140793Y0142424
X0143293
X0145793
X0148293
X0147043Y0139924
X0144543
X0138293Y0142424
Y0147424
Y0152424
X0139543Y0159924
X0142043
X0152043
X0154543
X0157043
X0159543
X0162043
X0164543
X0167043
X0169543
X0172043
X0174543
X0175793Y0157424
X0173293
X0170793
X0168293
X0165793
X0163293
X0160793
X0158293
X0155793
X0157043Y0154924
X0159543
X0162043
X0164543
X0167043
X0169543
X0172043
X0174543
X0175793Y0152424
X0173293
X0170793
X0168293
X0165793
X0163293
X0160793
X0158293
X0155793
X0157043Y0149924
X0159543
X0162043
X0164543
X0167043
X0169543
X0172043
X0174543
X0175793Y0147424
X0173293
X0170793
X0168293
X0165793
X0163293
X0160793
X0158293
X0155793
X0157043Y0144924
X0159543
X0162043
X0164543
X0167043
X0169543
X0172043
X0174543
X0175793Y0142424
X0173293
X0170793
X0168293
X0165793
X0163293
X0160793
X0158293
X0155793
X0154543Y0144924
Y0149924
Y0154924
X0167043Y0139924
X0169543
X0172043
X0174543
X0182043
X0180793Y0142424
X0182043Y0144924
X0180793Y0147424
X0182043Y0149924
X0180793Y0152424
X0182043Y0154924
X0183293Y0157424
X0180793
X0182043Y0159924
X0184543
X0190793Y0157424
X0193293
X0195793
X0198293
X0200793
X0202043Y0154924
X0199543
X0197043
X0194543
X0192043
X0189543
X0190793Y0152424
X0193293
X0195793
X0198293
X0200793
X0203293
X0202043Y0149924
X0199543
X0197043
X0194543
X0192043
X0189543
X0190793Y0147424
X0193293
X0195793
X0198293
X0200793
X0203293
X0202043Y0144924
X0199543
X0197043
X0194543
X0192043
X0189543
X0190793Y0142424
X0193293
X0195793
X0198293
X0200793
X0203293
X0202043Y0139924
X0199543
X0209543
X0210793Y0142424
X0213293
X0215793
X0214543Y0144924
X0212043
X0209543
X0210793Y0147424
X0213293
X0215793
X0214543Y0149924
X0212043
X0209543
X0210793Y0152424
X0213293
X0215793
X0214543Y0154924
X0212043
X0209543
X0210793Y0157424
X0213293
X0215793
X0214543Y0159924
X0212043
X0209543
X0207043
X0197043
X0194543
X0188293Y0152424
Y0147424
Y0142424
X0218293
X0220793
X0223293
X0225793
X0224543Y0144924
X0222043
X0219543
X0217043
X0218293Y0147424
X0220793
X0223293
X0225793
X0224543Y0149924
X0222043
X0219543
X0217043
X0218293Y0152424
X0220793
X0223293
X0225793
X0224543Y0154924
X0222043
X0219543
X0217043
X0218293Y0157424
X0220793
X0223293
X0225793
X0224543Y0159924
X0222043
X0219543
X0217043
X0235793Y0157424
X0238293
X0240793
X0243293
X0245793
X0247043Y0154924
X0249543
X0248293Y0152424
X0245793
X0243293
X0240793
X0238293
X0235793
X0237043Y0154924
X0239543
X0242043
X0244543
Y0159924
X0242043
X0239543
Y0149924
X0242043
X0244543
X0247043
X0249543
X0248293Y0147424
X0245793
X0243293
X0240793
X0238293
X0235793
X0237043Y0149924
X0234543
Y0154924
Y0144924
X0237043
X0239543
X0242043
X0244543
X0247043
X0249543
X0248293Y0142424
X0245793
X0243293
X0240793
X0238293
X0235793
X0234543Y0139924
X0224543
X0222043
X0247043
X0249543
X0254543
X0255793Y0142424
X0254543Y0144924
X0255793Y0147424
X0254543Y0149924
X0255793Y0152424
X0254543Y0154924
X0255793Y0157424
X0254543Y0159924
X0252043
X0257043
X0259543
X0262043
X0264543
X0267043
X0269543
X0272043
X0274543
X0277043
X0275793Y0157424
X0273293
X0270793
X0268293
X0265793
X0263293
X0260793
X0258293
X0259543Y0154924
X0262043
X0264543
X0267043
X0269543
X0272043
X0274543
X0277043
X0275793Y0152424
X0273293
X0270793
X0268293
X0265793
X0263293
X0260793
X0258293
X0259543Y0149924
X0262043
X0264543
X0267043
X0269543
X0272043
X0274543
X0277043
X0275793Y0147424
X0273293
X0270793
X0268293
X0265793
X0263293
X0260793
X0258293
X0259543Y0144924
X0262043
X0264543
X0267043
X0269543
X0272043
X0274543
X0277043
X0275793Y0142424
X0273293
X0270793
X0268293
X0265793
X0263293
X0260793
X0258293
X0257043Y0144924
Y0149924
Y0154924
X0282043
X0283293Y0157424
X0284543Y0159924
X0282043
X0283293Y0152424
X0282043Y0149924
X0283293Y0147424
X0282043Y0144924
X0283293Y0142424
X0282043Y0139924
X0277043
X0274543
X0272043
X0269543
X0267043
X0289543
X0290793Y0142424
X0293293
X0295793
X0294543Y0144924
X0292043
X0289543
X0290793Y0147424
X0293293
X0295793
X0294543Y0149924
X0292043
X0289543
X0290793Y0152424
X0293293
X0295793
X0294543Y0154924
X0292043
X0289543
X0293293Y0157424
X0295793
X0294543Y0159924
X0297043
X0299543
X0300793Y0157424
X0298293
X0299543Y0154924
X0302043
X0304543
X0303293Y0152424
X0300793
X0298293
X0299543Y0149924
X0302043
X0304543
X0303293Y0147424
X0300793
X0298293
X0299543Y0144924
X0302043
X0304543
X0303293Y0142424
X0300793
X0298293
X0297043Y0144924
Y0149924
Y0154924
X0309543
X0312043
X0314543
X0317043
X0319543
X0322043
X0324543
X0325793Y0157424
X0323293
X0320793
X0318293
X0315793
X0313293
X0310793
X0312043Y0159924
X0314543
X0317043
X0319543
X0322043
X0324543
X0325793Y0152424
X0323293
X0320793
X0318293
X0315793
X0313293
X0310793
X0312043Y0149924
X0314543
X0317043
X0319543
X0322043
X0324543
X0325793Y0147424
X0323293
X0320793
X0318293
X0315793
X0313293
X0310793
X0312043Y0144924
X0314543
X0317043
X0319543
X0322043
X0324543
X0325793Y0142424
X0323293
X0320793
X0318293
X0315793
X0313293
X0310793
X0309543Y0144924
Y0149924
Y0159924
X0307043
X0309543Y0139924
X0304543
X0302043
X0322043
X0324543
X0334543
X0335793Y0142424
X0334543Y0144924
X0335793Y0147424
X0334543Y0149924
X0335793Y0152424
X0334543Y0154924
X0337043
X0339543
X0342043
X0344543
X0347043
X0349543
X0348293Y0152424
X0345793
X0343293
X0340793
X0338293
X0339543Y0149924
X0342043
X0344543
X0347043
X0349543
X0348293Y0147424
X0345793
X0343293
X0340793
X0338293
X0339543Y0144924
X0342043
X0344543
X0347043
X0349543
X0348293Y0142424
X0345793
X0343293
X0340793
X0338293
X0337043Y0144924
Y0149924
X0338293Y0157424
X0340793
X0343293
X0345793
X0344543Y0159924
X0342043
X0339543
X0354543
X0357043
X0359543
X0362043
X0364543
X0365793Y0157424
X0363293
X0360793
X0358293
X0355793
X0357043Y0154924
X0359543
X0362043
X0364543
X0365793Y0152424
X0363293
X0360793
X0358293
X0355793
X0357043Y0149924
X0359543
X0362043
X0364543
X0365793Y0147424
X0363293
X0360793
X0358293
X0355793
X0357043Y0144924
X0359543
X0362043
X0364543
X0365793Y0142424
X0363293
X0360793
X0358293
X0355793
X0349543Y0139924
X0347043
T05
X00162277Y00088946
X00187277
X00212277
X00237277
X001619Y01588444
X001873
X002127
Y01740844
X001873
X003651
X004159
Y01588444
X003651
X03109951Y01945846
X03134951
X03159951
X03184951
X02178141
X02153141
X02128141Y01945847
X02103141Y01945846
X01171331
X01146331
X01121331
X01096331
T06
X000807Y0097593
X001569
Y0105213
X000807
T07
X001594Y0151596
X003094
T08
X003419Y0097653
X005419
X007419Y0087653
X0174871
X0275552
Y0115153
X0174871
X007419
X005419Y0105153
X003419
T09
X03525306Y00250196
X03550706
X03576106
X03652307
X03677706
X02670896
X02645497
X02569296
X02543896
X02518496
X01664086
X01638687
X01562487
X01537086
X01511687
X00801885Y01726649
X00776485
X00751085
X00674885
X00649485
X01656295
X01681695
X01757895
X01783295
X01808695
X02663105
X02688505
X02764705
X02790105
X02815505
T10
X0438338Y0051956
Y0054496
Y0057036
X0435798
Y0054496
Y0051956
X0395158Y0051983
Y0054523
Y0057063
X0392618
Y0054523
Y0051983
Y0059603
Y0062143
Y0064683
Y0067223
Y0069763
Y0072303
X0395158
Y0074843
X0392618
X0395158Y0069763
Y0067223
Y0064683
Y0062143
Y0059603
X0435798Y0059576
Y0062116
Y0064656
Y0067196
Y0069736
Y0072276
X0438338
Y0074816
X0435798
X0438338Y0069736
Y0067196
Y0064656
Y0062116
Y0059576
Y0115456
Y0117996
Y0120536
Y0123076
Y0125616
Y0128156
X0435798
Y0130696
Y0133236
Y0135776
X0438338
Y0133236
Y0130696
X0435798Y0125616
Y0123076
Y0120536
Y0117996
Y0115456
X0395158Y0115483
X0392618
Y0118023
X0395158
Y0120563
Y0123103
Y0125643
Y0128183
Y0130723
X0392618
Y0128183
Y0125643
Y0123103
Y0120563
Y0133263
X0395158
Y0135803
X0392618
Y0138343
X0395158
X0435798Y0138316
X0438338
T11
X002365Y0077613
Y0080153
Y0082693
X002619
Y0080153
Y0077613
X002873
Y0080153
Y0082693
X0327116Y00995499
X0329656
Y01020899
X0327116
Y01046299
X0329656
X0332196
Y01020899
Y00995499
X0231515
Y01020899
Y01046299
X0228975
X0226435
Y01020899
Y00995499
X0228975
Y01020899
X0130834
Y01046299
X0128294
X0125754
Y01020899
Y00995499
X0128294
X0130834
X0128294Y01020899
X00286869Y01200911
Y01226311
Y01251712
X00261469
X00236069
Y01226311
Y01200911
X00261469
Y01226311
T12
X0423555Y02042
X0419555
X0415555
X0417555Y02082
X0421555
X0423555Y02122
X0419555
X0415555
X0411555
X0407555
X0403555
X0399555
X0395555
X0391555
X0387555
X0383555
X0379555
X0381555Y02082
X0385555
X0389555
X0393555Y02082
X0397555
X0401555Y02082
X0405555
X0409555
X0413555
X0411555Y02042
X0407555
X0403555
X0399555Y02042
X0395555
X0391555
X0387555Y02042
X0383555
X0379555
M30
